<svg width="512" height="342" viewBox="0 0 512 342" fill="none" xmlns="http://www.w3.org/2000/svg">
<path d="M508.875 163.458L348.875 3.45801C344.708 -0.708986 337.958 -0.708986 333.792 3.45801C329.625 7.62501 329.625 14.375 333.792 18.541L475.584 160.333H10.667C4.771 160.333 0 165.104 0 171C0 176.896 4.771 181.667 10.667 181.667H475.584L333.792 323.458C329.625 327.625 329.625 334.375 333.792 338.541C335.875 340.624 338.605 341.666 341.334 341.666C344.063 341.666 346.792 340.624 348.876 338.541L508.876 178.541C513.042 174.375 513.042 167.625 508.875 163.458Z" fill="white"/>
</svg>
