<svg width="512" height="512" viewBox="0 0 512 512" fill="none" xmlns="http://www.w3.org/2000/svg">
<path d="M256 0C114.844 0 0 114.844 0 256C0 397.156 114.844 512 256 512C397.156 512 512 397.156 512 256C512 114.844 397.156 0 256 0ZM256 490.667C126.604 490.667 21.333 385.396 21.333 256C21.333 126.604 126.604 21.333 256 21.333C385.396 21.333 490.667 126.604 490.667 256C490.667 385.396 385.396 490.667 256 490.667Z" fill="#fff"/>
<path d="M359.542 152.458C355.375 148.291 348.625 148.291 344.459 152.458L256 240.917L167.542 152.459C163.375 148.292 156.625 148.292 152.459 152.459C148.292 156.626 148.292 163.376 152.459 167.542L240.917 256L152.459 344.458C148.292 348.625 148.292 355.375 152.459 359.541C154.542 361.624 157.272 362.666 160.001 362.666C162.73 362.666 165.459 361.624 167.543 359.541L256 271.083L344.458 359.541C346.541 361.624 349.271 362.666 352 362.666C354.729 362.666 357.458 361.624 359.542 359.541C363.709 355.374 363.709 348.624 359.542 344.458L271.083 256L359.541 167.542C363.708 163.375 363.708 156.625 359.542 152.458Z" fill="#fff"/>
</svg>
