<svg width="40" height="40" viewBox="0 0 500 500" fill="none" xmlns="http://www.w3.org/2000/svg">
<path d="M250 498.5C387.243 498.5 498.5 387.243 498.5 250C498.5 112.757 387.243 1.5 250 1.5C112.757 1.5 1.5 112.757 1.5 250C1.5 387.243 112.757 498.5 250 498.5Z" fill="#FF0000"/>
<path d="M353.44 323.3C355.438 325.301 356.56 328.012 356.56 330.84C356.56 333.667 355.438 336.379 353.44 338.38L338.38 353.44C336.379 355.438 333.668 356.56 330.84 356.56C328.013 356.56 325.301 355.438 323.3 353.44L250 280.14L176.7 353.44C174.699 355.438 171.988 356.56 169.16 356.56C166.333 356.56 163.621 355.438 161.62 353.44L146.56 338.38C145.568 337.391 144.781 336.215 144.245 334.922C143.708 333.628 143.431 332.241 143.431 330.84C143.431 329.439 143.708 328.052 144.245 326.758C144.781 325.464 145.568 324.289 146.56 323.3L219.86 250L146.56 176.7C145.568 175.711 144.781 174.535 144.245 173.242C143.708 171.948 143.431 170.561 143.431 169.16C143.431 167.759 143.708 166.372 144.245 165.078C144.781 163.784 145.568 162.609 146.56 161.62L161.62 146.56C163.621 144.562 166.333 143.44 169.16 143.44C171.988 143.44 174.699 144.562 176.7 146.56L250 219.86L323.3 146.56C325.301 144.562 328.013 143.44 330.84 143.44C333.668 143.44 336.379 144.562 338.38 146.56L353.44 161.62C354.432 162.609 355.219 163.784 355.755 165.078C356.292 166.372 356.569 167.759 356.569 169.16C356.569 170.561 356.292 171.948 355.755 173.242C355.219 174.535 354.432 175.711 353.44 176.7L280.14 250L353.44 323.3Z" fill="white"/>
</svg>
