<svg width="66" height="66" viewBox="0 0 66 66" fill="none" xmlns="http://www.w3.org/2000/svg">
<path d="M33 66C51.2254 66 66 51.2254 66 33C66 14.7746 51.2254 0 33 0C14.7746 0 0 14.7746 0 33C0 51.2254 14.7746 66 33 66Z" fill="white"/>
<path d="M35.5999 32.78L47.2999 21.08C47.4975 20.8824 47.6085 20.6144 47.6085 20.335C47.6085 20.0556 47.4975 19.7876 47.2999 19.59C47.1023 19.3924 46.8343 19.2814 46.5549 19.2814C46.2755 19.2814 46.0075 19.3924 45.8099 19.59L34.1099 31.29L22.4099 19.59C22.2123 19.3924 21.9443 19.2814 21.6649 19.2814C21.3855 19.2814 21.1175 19.3924 20.9199 19.59C20.7223 19.7876 20.6113 20.0556 20.6113 20.335C20.6113 20.6144 20.7223 20.8824 20.9199 21.08L32.6199 32.78L20.9199 44.48C20.7239 44.6784 20.614 44.9461 20.614 45.225C20.614 45.5039 20.7239 45.7716 20.9199 45.97C21.0152 46.07 21.1301 46.1491 21.2575 46.2025C21.3848 46.2558 21.5219 46.2822 21.6599 46.28C21.7992 46.2807 21.9373 46.2536 22.0661 46.2004C22.1948 46.1472 22.3117 46.0688 22.4099 45.97L34.1099 34.27L45.8099 46C45.9052 46.1 46.0201 46.1791 46.1475 46.2325C46.2748 46.2858 46.4119 46.3122 46.5499 46.31C46.7577 46.3082 46.9603 46.2455 47.1327 46.1295C47.3051 46.0136 47.4396 45.8495 47.5195 45.6577C47.5994 45.466 47.6212 45.2549 47.5821 45.0509C47.5431 44.8468 47.445 44.6587 47.2999 44.51L35.5999 32.78Z" fill="#5C63EF"/>
</svg>
