<svg width="512" height="512" viewBox="0 0 512 512" fill="none" xmlns="http://www.w3.org/2000/svg">
<path d="M256 0C114.497 0 0 114.507 0 256C0 397.503 114.507 512 256 512C397.503 512 512 397.493 512 256C512 114.497 397.493 0 256 0ZM256 472C136.607 472 40 375.385 40 256C40 136.607 136.615 40 256 40C375.393 40 472 136.615 472 256C472 375.393 375.385 472 256 472Z" fill="white"/>
<path d="M256 128.877C244.954 128.877 236 137.831 236 148.877V277.67C236 288.716 244.954 297.67 256 297.67C267.046 297.67 276 288.716 276 277.67V148.877C276 137.831 267.046 128.877 256 128.877Z" fill="white"/>
<path d="M256 376.16C270.912 376.16 283 364.072 283 349.16C283 334.248 270.912 322.16 256 322.16C241.088 322.16 229 334.248 229 349.16C229 364.072 241.088 376.16 256 376.16Z" fill="white"/>
</svg>
