<svg width="119" height="119" viewBox="0 0 119 119" fill="none" xmlns="http://www.w3.org/2000/svg">
<path d="M26.1498 114.38L22.7098 109.53C22.5358 109.286 22.3154 109.078 22.0612 108.919C21.807 108.76 21.5239 108.653 21.2281 108.603C20.9324 108.553 20.6297 108.562 20.3375 108.63C20.0452 108.697 19.7691 108.821 19.5248 108.995C19.2806 109.169 19.073 109.389 18.9139 109.644C18.7548 109.898 18.6474 110.181 18.5977 110.477C18.548 110.772 18.5571 111.075 18.6244 111.367C18.6917 111.66 18.8158 111.936 18.9898 112.18L22.4298 117.02C22.635 117.326 22.9117 117.576 23.2359 117.751C23.56 117.925 23.9218 118.017 24.2898 118.02C24.7633 118.024 25.2256 117.877 25.6098 117.6C25.8598 117.427 26.0726 117.205 26.2355 116.948C26.3985 116.691 26.5084 116.404 26.5587 116.104C26.609 115.804 26.5988 115.497 26.5286 115.201C26.4583 114.905 26.3296 114.626 26.1498 114.38Z" fill="white" stroke="#3859FF" stroke-width="1.5" stroke-miterlimit="10"/>
<path d="M52.4999 115.23L48.7599 97.39C46.9692 88.7592 41.8586 81.1777 34.5299 76.28L26.5299 70.9C24.9833 69.8517 23.1186 69.3778 21.2592 69.5604C19.3997 69.7431 17.6629 70.5708 16.3499 71.9V44.42C16.3499 42.3911 15.5439 40.4453 14.1092 39.0106C12.6746 37.576 10.7288 36.77 8.69987 36.77C6.67097 36.77 4.72513 37.576 3.29048 39.0106C1.85582 40.4453 1.04985 42.3911 1.04985 44.42V79.84C1.0408 84.4541 2.47818 88.9551 5.15986 92.71L9.22987 98.45C9.43724 98.7557 9.71577 99.0064 10.0415 99.1806C10.3673 99.3548 10.7305 99.4473 11.0999 99.45C11.5731 99.4523 12.035 99.3053 12.4199 99.03C12.6642 98.8567 12.872 98.637 13.0314 98.3834C13.1908 98.1297 13.2986 97.8472 13.3488 97.5519C13.3989 97.2566 13.3904 96.9543 13.3237 96.6622C13.2569 96.3702 13.1333 96.0942 12.9599 95.85L8.87986 90.11C6.75601 87.1219 5.61647 83.546 5.61985 79.88V44.42C5.61985 43.6031 5.94437 42.8197 6.52198 42.2421C7.0996 41.6645 7.883 41.34 8.69987 41.34C9.51674 41.34 10.3001 41.6645 10.8778 42.2421C11.4554 42.8197 11.7799 43.6031 11.7799 44.42V72.52C11.7733 76.4763 13.2382 80.2938 15.8899 83.23C16.0099 83.37 16.1199 83.51 16.2499 83.64C17.7699 85.24 19.5499 87.14 21.2499 88.92L23.5999 91.43L27.1299 95.18C27.329 95.422 27.5757 95.6205 27.8547 95.7633C28.1337 95.906 28.4391 95.99 28.7518 96.01C29.0646 96.03 29.3782 95.9856 29.6731 95.8795C29.968 95.7734 30.238 95.6079 30.4663 95.3933C30.6947 95.1786 30.8766 94.9194 31.0007 94.6316C31.1248 94.3438 31.1885 94.0336 31.1879 93.7202C31.1873 93.4068 31.1224 93.0969 30.9971 92.8096C30.8719 92.5223 30.689 92.2638 30.4599 92.05L24.6899 85.92L19.4499 80.34C18.8677 79.6326 18.5561 78.7413 18.5707 77.8253C18.5854 76.9093 18.9254 76.0284 19.5299 75.34C20.0842 74.7174 20.8447 74.316 21.6715 74.2094C22.4983 74.1029 23.3357 74.2984 24.0299 74.76L32.0299 80.14C38.3669 84.3771 42.7845 90.9353 44.3298 98.4L47.9999 116.17C48.1097 116.682 48.3921 117.142 48.7997 117.471C49.2074 117.801 49.7157 117.98 50.2398 117.98C50.3959 117.999 50.5538 117.999 50.7099 117.98C51.0105 117.922 51.2965 117.804 51.5506 117.633C51.8047 117.462 52.0217 117.242 52.1888 116.985C52.3559 116.728 52.4695 116.441 52.5229 116.139C52.5764 115.838 52.5685 115.528 52.4999 115.23V115.23Z" fill="white" stroke="#3859FF" stroke-width="1.5" stroke-miterlimit="10"/>
<path d="M17.9999 102.88C17.8259 102.636 17.6055 102.428 17.3512 102.269C17.097 102.11 16.8139 102.003 16.5182 101.953C16.2224 101.903 15.9198 101.912 15.6275 101.98C15.3353 102.047 15.0591 102.171 14.8149 102.345C14.5706 102.519 14.363 102.739 14.204 102.994C14.0449 103.248 13.9374 103.531 13.8878 103.827C13.8381 104.122 13.8471 104.425 13.9144 104.717C13.9817 105.01 14.1059 105.286 14.2799 105.53V105.53C14.4869 105.834 14.764 106.083 15.0877 106.257C15.4115 106.431 15.7724 106.525 16.1399 106.53C16.6143 106.53 17.0765 106.38 17.4599 106.1C17.7099 105.927 17.9226 105.705 18.0856 105.448C18.2485 105.191 18.3584 104.904 18.4087 104.604C18.4591 104.304 18.4488 103.997 18.3786 103.701C18.3084 103.405 18.1796 103.126 17.9999 102.88V102.88Z" fill="white" stroke="#3859FF" stroke-width="1.5" stroke-miterlimit="10"/>
<path d="M115.15 38.46C114.023 37.5581 112.664 36.9934 111.229 36.8312C109.795 36.669 108.344 36.9159 107.044 37.5434C105.744 38.1708 104.648 39.1533 103.883 40.3772C103.118 41.6011 102.715 43.0166 102.72 44.46V71.98C101.406 70.6483 99.6674 69.819 97.8057 69.6363C95.9441 69.4536 94.0772 69.929 92.5298 70.98L84.5298 76.36C77.2011 81.2577 72.0905 88.8392 70.2998 97.47L66.5598 115.31C66.4969 115.604 66.493 115.907 66.5481 116.202C66.6033 116.497 66.7165 116.778 66.8811 117.03C67.0457 117.281 67.2585 117.497 67.5072 117.665C67.7559 117.833 68.0354 117.95 68.3298 118.01C68.4858 118.03 68.6437 118.03 68.7998 118.01C69.3227 118.01 69.8296 117.83 70.2356 117.5C70.6416 117.171 70.922 116.712 71.0298 116.2L74.7698 98.36C76.3226 90.8958 80.7428 84.3391 87.0798 80.1L95.0798 74.72C95.7723 74.2591 96.6081 74.0639 97.4332 74.1705C98.2583 74.2771 99.0171 74.6782 99.5698 75.3C100.18 75.9856 100.524 76.8675 100.538 77.7851C100.553 78.7028 100.238 79.5953 99.6498 80.3V80.35C99.6498 80.35 88.6498 92.02 88.6498 92.06C88.2803 92.5088 88.0954 93.0813 88.1325 93.6614C88.1696 94.2415 88.4259 94.7858 88.8494 95.1839C89.273 95.5821 89.8321 95.8042 90.4134 95.8053C90.9947 95.8064 91.5547 95.5865 91.9798 95.19C91.9798 95.19 101.35 85.19 102.87 83.63C102.99 83.5 103.11 83.36 103.22 83.22C105.87 80.2822 107.338 76.4666 107.34 72.51V44.41C107.316 43.9914 107.378 43.5724 107.521 43.1786C107.665 42.7847 107.888 42.4244 108.176 42.1196C108.464 41.8148 108.811 41.572 109.196 41.4061C109.581 41.2402 109.996 41.1546 110.415 41.1546C110.834 41.1546 111.249 41.2402 111.634 41.4061C112.019 41.572 112.366 41.8148 112.654 42.1196C112.942 42.4244 113.164 42.7847 113.308 43.1786C113.452 43.5724 113.514 43.9914 113.49 44.41V79.83C113.493 83.496 112.354 87.0719 110.23 90.06L92.9698 114.37C92.7963 114.614 92.6727 114.89 92.606 115.182C92.5392 115.474 92.5307 115.777 92.5809 116.072C92.631 116.367 92.7389 116.65 92.8982 116.903C93.0576 117.157 93.2654 117.377 93.5098 117.55C93.8947 117.825 94.3565 117.972 94.8298 117.97C95.1992 117.967 95.5624 117.875 95.8881 117.701C96.2139 117.526 96.4924 117.276 96.6998 116.97L113.95 92.66C116.6 88.9119 118.016 84.4305 118 79.84V44.42C118.004 43.2761 117.75 42.1461 117.256 41.1141C116.763 40.0822 116.043 39.1749 115.15 38.46V38.46Z" fill="white" stroke="#3859FF" stroke-width="1.5" stroke-miterlimit="10"/>
<path d="M88.4699 44.81L84.3999 43.81V43.08C85.7495 42.1402 86.8525 40.8886 87.615 39.4314C88.3775 37.9743 88.7771 36.3546 88.7799 34.71V29.46C88.7842 27.5048 88.2271 25.5895 87.1747 23.9417C86.1223 22.294 84.619 20.983 82.8433 20.1646C81.0676 19.3463 79.0943 19.055 77.1579 19.3254C75.2215 19.5958 73.4035 20.4165 71.9199 21.69C70.9213 19.2307 69.2118 17.1251 67.01 15.6428C64.8082 14.1604 62.2142 13.3686 59.5599 13.3686C56.9056 13.3686 54.3116 14.1604 52.1098 15.6428C49.908 17.1251 48.1985 19.2307 47.1999 21.69C45.7172 20.414 43.8991 19.5908 41.962 19.3183C40.0249 19.0458 38.0503 19.3355 36.2731 20.153C34.496 20.9705 32.991 22.2813 31.9374 23.9295C30.8838 25.5777 30.3258 27.4938 30.3299 29.45V34.73C30.3307 36.3739 30.7284 37.9933 31.4892 39.4505C32.25 40.9077 33.3515 42.1597 34.6999 43.1V43.83L30.6399 44.83C28.2889 45.3848 26.1945 46.7181 24.6969 48.6133C23.1992 50.5086 22.3862 52.8544 22.3899 55.27V59.54C22.3925 60.1456 22.635 60.7255 23.0641 61.1528C23.4933 61.5801 24.0743 61.82 24.6799 61.82H35.1699C35.1699 62.1 35.1699 62.38 35.1699 62.66V70.87C35.1686 71.1702 35.2266 71.4678 35.3406 71.7456C35.4545 72.0234 35.6223 72.2759 35.8341 72.4887C36.046 72.7014 36.2978 72.8703 36.5751 72.9855C36.8523 73.1007 37.1496 73.16 37.4499 73.16H51.1799C51.4927 73.1807 51.8064 73.137 52.1016 73.0315C52.3968 72.926 52.6672 72.7611 52.896 72.5469C53.1249 72.3327 53.3073 72.0738 53.4321 71.7862C53.5568 71.4986 53.6211 71.1885 53.6211 70.875C53.6211 70.5615 53.5568 70.2514 53.4321 69.9638C53.3073 69.6762 53.1249 69.4173 52.896 69.2031C52.6672 68.9889 52.3968 68.8239 52.1016 68.7185C51.8064 68.613 51.4927 68.5693 51.1799 68.59H48.7999V63.87C48.7615 63.2901 48.5041 62.7465 48.0798 62.3493C47.6555 61.9522 47.0961 61.7312 46.5149 61.7312C45.9337 61.7312 45.3743 61.9522 44.95 62.3493C44.5257 62.7465 44.2683 63.2901 44.2299 63.87V68.59H39.7199V62.66C39.7143 60.5285 40.4294 58.4577 41.7492 56.7839C43.069 55.1101 44.9159 53.9317 46.9899 53.44L53.2599 51.93L57.4499 61.48C57.6303 61.8859 57.9249 62.2307 58.2977 62.4721C58.6706 62.7136 59.1056 62.8414 59.5499 62.84V62.84C59.9924 62.8395 60.4253 62.7108 60.7962 62.4694C61.1671 62.228 61.4602 61.8844 61.6399 61.48L65.8299 51.95L72.0699 53.44C74.1476 53.9315 75.9982 55.1106 77.3215 56.7861C78.6448 58.4615 79.3631 60.535 79.3599 62.67V68.59H74.8399V63.87C74.8015 63.2901 74.5441 62.7465 74.1198 62.3493C73.6955 61.9522 73.136 61.7312 72.5549 61.7312C71.9737 61.7312 71.4143 61.9522 70.99 62.3493C70.5657 62.7465 70.3083 63.2901 70.2699 63.87V68.59H67.6799C67.1 68.6284 66.5564 68.8858 66.1593 69.3101C65.7621 69.7344 65.5411 70.2938 65.5411 70.875C65.5411 71.4562 65.7621 72.0156 66.1593 72.4399C66.5564 72.8642 67.1 73.1216 67.6799 73.16H81.6799C82.2872 73.16 82.8697 72.9187 83.2992 72.4893C83.7286 72.0598 83.9699 71.4773 83.9699 70.87V62.67C83.9699 62.39 83.9699 62.1 83.9699 61.83H94.4899C95.0964 61.8274 95.6774 61.5852 96.1062 61.1564C96.5351 60.7275 96.7773 60.1465 96.7799 59.54V55.28C96.7872 52.8511 95.9688 50.4919 94.4588 48.5894C92.9488 46.687 90.837 45.3543 88.4699 44.81V44.81ZM78.5499 23.81C79.985 23.8117 81.3661 24.3575 82.4147 25.3373C83.4632 26.3172 84.1012 27.6583 84.1999 29.09H80.9999C78.3347 29.0905 75.7081 28.4527 73.3399 27.23C73.7768 26.2107 74.5035 25.3423 75.4298 24.7325C76.356 24.1227 77.4409 23.7985 78.5499 23.8V23.81ZM72.8999 34.4C72.8999 34.29 72.8999 34.18 72.8999 34.07V32C75.4656 33.0757 78.2178 33.6363 80.9999 33.65H84.1899V34.74C84.1285 36.1986 83.5059 37.5772 82.4521 38.5876C81.3983 39.598 79.9948 40.1621 78.5349 40.1621C77.0749 40.1621 75.6715 39.598 74.6177 38.5876C73.5639 37.5772 72.9412 36.1986 72.8799 34.74L72.8999 34.4ZM50.7899 26.71C50.8038 24.5118 51.6418 22.3988 53.1383 20.7885C54.6348 19.1783 56.6808 18.188 58.8721 18.0133C61.0634 17.8387 63.2405 18.4924 64.9732 19.8453C66.7058 21.1981 67.868 23.1517 68.2299 25.32L64.3799 23.06C63.9159 22.7853 63.3693 22.6848 62.8379 22.7764C62.3065 22.868 61.8251 23.1458 61.4799 23.56C60.5534 24.6666 59.3952 25.5562 58.0871 26.1662C56.7791 26.7761 55.3531 27.0915 53.9099 27.09H50.7899V26.71ZM40.5499 23.8C41.6543 23.8015 42.7342 24.1261 43.6564 24.7338C44.5786 25.3415 45.3028 26.2057 45.7399 27.22C43.3717 28.4427 40.7451 29.0805 38.0799 29.08H34.9099C35.0062 27.6491 35.642 26.3082 36.6889 25.3281C37.7359 24.348 39.1158 23.8018 40.5499 23.8V23.8ZM34.8899 33.65H38.0799C40.8691 33.6434 43.6293 33.0825 46.1999 32V34.71C46.1386 36.1686 45.5159 37.5472 44.4621 38.5576C43.4083 39.568 42.0048 40.1321 40.5449 40.1321C39.085 40.1321 37.6815 39.568 36.6277 38.5576C35.5739 37.5472 34.9513 36.1686 34.8899 34.71V33.65V33.65ZM45.8899 48.97C43.7321 49.481 41.7266 50.4972 40.0384 51.935C38.3503 53.3728 37.0278 55.191 36.1799 57.24H26.9999V55.24C26.995 53.8512 27.461 52.5018 28.3219 51.4121C29.1828 50.3223 30.3877 49.5566 31.7399 49.24L37.5499 47.85C38.0489 47.7295 38.4933 47.4454 38.8123 47.0431C39.1312 46.6408 39.3064 46.1434 39.3099 45.63V44.86C40.1565 44.9667 41.0132 44.9667 41.8599 44.86V45.61C41.8544 45.9878 41.9429 46.3611 42.1175 46.6962C42.292 47.0314 42.5471 47.3179 42.8599 47.53C43.1047 47.6938 43.3803 47.8061 43.6699 47.86L47.0799 48.68L45.8899 48.97ZM52.2599 45.43C51.6699 45.1684 51.0574 44.9608 50.4299 44.81L46.3499 43.81V43.1C47.0953 42.5898 47.768 41.9809 48.3499 41.29C49.3702 42.8635 50.709 44.2057 52.2799 45.23V45.41L52.2599 45.43ZM62.1799 48.78L59.5099 54.86L56.8299 48.77V47.14C57.7183 47.3219 58.623 47.4124 59.5299 47.41C60.4196 47.4096 61.3071 47.3226 62.1799 47.15V48.78ZM59.5299 42.84C57.203 42.84 54.9713 41.9163 53.325 40.2719C51.6787 38.6275 50.7525 36.3969 50.7499 34.07V31.66H53.8699C57.4609 31.6644 60.924 30.327 63.5799 27.91L68.2899 30.68V34.41C68.1999 36.6671 67.2434 38.8026 65.6194 40.3726C63.9954 41.9427 61.8287 42.8263 59.5699 42.84H59.5299ZM66.7499 45.43V45.28C68.3521 44.2458 69.7157 42.8822 70.7499 41.28C71.334 41.9629 72.0066 42.5649 72.7499 43.07V43.78L68.6699 44.78C68.0245 44.9381 67.3951 45.1557 66.7899 45.43H66.7499ZM92.0999 57.24H82.8099C81.9607 55.1929 80.6377 53.3767 78.9496 51.9407C77.2615 50.5047 75.2567 49.49 73.0999 48.98L71.9999 48.7L75.4299 47.88C75.7226 47.8263 76.0016 47.7141 76.2499 47.55C76.5626 47.3379 76.8177 47.0514 76.9923 46.7162C77.1668 46.3811 77.2554 46.0078 77.2499 45.63V44.88C78.0965 44.9867 78.9532 44.9867 79.7999 44.88V45.65C79.8034 46.1634 79.9786 46.6608 80.2975 47.0631C80.6165 47.4654 81.0608 47.7495 81.5599 47.87L87.3799 49.26C88.7302 49.5786 89.9329 50.3451 90.7918 51.4347C91.6507 52.5242 92.1153 53.8726 92.1099 55.26V57.26L92.0999 57.24Z" fill="white" stroke="#3859FF" stroke-width="1.5" stroke-miterlimit="10"/>
<path d="M61.1498 69.24C60.7765 68.8678 60.2859 68.6364 59.7612 68.5852C59.2366 68.534 58.7105 68.6661 58.2723 68.9592C57.8341 69.2522 57.511 69.688 57.358 70.1924C57.2049 70.6968 57.2314 71.2387 57.4328 71.7258C57.6343 72.2129 57.9983 72.6151 58.4629 72.8641C58.9276 73.113 59.4641 73.1933 59.9812 73.0913C60.4984 72.9892 60.9642 72.7111 61.2994 72.3043C61.6346 71.8975 61.8185 71.3871 61.8198 70.86C61.8205 70.5591 61.7617 70.2611 61.6467 69.983C61.5317 69.705 61.3628 69.4525 61.1498 69.24V69.24Z" fill="white" stroke="#3859FF" stroke-width="1.5" stroke-miterlimit="10"/>
<path d="M59.5398 0.999991C59.2395 0.998674 58.9419 1.05668 58.6642 1.17067C58.3864 1.28466 58.1339 1.45239 57.9211 1.66424C57.7083 1.87609 57.5395 2.12788 57.4243 2.40516C57.309 2.68243 57.2498 2.97973 57.2498 3.27999V6.69999C57.2881 7.27989 57.5456 7.8235 57.9699 8.22064C58.3942 8.61778 58.9536 8.83874 59.5348 8.83874C60.1159 8.83874 60.6753 8.61778 61.0996 8.22064C61.5239 7.8235 61.7814 7.27989 61.8198 6.69999V3.31999C61.8251 3.01723 61.77 2.71644 61.6578 2.43518C61.5456 2.15393 61.3785 1.89784 61.1663 1.68187C60.954 1.4659 60.7009 1.29436 60.4216 1.17729C60.1423 1.06022 59.8426 0.999945 59.5398 0.999991V0.999991Z" fill="white" stroke="#3859FF" stroke-width="1.5" stroke-miterlimit="10"/>
<path d="M51.1198 8.48999L48.7298 6.08999C48.2938 5.69425 47.7222 5.48165 47.1335 5.49633C46.5449 5.51102 45.9846 5.75186 45.5689 6.16885C45.1532 6.58584 44.914 7.14693 44.9012 7.73559C44.8883 8.32425 45.1027 8.89524 45.4998 9.32999L47.8898 11.72C48.3208 12.1475 48.9027 12.3882 49.5098 12.39C49.96 12.3864 50.3992 12.2501 50.7724 11.9982C51.1456 11.7464 51.4363 11.3901 51.6081 10.9739C51.7799 10.5577 51.8252 10.1001 51.7383 9.65834C51.6515 9.21655 51.4363 8.81016 51.1198 8.48999V8.48999Z" fill="white" stroke="#3859FF" stroke-width="1.5" stroke-miterlimit="10"/>
<path d="M73.5198 6.15C73.0907 5.72315 72.5101 5.48354 71.9048 5.48354C71.2996 5.48354 70.7189 5.72315 70.2898 6.15L67.9098 8.52999C67.5927 8.85077 67.3773 9.25807 67.2908 9.70078C67.2043 10.1435 67.2505 10.6019 67.4235 11.0185C67.5965 11.435 67.8887 11.7912 68.2635 12.0424C68.6382 12.2935 69.0787 12.4283 69.5298 12.43C69.8293 12.4311 70.1259 12.3724 70.4024 12.2573C70.6788 12.1423 70.9296 11.9732 71.1398 11.76L73.5198 9.37999C73.9467 8.95089 74.1863 8.37025 74.1863 7.765C74.1863 7.15974 73.9467 6.5791 73.5198 6.15V6.15Z" fill="white" stroke="#3859FF" stroke-width="1.5" stroke-miterlimit="10"/>
</svg>
