<svg width="173" height="170" viewBox="0 0 173 170" fill="none" xmlns="http://www.w3.org/2000/svg">
<path d="M169.25 111.19H156.16C150.452 105.782 142.888 102.768 135.025 102.768C127.162 102.768 119.598 105.782 113.89 111.19H86.5401C83.8426 111.192 81.233 112.15 79.1739 113.892C77.1147 115.635 75.7389 118.05 75.2901 120.71L50.43 112.42C48.6889 111.839 46.8345 111.681 45.0202 111.959C43.2059 112.236 41.4836 112.942 39.9957 114.016C38.5077 115.091 37.2968 116.504 36.463 118.139C35.6291 119.774 35.1962 121.584 35.2001 123.42V123.61C35.1918 125.563 35.6792 127.487 36.6166 129.201C37.554 130.915 38.9108 132.363 40.5601 133.41L90.0701 164.92C93.3047 166.972 96.9276 168.336 100.713 168.926C104.498 169.517 108.364 169.32 112.07 168.35L155.36 156.96H169.25C170.005 156.957 170.728 156.656 171.262 156.122C171.796 155.588 172.097 154.865 172.1 154.11V114C172.097 113.245 171.796 112.521 171.262 111.988C170.728 111.454 170.005 111.153 169.25 111.15V111.19ZM166.4 151.24H155C154.754 151.24 154.509 151.27 154.27 151.33L110.63 162.81C107.684 163.581 104.611 163.737 101.602 163.269C98.5931 162.801 95.7127 161.719 93.1401 160.09L43.6301 128.58C42.7918 128.043 42.1028 127.304 41.6272 126.43C41.1517 125.555 40.905 124.575 40.9101 123.58V123.39C40.9127 121.837 41.5292 120.349 42.6252 119.249C43.7211 118.149 45.2075 117.528 46.7601 117.52C47.3987 117.519 48.0333 117.62 48.6401 117.82L76.0001 127C76.8714 129.076 78.3367 130.848 80.212 132.093C82.0873 133.338 84.2889 134.002 86.5401 134H115.06C115.788 133.957 116.472 133.637 116.972 133.107C117.472 132.576 117.751 131.874 117.751 131.145C117.751 130.416 117.472 129.714 116.972 129.183C116.472 128.653 115.788 128.333 115.06 128.29H86.5401C85.2699 128.297 84.034 127.879 83.0298 127.101C82.0255 126.323 81.3109 125.231 81.0001 124V124C80.7891 123.158 80.7726 122.279 80.9516 121.43C81.1307 120.581 81.5006 119.783 82.0335 119.098C82.5664 118.413 83.2481 117.858 84.0272 117.476C84.8062 117.093 85.6621 116.893 86.5301 116.89H115.05C115.8 116.887 116.519 116.589 117.05 116.06L117.34 115.77C122.027 111.092 128.378 108.465 135 108.465C141.622 108.465 147.973 111.092 152.66 115.77L152.95 116.06C153.483 116.586 154.201 116.884 154.95 116.89H166.4V151.24Z" fill="white" stroke="#3859FF" stroke-width="1.17" stroke-miterlimit="10"/>
<path d="M48.58 76.0699H48.72C50.5971 76.4693 52.5109 76.6703 54.43 76.6699H54.83C55.7924 78.5809 57.3424 80.1327 59.2521 81.0975C61.1619 82.0623 63.3307 82.3891 65.44 82.0299L68.81 81.4499C70.7851 82.8391 73.2302 83.3892 75.61 82.9799L82.43 81.8199C83.0131 82.8723 83.7401 83.8383 84.59 84.6899L105.2 105.3C105.734 105.823 106.452 106.116 107.2 106.116C107.948 106.116 108.666 105.823 109.2 105.3L129.81 84.6899C132.217 82.2831 133.569 79.0187 133.569 75.6149C133.569 72.2111 132.217 68.9467 129.81 66.5399C127.403 64.1331 124.139 62.7809 120.735 62.7809C117.331 62.7809 114.067 64.1331 111.66 66.5399L107.19 71.0099L105.98 69.8099C108.019 68.0326 109.388 65.6107 109.859 62.9471C110.331 60.2835 109.876 57.5389 108.57 55.1699C108.642 54.9984 108.698 54.8211 108.74 54.6399L109.92 49.1399C110.427 46.759 110.375 44.2931 109.77 41.9354C109.164 39.5777 108.021 37.3921 106.43 35.5499L95.9 23.4299C94.3947 21.6965 92.5274 20.3145 90.4298 19.3814C88.3322 18.4484 86.0554 17.987 83.76 18.0299L40.66 18.8499L5.1 1.12992C4.66559 0.913681 4.18315 0.811936 3.69842 0.834338C3.21368 0.85674 2.7427 1.00254 2.33008 1.25792C1.91747 1.5133 1.57689 1.86981 1.34063 2.29366C1.10436 2.71751 0.980223 3.19465 0.979986 3.6799V46.4599C0.97888 47.008 1.13583 47.5448 1.43203 48.0059C1.72822 48.467 2.15109 48.833 2.64998 49.0599L24.84 59.0599L29.13 64.3099C33.9656 70.226 40.663 74.329 48.13 75.9499L48.57 76.0399L48.58 76.0699ZM61.42 75.8099C62.6121 75.4964 63.7815 75.1022 64.92 74.6299C64.9629 75.2005 65.0566 75.766 65.2 76.3199L64.48 76.4399C63.417 76.627 62.3226 76.4017 61.42 75.8099V75.8099ZM74.65 77.3999C73.9828 77.5128 73.2972 77.4269 72.6785 77.1531C72.0597 76.8793 71.5351 76.4296 71.17 75.8599C70.8737 75.4048 70.6853 74.888 70.6195 74.349C70.5536 73.8099 70.6119 73.2629 70.79 72.7499C70.9751 72.1712 71.3221 71.6576 71.79 71.2699L74.53 69.8999L81.79 70.7899C81.144 72.333 80.8044 73.9871 80.79 75.6599C80.79 75.8899 80.79 76.1199 80.79 76.3499L74.65 77.3999ZM105.2 77.0999C105.732 77.6275 106.451 77.9236 107.2 77.9236C107.949 77.9236 108.668 77.6275 109.2 77.0999L115.69 70.6099C117.028 69.2719 118.843 68.5202 120.735 68.5202C122.627 68.5202 124.442 69.2719 125.78 70.6099C127.118 71.9479 127.87 73.7627 127.87 75.6549C127.87 77.5471 127.118 79.3619 125.78 80.6999L107.19 99.2899L88.63 80.6999C87.4374 79.5097 86.7055 77.935 86.5645 76.256C86.4235 74.577 86.8825 72.9024 87.86 71.5299L96.86 72.6299C98.1063 72.7791 99.3683 72.7319 100.6 72.4899L105.2 77.0999ZM33.55 60.7399L28.84 54.9999C28.5718 54.6632 28.2296 54.3929 27.84 54.2099L6.71999 44.6599V8.2899L38.78 24.2899C39.1914 24.4892 39.6429 24.5918 40.1 24.5899L83.9 23.7599H84.1C85.5286 23.7585 86.9407 24.0651 88.2402 24.6587C89.5396 25.2523 90.6958 26.1191 91.63 27.1999L102.19 39.3599C103.205 40.5291 103.935 41.9181 104.322 43.4174C104.709 44.9167 104.743 46.4854 104.42 47.9999L103.87 50.5299C102.903 50.0183 101.87 49.6415 100.8 49.4099L95.6 48.2899L96.2 45.5099C96.3558 44.7731 96.2136 44.0045 95.8045 43.3722C95.3954 42.7399 94.7526 42.2952 94.0167 42.1353C93.2807 41.9754 92.5113 42.1134 91.8768 42.519C91.2422 42.9246 90.794 43.5649 90.63 44.2999L90.02 47.0899L85.94 46.2099L82.69 37.9999C82.4128 37.2958 81.8673 36.7306 81.1734 36.4286C80.4795 36.1267 79.6941 36.1128 78.99 36.3899C78.2858 36.6671 77.7206 37.2126 77.4187 37.9065C77.1168 38.6004 77.1028 39.3858 77.38 40.0899L79.2 44.6999L73.2 43.4099C72.8316 43.3273 72.4505 43.3182 72.0786 43.3831C71.7067 43.4481 71.3513 43.5857 71.0326 43.7882C70.714 43.9907 70.4385 44.2541 70.2218 44.5633C70.0052 44.8724 69.8516 45.2213 69.77 45.5899C69.6868 45.9606 69.6788 46.3442 69.7465 46.7181C69.8142 47.0919 69.9562 47.4483 70.1642 47.7663C70.3721 48.0843 70.6417 48.3573 70.9571 48.5692C71.2724 48.7811 71.627 48.9275 72 48.9999L99.56 54.9999C101.088 55.3319 102.43 56.2389 103.308 57.5332C104.185 58.8275 104.531 60.4098 104.274 61.9523C104.017 63.4948 103.177 64.8793 101.927 65.819C100.677 66.7587 99.1132 67.1815 97.56 66.9999L74.4 64.1799C73.8442 64.1109 73.2804 64.2083 72.78 64.4599L70.58 65.5499C69.9805 65.7621 69.4095 66.0476 68.88 66.3999L64.11 68.7799C59.7787 70.9368 54.8488 71.5777 50.11 70.5999L49.87 70.5399L49.35 70.4299C43.1455 69.0886 37.5792 65.6832 33.56 60.7699L33.55 60.7399Z" fill="white" stroke="#3859FF" stroke-width="1.17" stroke-miterlimit="10"/>
</svg>
