<svg width="30" height="30" viewBox="0 0 512 512" fill="none" xmlns="http://www.w3.org/2000/svg">
<path d="M305.081 4.767L282.482 90.306C265.171 87.596 247.534 87.596 230.223 90.306L207.272 4.767C239.687 -1.589 273.02 -1.589 305.435 4.767C305.434 4.767 305.081 4.767 305.081 4.767Z" fill="#65DDB9"/>
<path d="M195.796 99.487C179.412 105.843 164.158 114.785 150.599 125.97L88.2759 62.941C113.117 41.207 141.965 24.532 173.197 13.86L195.796 99.487Z" fill="#65DDB9"/>
<path d="M125.617 150.599C114.432 164.158 105.49 179.412 99.1341 195.796L13.5061 172.844C24.3291 141.709 41.1191 112.984 62.9401 88.276L125.617 150.599Z" fill="#65DDB9"/>
<path d="M88.276 256C88.258 264.863 88.938 273.726 90.306 282.483L4.767 305.435C-1.589 273.02 -1.589 239.687 4.767 207.272L90.306 229.518C88.938 238.283 88.258 247.137 88.276 256Z" fill="#65DDB9"/>
<path d="M125.617 361.402L62.9411 423.725C41.2071 398.884 24.5321 370.036 13.8601 338.804L99.4881 315.852C105.702 332.332 114.529 347.719 125.617 361.402Z" fill="#65DDB9"/>
<path d="M195.796 412.513L172.844 498.141C141.736 487.424 113.011 470.749 88.2759 449.06L150.952 386.384C164.423 397.409 179.562 406.228 195.796 412.513Z" fill="#65DDB9"/>
<path d="M305.081 507.233C272.666 513.589 239.333 513.589 206.918 507.233L229.517 421.694C246.828 424.404 264.465 424.404 281.776 421.694L305.081 507.233Z" fill="#65DDB9"/>
<path d="M423.724 449.06C398.883 470.794 370.035 487.469 338.803 498.141L315.851 412.513C332.235 406.157 347.489 397.215 361.048 386.03L423.724 449.06Z" fill="#65DDB9"/>
<path d="M498.141 339.156C487.424 370.264 470.749 398.989 449.06 423.724L386.384 361.048C397.569 347.489 406.511 332.235 412.867 315.851L498.141 339.156Z" fill="#65DDB9"/>
<path d="M512 256C512.035 272.481 510.438 288.918 507.233 305.081L421.694 282.482C424.404 265.171 424.404 247.534 421.694 230.223L507.233 207.271C510.411 223.321 512.009 239.643 512 256Z" fill="#65DDB9"/>
<path d="M498.141 172.844L412.513 195.796C406.157 179.412 397.215 164.158 386.03 150.599L448.706 87.923C470.563 112.737 487.362 141.586 498.141 172.844Z" fill="#65DDB9"/>
<path d="M423.724 62.941L361.048 125.617C347.489 114.432 332.235 105.49 315.851 99.134L338.803 13.506C370.061 24.294 398.91 41.084 423.724 62.941Z" fill="#65DDB9"/>
</svg>
