<svg width="117" height="156" viewBox="0 0 117 156" fill="none" xmlns="http://www.w3.org/2000/svg">
<path d="M13.49 58.08C13.4821 67.0056 16.1216 75.733 21.0746 83.1582C26.0277 90.5834 33.0717 96.3728 41.3156 99.794C49.5595 103.215 58.6329 104.114 67.3879 102.378C76.143 100.641 84.1863 96.3474 90.5005 90.0388C96.8146 83.7303 101.116 75.6907 102.86 66.9372C104.604 58.1837 103.713 49.1095 100.299 40.8626C96.8854 32.6156 91.1023 25.5665 83.6815 20.6069C76.2607 15.6473 67.5356 13 58.61 13C46.6475 13.0132 35.1787 17.7712 26.72 26.23C18.2612 34.6887 13.5032 46.1575 13.49 58.12V58.08ZM58.61 19C66.3456 18.998 73.9081 21.2901 80.3411 25.5864C86.774 29.8826 91.7884 35.9901 94.7501 43.1363C97.7117 50.2826 98.4877 58.1466 96.9797 65.7339C95.4718 73.3211 91.7477 80.2908 86.2785 85.7614C80.8092 91.232 73.8405 94.9579 66.2537 96.4678C58.6668 97.9777 50.8026 97.2037 43.6556 94.2439C36.5085 91.284 30.3998 86.2712 26.1019 79.8394C21.804 73.4076 19.51 65.8457 19.51 58.11C19.5206 47.7424 23.6431 37.8022 30.9732 30.4703C38.3033 23.1383 48.2424 19.0132 58.61 19Z" fill="white" stroke="#3859FF" stroke-width="1.17" stroke-miterlimit="10"/>
<path d="M30.7599 52.7099L42.4099 64.1999L39.7299 80.3499C39.6349 80.9024 39.6966 81.4705 39.908 81.9897C40.1194 82.509 40.472 82.9585 40.9259 83.2875C41.3799 83.6165 41.9169 83.8117 42.4761 83.8511C43.0353 83.8904 43.5944 83.7722 44.0899 83.5099L58.6099 75.9999L73.1399 83.5399C73.6351 83.7994 74.1929 83.9154 74.7505 83.8747C75.3081 83.834 75.8432 83.6384 76.2955 83.3098C76.7478 82.9813 77.0993 82.5328 77.3103 82.0151C77.5214 81.4974 77.5835 80.9311 77.4899 80.3799L74.8099 64.2299L86.4699 52.7399C86.8688 52.3485 87.1504 51.8533 87.283 51.3103C87.4156 50.7673 87.3938 50.1981 87.2202 49.6669C87.0466 49.1356 86.728 48.6634 86.3003 48.3035C85.8727 47.9436 85.353 47.7103 84.7999 47.6299L68.6199 45.1899L61.2999 30.5499C61.0521 30.0481 60.6688 29.6255 60.1935 29.3301C59.7181 29.0346 59.1696 28.8781 58.6099 28.8781C58.0502 28.8781 57.5016 29.0346 57.0263 29.3301C56.5509 29.6255 56.1677 30.0481 55.9199 30.5499L48.5999 45.1899L32.4199 47.6299C31.8676 47.7118 31.3491 47.9462 30.9228 48.3067C30.4964 48.6673 30.1791 49.1396 30.0066 49.6706C29.8341 50.2016 29.8132 50.7703 29.9463 51.3125C30.0794 51.8548 30.3611 52.3491 30.7599 52.7399V52.7099ZM50.9999 50.8799C51.4768 50.8083 51.9294 50.6227 52.3193 50.339C52.7092 50.0552 53.025 49.6817 53.2399 49.2499L58.5699 38.5899L63.8999 49.2499C64.1147 49.6817 64.4305 50.0552 64.8205 50.339C65.2104 50.6227 65.663 50.8083 66.1399 50.8799L77.9999 52.6499L69.4699 60.9999C69.1262 61.3391 68.8695 61.7562 68.7215 62.2158C68.5735 62.6754 68.5386 63.164 68.6199 63.6399L70.5699 75.3899L59.9999 69.9099C59.5708 69.6861 59.0938 69.5695 58.6099 69.5699C58.1289 69.5683 57.655 69.6851 57.2299 69.9099L46.6499 75.3999L48.6499 63.6499C48.7298 63.1732 48.6934 62.6841 48.5437 62.2245C48.3939 61.7648 48.1353 61.3481 47.7899 61.0099L39.2999 52.6499L50.9999 50.8799Z" fill="white" stroke="#3859FF" stroke-width="1.17" stroke-miterlimit="10"/>
<path d="M61.6199 3.92993C61.6199 4.52328 61.4439 5.1033 61.1143 5.59665C60.7846 6.09 60.3161 6.47452 59.7679 6.70158C59.2197 6.92865 58.6165 6.98805 58.0346 6.8723C57.4527 6.75654 56.9181 6.47081 56.4986 6.05125C56.079 5.6317 55.7933 5.09716 55.6775 4.51521C55.5618 3.93327 55.6212 3.33007 55.8482 2.78189C56.0753 2.23371 56.4598 1.76518 56.9532 1.43553C57.4465 1.10589 58.0265 0.929932 58.6199 0.929932C59.4155 0.929932 60.1786 1.24602 60.7412 1.80862C61.3038 2.37123 61.6199 3.13428 61.6199 3.92993Z" fill="white" stroke="#3859FF" stroke-width="1.17" stroke-miterlimit="10"/>
<path d="M44.4399 2.6999C34.4328 5.26052 25.3069 10.4854 18.0325 17.819C10.7581 25.1526 5.60729 34.3206 3.12785 44.3481C0.648423 54.3756 0.933053 64.8876 3.95149 74.7663C6.96993 84.6449 12.6093 93.5207 20.2699 100.45L2.1499 132.39C1.86038 132.893 1.72289 133.469 1.75409 134.048C1.78529 134.628 1.98384 135.185 2.32568 135.654C2.66753 136.123 3.13798 136.483 3.68007 136.69C4.22216 136.897 4.81263 136.942 5.37991 136.82L25.9999 132.55L33.2299 152.93C33.4203 153.475 33.764 153.954 34.2199 154.309C34.6758 154.664 35.2244 154.879 35.7999 154.93C36.3743 154.982 36.9515 154.867 37.4622 154.599C37.973 154.331 38.3958 153.922 38.6799 153.42L58.6799 118.31L78.6799 153.42C78.9425 153.883 79.3236 154.268 79.784 154.535C80.2444 154.802 80.7676 154.942 81.2999 154.94H81.5599C82.1354 154.889 82.684 154.674 83.1399 154.319C83.5958 153.964 83.9396 153.485 84.1299 152.94L91.3599 132.56L111.94 136.83C112.507 136.952 113.098 136.907 113.64 136.7C114.182 136.493 114.652 136.133 114.994 135.664C115.336 135.195 115.535 134.638 115.566 134.058C115.597 133.479 115.459 132.903 115.17 132.4L96.9999 100.45C104.661 93.5214 110.3 84.6463 113.319 74.7683C116.338 64.8903 116.624 54.3788 114.146 44.3515C111.667 34.3242 106.518 25.156 99.2443 17.8218C91.9711 10.4877 82.8462 5.26182 72.8399 2.6999C72.0668 2.50232 71.2469 2.61995 70.5605 3.0269C69.8741 3.43385 69.3775 4.0968 69.1799 4.8699C68.9823 5.64301 69.0999 6.46294 69.5069 7.14932C69.9138 7.8357 70.5768 8.33232 71.3499 8.52991C83.4132 11.6206 93.9339 19.0076 100.937 29.3044C107.941 39.6013 110.946 52.1002 109.388 64.4553C107.831 76.8105 101.818 88.1725 92.4777 96.4089C83.1377 104.645 71.1128 109.19 58.6599 109.19C46.207 109.19 34.1821 104.645 24.8421 96.4089C15.5021 88.1725 9.48903 76.8105 7.93144 64.4553C6.37386 52.1002 9.37882 39.6013 16.3824 29.3044C23.386 19.0076 33.9066 11.6206 45.9699 8.52991C46.3527 8.43273 46.7126 8.2611 47.0291 8.02482C47.3456 7.78855 47.6124 7.49226 47.8144 7.15286C48.0164 6.81346 48.1495 6.4376 48.2062 6.04675C48.2629 5.6559 48.2421 5.25771 48.1449 4.87491C48.0477 4.4921 47.8761 4.13219 47.6398 3.81572C47.4036 3.49924 47.1073 3.23239 46.7679 3.03042C46.4285 2.82846 46.0526 2.69532 45.6618 2.63861C45.2709 2.5819 44.8727 2.60273 44.4899 2.6999H44.4399ZM36.6699 144.7L30.7499 128.04C30.5085 127.355 30.0268 126.781 29.3942 126.424C28.7615 126.067 28.021 125.952 27.3099 126.1L10.6699 129.56L24.9999 104.3C33.3785 110.388 43.2533 114.086 53.5699 115L36.6699 144.7ZM89.9199 126.1C89.2074 125.949 88.4644 126.063 87.8296 126.42C87.1948 126.777 86.7115 127.353 86.4699 128.04L80.5599 144.7L63.6599 115C73.9723 114.081 83.8425 110.383 92.2199 104.3L106.56 129.58L89.9199 126.1Z" fill="white" stroke="#3859FF" stroke-width="1.17" stroke-miterlimit="10"/>
</svg>
