<svg width="40" height="40" viewBox="0 0 500 500" fill="none" xmlns="http://www.w3.org/2000/svg">
<path d="M250 498.5C387.243 498.5 498.5 387.243 498.5 250C498.5 112.757 387.243 1.5 250 1.5C112.757 1.5 1.5 112.757 1.5 250C1.5 387.243 112.757 498.5 250 498.5Z" fill="#39B54A"/>
<path d="M391.92 178.77L212.92 357.83C210.998 359.754 208.716 361.281 206.204 362.322C203.692 363.364 200.999 363.9 198.28 363.9C195.561 363.9 192.868 363.364 190.356 362.322C187.844 361.281 185.562 359.754 183.64 357.83L87.3699 261.61C86.4069 260.649 85.6429 259.507 85.1216 258.25C84.6003 256.993 84.332 255.646 84.332 254.285C84.332 252.924 84.6003 251.577 85.1216 250.32C85.6429 249.063 86.4069 247.921 87.3699 246.96L102 232.32C103.942 230.381 106.575 229.291 109.32 229.291C112.065 229.291 114.698 230.381 116.64 232.32L198.22 313.9L362.64 149.49C364.582 147.551 367.215 146.461 369.96 146.461C372.705 146.461 375.337 147.551 377.28 149.49L391.92 164.13C392.883 165.09 393.646 166.231 394.168 167.487C394.689 168.744 394.957 170.09 394.957 171.45C394.957 172.81 394.689 174.156 394.168 175.413C393.646 176.669 392.883 177.81 391.92 178.77V178.77Z" fill="white" stroke="white" stroke-width="2" stroke-miterlimit="10"/>
</svg>
