<svg width="15" height="15" viewBox="0 0 440 459" fill="none" xmlns="http://www.w3.org/2000/svg">
<path d="M436.651 201.95C435.166 192.642 426.416 186.301 417.108 187.786C407.8 189.271 401.459 198.021 402.944 207.329C402.96 207.431 402.977 207.532 402.995 207.633C420.375 309.944 351.525 406.972 249.214 424.352C146.903 441.732 49.875 372.882 32.495 270.571C15.115 168.26 83.966 71.232 186.276 53.852C249.195 43.164 313.238 65.142 356.335 112.213L280.73 137.403C271.786 140.379 266.949 150.041 269.924 158.985C269.925 158.987 269.926 158.99 269.927 158.992C272.903 167.936 282.565 172.773 291.509 169.798C291.512 169.797 291.514 169.796 291.516 169.796L393.916 135.663C400.888 133.341 405.591 126.816 405.59 119.467V17.067C405.59 7.641 397.949 0 388.523 0C379.097 0 371.456 7.641 371.456 17.067V79.411C283.564 -4.185 144.545 -0.701996 60.949 87.19C-22.647 175.082 -19.165 314.101 68.728 397.698C156.621 481.295 295.639 477.812 379.236 389.919C426.905 339.799 448.179 270.152 436.651 201.95Z" fill="white"/>
</svg>
