<svg height="30" width="30" viewBox="0 0 485 485" fill="none" xmlns="http://www.w3.org/2000/svg">
<g clip-path="url(#clip0)">
<path d="M250.291 455.437C246.296 455.437 242.301 455.437 237.506 455.437L238.306 439.456H249.491C366.948 439.456 462.029 344.375 462.029 227.718C462.029 111.062 366.948 15.9802 250.291 15.9802C133.635 15.9802 38.5531 111.062 38.5531 227.718C38.5531 234.109 38.5531 240.503 39.3529 246.894L23.3727 248.493C22.5729 241.303 22.5729 234.909 22.5729 227.718C22.5729 102.272 124.845 0 250.291 0C375.734 0 478.009 102.272 478.009 227.718C478.009 353.165 375.734 455.437 250.291 455.437Z" fill="#5DA364"/>
<path d="M118.454 103.872H390.118V231.713H118.454V103.872Z" fill="#5DA364"/>
<path d="M158.405 159.802H142.425V127.842H174.385V143.822H158.405V159.802Z" fill="#538457"/>
<path d="M174.385 207.743H142.425V175.783H158.405V191.763H174.385V207.743Z" fill="#538457"/>
<path d="M366.148 207.743H334.187V191.763H350.167V175.783H366.148V207.743Z" fill="#538457"/>
<path d="M366.148 159.802H350.167V143.822H334.187V127.842H366.148V159.802Z" fill="#538457"/>
<path d="M182.375 159.802H206.346V175.783H182.375V159.802Z" fill="#EDC17C"/>
<path d="M302.227 159.802H326.197V175.783H302.227V159.802Z" fill="#EDC17C"/>
<path d="M6.59265 271.664H86.4938V391.516H6.59265V271.664Z" fill="#4A4A56"/>
<path d="M46.5432 271.664H62.5234V327.595H46.5432V271.664Z" fill="#676B7F"/>
<path d="M46.5432 343.575H62.5234V367.545H46.5432V343.575Z" fill="#676B7F"/>
<path d="M263.872 485.002L227.121 448.246L264.672 409.891L275.857 421.877L249.491 448.246L275.857 473.812L263.872 485.002Z" fill="#5DA364"/>
<path d="M362.153 306.82L265.472 334.785C263.076 335.585 260.677 335.585 258.281 335.585L166.395 319.605H222.326C235.907 319.605 246.296 309.219 246.296 295.634C246.296 282.05 235.907 271.664 222.326 271.664H122.449C120.05 271.664 116.855 272.464 114.459 274.059L86.4938 290.04V368.345L176.781 405.896C179.976 407.496 183.971 407.496 187.966 406.696L374.938 348.37C386.123 345.175 392.514 332.39 389.318 321.204C385.323 309.219 374.138 302.825 362.153 306.82Z" fill="#EFCCBF"/>
<g clip-path="url(#clip1)">
<path d="M271.396 150.832L223.888 127.686V140.351L256.574 156.291L223.888 172.486V185.151L271.396 208.333V195.632L239.318 179.983L271.396 163.533V150.832Z" fill="#4BC1BE"/>
<path d="M271.396 150.905L283.711 145.3V157.856L271.396 163.46V150.905Z" fill="#278D96"/>
<path d="M271.396 208.333L283.711 202.765V163.97L271.396 169.538V208.333Z" fill="#278D96"/>
<path d="M236.311 122.191L223.888 127.686L224.067 127.759L271.396 150.905L283.711 145.3L236.311 122.191Z" fill="#057A8E"/>
</g>
</g>
<defs>
<clipPath id="clip0">
<rect width="485" height="485" fill="white"/>
</clipPath>
<clipPath id="clip1">
<rect x="223" y="121" width="62" height="87" fill="white"/>
</clipPath>
</defs>
</svg>
