<svg width="40" height="40" viewBox="0 0 44 44" fill="none" xmlns="http://www.w3.org/2000/svg">
<path d="M22 42C33.0457 42 42 33.0457 42 22C42 10.9543 33.0457 2 22 2C10.9543 2 2 10.9543 2 22C2 33.0457 10.9543 42 22 42Z" stroke="#fff" stroke-width="2" stroke-miterlimit="5"/>
<path d="M33.756 15.6743L19.3449 30.496C19.1901 30.6558 19.0062 30.7825 18.8037 30.869C18.6012 30.9555 18.3841 31 18.1648 31C17.9455 31 17.7284 30.9555 17.5259 30.869C17.3234 30.7825 17.1395 30.6558 16.9847 30.496L9.24403 22.5311C9.08778 22.3703 9 22.1524 9 21.9251C9 21.6978 9.08778 21.4798 9.24403 21.3191L10.4225 20.1071C10.5788 19.9464 10.7907 19.8561 11.0117 19.8561C11.2327 19.8561 11.4447 19.9464 11.601 20.1071L18.1664 26.8601L31.399 13.2504C31.5557 13.09 31.7677 13 31.9887 13C32.2097 13 32.4217 13.09 32.5783 13.2504L33.756 14.4623C33.9122 14.6231 34 14.841 34 15.0683C34 15.2956 33.9122 15.5136 33.756 15.6743V15.6743Z" stroke="#fff" stroke-width="1" stroke-miterlimit="5"/>
</svg>
