<svg width="15" height="15" viewBox="0 0 30 30" fill="none" xmlns="http://www.w3.org/2000/svg">
<path d="M15 0C12.0333 0 9.13319 0.879735 6.66645 2.52796C4.19972 4.17618 2.27713 6.51886 1.14181 9.25975C0.00649935 12.0006 -0.290551 15.0166 0.288228 17.9264C0.867006 20.8361 2.29562 23.5088 4.39341 25.6066C6.49119 27.7044 9.16394 29.133 12.0737 29.7118C14.9834 30.2906 17.9994 29.9935 20.7403 28.8582C23.4812 27.7229 25.8238 25.8003 27.4721 23.3336C29.1203 20.8668 30 17.9667 30 15C29.994 11.0236 28.4117 7.21179 25.6 4.40005C22.7882 1.58831 18.9764 0.00602486 15 0V0ZM15 28.9977C12.2315 28.9977 9.5252 28.1768 7.22329 26.6387C4.92138 25.1006 3.12725 22.9144 2.0678 20.3567C1.00834 17.7989 0.731142 14.9845 1.27125 12.2692C1.81135 9.55389 3.14451 7.05973 5.10212 5.10212C7.05974 3.1445 9.55389 1.81135 12.2692 1.27124C14.9845 0.731135 17.799 1.00834 20.3567 2.06779C22.9145 3.12725 25.1006 4.92137 26.6387 7.22328C28.1768 9.5252 28.9977 12.2315 28.9977 15C28.9947 18.7115 27.519 22.2701 24.8946 24.8946C22.2701 27.519 18.7115 28.9947 15 28.9977Z" fill="white"/>
<path d="M15 2.99542C14.8671 2.99542 14.7396 3.04822 14.6456 3.1422C14.5517 3.23618 14.4989 3.36365 14.4989 3.49656V15H7.00456C6.87165 15 6.74418 15.0528 6.6502 15.1468C6.55622 15.2407 6.50342 15.3682 6.50342 15.5011C6.50342 15.634 6.55622 15.7615 6.6502 15.8555C6.74418 15.9495 6.87165 16.0023 7.00456 16.0023H14.9772C15.1101 16.0023 15.2376 15.9495 15.3316 15.8555C15.4256 15.7615 15.4784 15.634 15.4784 15.5011V3.49656C15.4784 3.36365 15.4256 3.23618 15.3316 3.1422C15.2376 3.04822 15.1101 2.99542 14.9772 2.99542H15Z" fill="white"/>
</svg>
