<svg width="15" height="15" viewBox="0 0 512 512" fill="none" xmlns="http://www.w3.org/2000/svg">
<path d="M410.668 282.668H245.332C236.5 282.668 229.332 275.5 229.332 266.668V101.332C229.332 92.5 236.5 85.332 245.332 85.332C254.164 85.332 261.332 92.5 261.332 101.332V250.668H410.668C419.5 250.668 426.668 257.836 426.668 266.668C426.668 275.5 419.5 282.668 410.668 282.668Z" fill="#fff"/>
<path d="M256 512C114.836 512 0 397.164 0 256C0 114.836 114.836 0 256 0C397.164 0 512 114.836 512 256C512 397.164 397.164 512 256 512ZM256 32C132.48 32 32 132.48 32 256C32 379.52 132.48 480 256 480C379.52 480 480 379.52 480 256C480 132.48 379.52 32 256 32Z" fill="#fff"/>
</svg>
