<svg width="17" height="17" viewBox="0 0 17 17" fill="none" xmlns="http://www.w3.org/2000/svg">
<path d="M8.73348 4C8.65944 4 8.58841 4.02436 8.53604 4.06771C8.48373 4.11106 8.45432 4.16986 8.45432 4.23117V9.53764H4.27919C4.20514 9.53764 4.13413 9.562 4.08177 9.60536C4.02942 9.64868 4 9.70749 4 9.7688C4 9.83011 4.02942 9.88892 4.08177 9.93228C4.13413 9.97564 4.20514 10 4.27919 10H8.72078C8.79482 10 8.86585 9.97564 8.91822 9.93228C8.97058 9.88892 9 9.83011 9 9.7688V4.23117C9 4.16986 8.97058 4.11106 8.91822 4.06771C8.86585 4.02436 8.79482 4 8.72078 4H8.73348Z" fill="white"/>
<path d="M8.50023 0.85H8.5C6.98698 0.85 5.50793 1.29866 4.24989 2.13926C2.99186 2.97985 2.01134 4.17462 1.43232 5.57247C0.853314 6.9703 0.701819 8.50846 0.996996 9.99245L0.996996 9.99245C1.29217 11.4764 2.02077 12.8395 3.09064 13.9094C4.16051 14.9792 5.52361 15.7078 7.00759 16.003C8.49153 16.2982 10.0297 16.1467 11.4276 15.5677C12.8254 14.9887 14.0201 14.0081 14.8608 12.7501L14.736 12.6668L14.8608 12.7501C15.7014 11.4921 16.15 10.013 16.15 8.49999L16.15 8.49977C16.1469 6.47186 15.34 4.5279 13.9061 3.09396L13.8034 3.1966L13.9061 3.09396C12.4721 1.66001 10.5281 0.853073 8.50023 0.85ZM11.1209 2.17248L11.1784 2.03389L11.1209 2.17248C12.3724 2.69085 13.4421 3.56868 14.1946 4.69497C14.9472 5.82123 15.3488 7.14533 15.3489 8.49987C15.3474 10.3159 14.6253 12.0571 13.3412 13.3412C12.0571 14.6253 10.3159 15.3474 8.49988 15.3488C7.14534 15.3488 5.82123 14.9472 4.69498 14.1946C3.56869 13.442 2.69085 12.3724 2.17248 11.1209C1.6541 9.86945 1.51848 8.49241 1.78274 7.16386C2.04701 5.8353 2.6993 4.61495 3.65713 3.65712C4.61496 2.69929 5.83531 2.047 7.16386 1.78274C8.49242 1.51847 9.86951 1.6541 11.1209 2.17248Z" fill="white" stroke="white" stroke-width="0.3"/>
</svg>
