<svg width="113" height="88" viewBox="0 0 113 88" fill="none" xmlns="http://www.w3.org/2000/svg">
<path d="M105.969 3.88556C103.931 5.05889 102.053 5.99623 100.098 6.76956C98.1114 7.55356 96.0634 8.14423 94.0008 8.70023C92.9634 8.97889 92.3474 8.76156 91.5608 8.05356C85.4994 2.59889 78.4474 0.946897 70.7128 3.42423C60.4008 6.72423 54.5928 16.8029 56.5434 27.4682C56.6581 28.0936 56.6061 28.2762 55.9088 28.2189C52.4754 27.9296 49.0688 27.4762 45.7168 26.6576C33.3354 23.6309 22.9581 17.3029 14.5194 7.76423C14.0861 7.27356 13.7541 6.67622 13.1568 6.32156C10.4848 11.1042 9.71142 16.1536 10.8848 21.4496C12.0648 26.7762 15.0088 30.9869 19.6861 34.3429C18.8488 34.2789 18.3274 34.2616 17.8114 34.1949C15.4101 33.8816 13.1074 33.2336 10.9568 32.1016C10.4381 31.8269 10.1554 31.7109 10.1901 32.5389C10.4981 39.7082 13.6101 45.3296 19.4541 49.4509C21.6648 51.0096 24.1448 51.9962 26.9474 52.6549C23.7741 53.5216 20.7594 53.5402 17.5914 53.0709C19.0288 57.4216 21.5128 60.8496 25.0528 63.4976C28.5834 66.1416 32.5941 67.5056 37.2474 67.6816C27.9514 74.7176 17.7154 77.5136 6.12476 76.4469C13.7181 81.2229 21.6634 84.1456 30.2474 85.3109C37.8514 86.3456 45.4034 86.0176 52.8648 84.2576C67.2741 80.8616 78.7168 73.0136 87.1501 60.8802C94.8501 49.7989 98.6328 37.4722 98.3341 23.9416C98.3234 23.3402 98.4968 22.9616 98.9821 22.6136C100.695 21.3802 102.253 19.9589 103.738 18.4616C104.351 17.8469 104.925 17.1896 105.494 16.5336C106.062 15.8776 106.618 15.2082 107.153 14.5242C107.663 13.8642 108.137 13.1789 108.627 12.5029C104.839 13.8989 101.07 15.0416 97.1208 15.3816C101.338 12.5722 104.291 8.88156 105.969 3.88556Z" stroke="white" stroke-width="2" stroke-miterlimit="10"/>
</svg>
