<svg width="30" height="30" viewBox="0 0 52 45" fill="none" xmlns="http://www.w3.org/2000/svg">
<path d="M25.71 36.85C25.1796 36.85 24.6708 36.6393 24.2958 36.2642C23.9207 35.8891 23.71 35.3804 23.71 34.85C23.71 34.3196 23.9207 33.8109 24.2958 33.4358C24.6708 33.0607 25.1796 32.85 25.71 32.85V32.85C26.2404 32.85 26.7491 33.0607 27.1242 33.4358C27.4993 33.8109 27.71 34.3196 27.71 34.85C27.71 35.3804 27.4993 35.8891 27.1242 36.2642C26.7491 36.6393 26.2404 36.85 25.71 36.85ZM27.71 27.85V13.05C27.71 12.5196 27.4993 12.0109 27.1242 11.6358C26.7491 11.2607 26.2404 11.05 25.71 11.05C25.1796 11.05 24.6708 11.2607 24.2958 11.6358C23.9207 12.0109 23.71 12.5196 23.71 13.05V27.81C23.71 28.3404 23.9207 28.8491 24.2958 29.2242C24.6708 29.5993 25.1796 29.81 25.71 29.81C26.2404 29.81 26.7491 29.5993 27.1242 29.2242C27.4993 28.8491 27.71 28.3404 27.71 27.81V27.85ZM50 41.14C50.768 40.018 51.2489 38.7246 51.4006 37.3734C51.5523 36.0222 51.3701 34.6544 50.87 33.39C50.7722 33.1451 50.627 32.9218 50.4429 32.733C50.2588 32.5442 50.0393 32.3935 49.797 32.2895C49.5546 32.1854 49.2941 32.1302 49.0304 32.1269C48.7667 32.1235 48.5049 32.1722 48.26 32.27C48.0151 32.3678 47.7918 32.513 47.603 32.6971C47.4142 32.8812 47.2634 33.1007 47.1594 33.343C46.9494 33.8325 46.9424 34.3854 47.14 34.88C47.3956 35.5336 47.4873 36.2399 47.4071 36.9372C47.3269 37.6344 47.0773 38.3014 46.68 38.88C46.29 39.4657 45.7604 39.9451 45.1389 40.2751C44.5174 40.605 43.8236 40.7751 43.12 40.77H8.33999C7.57213 40.7672 6.81887 40.5599 6.15779 40.1692C5.49671 39.7786 4.9517 39.2188 4.57887 38.5475C4.20605 37.8762 4.01888 37.1177 4.03666 36.35C4.05443 35.5824 4.2765 34.8333 4.67999 34.18L22.05 6.06C22.4364 5.43563 22.9758 4.92033 23.6173 4.56296C24.2587 4.20559 24.9807 4.01801 25.715 4.01801C26.4492 4.01801 27.1713 4.20559 27.8127 4.56296C28.4541 4.92033 28.9936 5.43563 29.38 6.06L42.22 26.86C42.4998 27.3135 42.9483 27.6373 43.4668 27.7602C43.9854 27.883 44.5315 27.7948 44.985 27.515C45.4385 27.2352 45.7623 26.7867 45.8851 26.2682C46.008 25.7496 45.9198 25.2035 45.64 24.75L32.79 4C32.0447 2.79246 31.0029 1.79561 29.7637 1.10423C28.5245 0.41284 27.129 0.0498962 25.71 0.0498962C24.291 0.0498962 22.8955 0.41284 21.6563 1.10423C20.4171 1.79561 19.3753 2.79246 18.63 4L1.25999 32.07C0.480218 33.3314 0.0513393 34.7782 0.0176528 36.2608C-0.0160337 37.7434 0.346694 39.2081 1.06837 40.5037C1.79005 41.7992 2.8445 42.8786 4.12283 43.6304C5.40115 44.3822 6.857 44.779 8.33999 44.78H43.08C44.4455 44.7983 45.7938 44.4749 47.0024 43.8391C48.211 43.2034 49.2415 42.2755 50 41.14V41.14Z" fill="#00FFFF"/>
</svg>
