<svg width="115" height="161" viewBox="0 0 115 161" fill="none" xmlns="http://www.w3.org/2000/svg">
<path d="M88.7239 137.248V156.305L3.06393 115.72V94.9705L66.5279 64.1119L3.06393 33.6785V14.1319L88.7239 55.1625V75.7319L26.5906 107.4L88.7239 137.248ZM91.7466 89.2145L111.412 80.4892V147.644L91.7466 156.369V89.2145ZM109.347 43.8839L90.2466 52.5665L5.19327 11.8012L24.7079 3.28787L109.347 43.8839ZM91.7466 74.3172V55.1625L111.412 46.2239V65.6119L91.7466 74.3172ZM114.433 67.5705V42.9892L24.7399 -0.000122685L-6.10352e-05 10.7372V35.5825L59.5893 64.0905L-6.10352e-05 93.0879V117.625L90.2133 160.36L114.433 149.612V75.8492L88.7239 87.2559V133.907L33.3906 107.304L90.8533 78.0092L114.433 67.5705Z" fill="white"/>
</svg>
