<svg viewBox="0 0 15 15" fill="none" xmlns="http://www.w3.org/2000/svg">
<path d="M0 13.3008C0 13.6244 0.262299 13.8867 0.585938 13.8867H2.22656V14.4141C2.22656 14.7377 2.48886 15 2.8125 15C3.13614 15 3.39844 14.7377 3.39844 14.4141V13.8867H14.4141C14.7377 13.8867 15 13.6244 15 13.3008C15 12.9771 14.7377 12.7148 14.4141 12.7148H3.39844V12.1875C3.39844 11.8639 3.13614 11.6016 2.8125 11.6016C2.48886 11.6016 2.22656 11.8639 2.22656 12.1875V12.7148H0.585938C0.262299 12.7148 0 12.9771 0 13.3008ZM14.4141 2.28516H12.7734V2.8125C12.7734 3.13614 12.5111 3.39844 12.1875 3.39844C11.8639 3.39844 11.6016 3.13614 11.6016 2.8125V2.28516H0.585938C0.262299 2.28516 0 2.02286 0 1.69922C0 1.37558 0.262299 1.11328 0.585938 1.11328H11.6016V0.585938C11.6016 0.262299 11.8639 0 12.1875 0C12.5111 0 12.7734 0.262299 12.7734 0.585938V1.11328H14.4141C14.7377 1.11328 15 1.37558 15 1.69922C15 2.02286 14.7377 2.28516 14.4141 2.28516ZM14.4141 8.08594H8.08594V8.61328C8.08594 8.93692 7.82364 9.19922 7.5 9.19922C7.17636 9.19922 6.91406 8.93692 6.91406 8.61328V8.08594H0.585938C0.262299 8.08594 0 7.82364 0 7.5C0 7.17636 0.262299 6.91406 0.585938 6.91406H6.91406V6.38672C6.91406 6.06308 7.17636 5.80078 7.5 5.80078C7.82364 5.80078 8.08594 6.06308 8.08594 6.38672V6.91406H14.4141C14.7377 6.91406 15 7.17636 15 7.5C15 7.82364 14.7377 8.08594 14.4141 8.08594Z" fill="#535461"/>
</svg>
