<svg xmlns="http://www.w3.org/2000/svg" viewBox="0 0 461 102"><defs><style>.cls-1{fill:#001623;stroke:#fff;stroke-miterlimit:10;stroke-width:2px;opacity:0.66;}.cls-2{fill:#fff;}</style></defs><g id="Layer_2" data-name="Layer 2"><g id="Layer_1-2" data-name="Layer 1"><rect class="cls-1" x="1" y="1" width="459" height="100" rx="50"/><path class="cls-2" d="M52.8,60.2H50.5V39.3H42.8v-2H60.5v2H52.8Z"/><path class="cls-2" d="M61,45l3.6,12.3h.1L68.8,45h2.1l4.2,12.3h0L78.8,45h2.3L76.3,60.2H73.9l-4-12.3h-.1l-4,12.3H63.4L58.6,45Z"/><path class="cls-2" d="M98.6,52.1v1.1H86a8,8,0,0,0,.5,2.1,5.7,5.7,0,0,0,1.2,1.8,3.9,3.9,0,0,0,1.7,1.1,5.4,5.4,0,0,0,5.1-.3,4.7,4.7,0,0,0,1.9-1.8l1.7,1.3a8.4,8.4,0,0,1-3,2.4,8.5,8.5,0,0,1-3.5.8,8.7,8.7,0,0,1-3.2-.6A8.1,8.1,0,0,1,86,58.3a8.5,8.5,0,0,1-1.7-2.5,8.8,8.8,0,0,1,0-6.4,8.2,8.2,0,0,1,1.6-2.5,7.4,7.4,0,0,1,2.5-1.7,7.3,7.3,0,0,1,3-.6,7.5,7.5,0,0,1,3.1.6,7.9,7.9,0,0,1,2.3,1.6,9.5,9.5,0,0,1,1.4,2.4A9.2,9.2,0,0,1,98.6,52.1Zm-2.2-.7A5.3,5.3,0,0,0,95,47.9a4.3,4.3,0,0,0-3.6-1.4,4.9,4.9,0,0,0-2.1.4A5.7,5.7,0,0,0,87.7,48a3.6,3.6,0,0,0-1.1,1.6,4.1,4.1,0,0,0-.5,1.8Z"/><path class="cls-2" d="M117.1,52.1v1.1H104.6a5.2,5.2,0,0,0,.4,2.1,5.7,5.7,0,0,0,1.2,1.8,4.5,4.5,0,0,0,1.7,1.1,5.4,5.4,0,0,0,2.2.5,6.1,6.1,0,0,0,3-.8,5.2,5.2,0,0,0,1.8-1.8l1.7,1.3a8.4,8.4,0,0,1-3,2.4,8.5,8.5,0,0,1-3.5.8A7.8,7.8,0,0,1,107,60a7.4,7.4,0,0,1-2.5-1.7,8.2,8.2,0,0,1-1.6-2.5,9.6,9.6,0,0,1-.1-6.4,8.5,8.5,0,0,1,1.7-2.5,7,7,0,0,1,2.4-1.7,7.3,7.3,0,0,1,3-.6,7.5,7.5,0,0,1,3.1.6,7.9,7.9,0,0,1,2.3,1.6,7.2,7.2,0,0,1,1.4,2.4A9.2,9.2,0,0,1,117.1,52.1Zm-2.2-.7a5.3,5.3,0,0,0-1.4-3.5,4.3,4.3,0,0,0-3.6-1.4,4.5,4.5,0,0,0-2,.4,5,5,0,0,0-1.7,1.1,4.6,4.6,0,0,0-1.1,1.6,4.1,4.1,0,0,0-.5,1.8Z"/><path class="cls-2" d="M128.7,46.9h-4.3v8.8a5.2,5.2,0,0,0,.2,1.4,2.6,2.6,0,0,0,.5.9l.7.4h1.8l1-.4v1.9l-1.2.4h-1.4l-1.3-.2a2.7,2.7,0,0,1-1.2-.6,2.9,2.9,0,0,1-1-1.2,6,6,0,0,1-.4-2.1V46.9h-3.1V45h3.1V40.7h2.2V45h4.3Z"/><path class="cls-2" d="M140.5,45l3.7,12.3h0L148.3,45h2.2l4.1,12.3h.1L158.3,45h2.3l-4.8,15.2h-2.4l-4-12.3h-.1l-4,12.3h-2.4L138.2,45Z"/><path class="cls-2" d="M167.1,39.2a1.6,1.6,0,0,1-.5,1.1,1.7,1.7,0,0,1-2.2,0,1.5,1.5,0,0,1-.4-1.1,1.4,1.4,0,0,1,.4-1.1,1.5,1.5,0,0,1,2.2,0A1.4,1.4,0,0,1,167.1,39.2Zm-.5,21h-2.2V45h2.2Z"/><path class="cls-2" d="M179.3,46.9H175v8.8a5.2,5.2,0,0,0,.2,1.4,1.6,1.6,0,0,0,.5.9l.7.4h1.8l1-.4v1.9l-1.2.4h-1.4l-1.3-.2a3,3,0,0,1-2.2-1.8,4.4,4.4,0,0,1-.4-2.1V46.9h-3.1V45h3.1V40.7H175V45h4.3Z"/><path class="cls-2" d="M185.1,47.5a4.1,4.1,0,0,1,2-2.1,6.4,6.4,0,0,1,3-.8,5.6,5.6,0,0,1,4.4,1.7,7.4,7.4,0,0,1,1.4,4.6v9.3h-2.2V51.8a15,15,0,0,0-.2-2.2,2.9,2.9,0,0,0-.7-1.6,2.5,2.5,0,0,0-1.2-1.1,4.2,4.2,0,0,0-2-.4,4.7,4.7,0,0,0-1.7.3,4.2,4.2,0,0,0-1.5,1.1,4.9,4.9,0,0,0-1,1.9,6.8,6.8,0,0,0-.4,2.6v7.8h-2.2V35.7H185V47.5Z"/><path class="cls-2" d="M220.7,60.2c0-.4-.1-.9-.1-1.4V57.6h-.1a4.3,4.3,0,0,1-2.1,2.1,5.9,5.9,0,0,1-3.1.9,5.2,5.2,0,0,1-4.3-1.8,6.4,6.4,0,0,1-1.4-4.5V45h2.2v8.4a7.8,7.8,0,0,0,.2,2.2,3.8,3.8,0,0,0,.6,1.6,2.8,2.8,0,0,0,1.3,1.1,4,4,0,0,0,2,.4,5.1,5.1,0,0,0,1.7-.3,4.9,4.9,0,0,0,1.4-1.1,5,5,0,0,0,1.1-1.9,9.5,9.5,0,0,0,.4-2.6V45h2.2V58.4c0,.7.1,1.3.1,1.8Z"/><path class="cls-2" d="M236.6,48.6a5.4,5.4,0,0,0-1.5-1.5,4.4,4.4,0,0,0-2.3-.6h-1.1l-1.1.4a2.7,2.7,0,0,0-.7.8,1.7,1.7,0,0,0-.3,1,1.9,1.9,0,0,0,.9,1.7,7,7,0,0,0,2.8.9,9.5,9.5,0,0,1,3.9,1.6,3.5,3.5,0,0,1,1.3,2.9A4.3,4.3,0,0,1,238,58a4.7,4.7,0,0,1-1.3,1.5,4.8,4.8,0,0,1-1.8.8,7.3,7.3,0,0,1-5.4-.5,5.8,5.8,0,0,1-2.7-2.2l1.8-1.3a4,4,0,0,0,1.7,1.7,4.3,4.3,0,0,0,2.5.7h1.3a4.3,4.3,0,0,0,1.2-.5,2.7,2.7,0,0,0,.7-.8,2.8,2.8,0,0,0,.3-1.3,2,2,0,0,0-1.1-1.8,21,21,0,0,0-3.3-1.1l-1.5-.4L229,52a4.3,4.3,0,0,1-1.1-1.2,4.8,4.8,0,0,1-.4-1.8,4.6,4.6,0,0,1,.5-2,3.7,3.7,0,0,1,1.2-1.3,5.3,5.3,0,0,1,1.7-.8,6.9,6.9,0,0,1,2-.3,8.2,8.2,0,0,1,3.1.7,5,5,0,0,1,2.2,2.1Z"/><path class="cls-2" d="M257.8,46.9h-4.3v8.8a5.2,5.2,0,0,0,.2,1.4,2.5,2.5,0,0,0,.4.9l.8.4h1.8l1-.4v1.9l-1.2.4h-1.4l-1.3-.2a3,3,0,0,1-2.2-1.8,4.4,4.4,0,0,1-.4-2.1V46.9h-3.1V45h3.1V40.7h2.2V45h4.3Z"/><path class="cls-2" d="M276.3,52.6a8.7,8.7,0,0,1-.6,3.2,8.1,8.1,0,0,1-4.2,4.2,9.4,9.4,0,0,1-6.6,0,8.1,8.1,0,0,1-4.2-4.2,8.8,8.8,0,0,1,0-6.4,8.1,8.1,0,0,1,4.2-4.2,9.4,9.4,0,0,1,6.6,0,8.1,8.1,0,0,1,4.2,4.2A8.7,8.7,0,0,1,276.3,52.6Zm-2.4,0a6.7,6.7,0,0,0-.4-2.4,4.5,4.5,0,0,0-1.1-1.9,4.6,4.6,0,0,0-1.8-1.3,6,6,0,0,0-4.8,0,4.6,4.6,0,0,0-1.8,1.3,4.5,4.5,0,0,0-1.1,1.9,7.4,7.4,0,0,0,0,4.8,4.5,4.5,0,0,0,1.1,1.9,4.6,4.6,0,0,0,1.8,1.3,6,6,0,0,0,4.8,0,4.6,4.6,0,0,0,1.8-1.3,4.5,4.5,0,0,0,1.1-1.9A6.7,6.7,0,0,0,273.9,52.6Z"/><path class="cls-2" d="M302.9,52.1v.5a1.3,1.3,0,0,1-.1.6H290.3a7.8,7.8,0,0,0,.4,2.1,5.7,5.7,0,0,0,1.2,1.8,4.2,4.2,0,0,0,1.8,1.1,4.6,4.6,0,0,0,2.1.5,5.6,5.6,0,0,0,3-.8,6.6,6.6,0,0,0,1.9-1.8l1.6,1.3a8.4,8.4,0,0,1-3,2.4,8.2,8.2,0,0,1-6.6.2,7.4,7.4,0,0,1-2.5-1.7,8.2,8.2,0,0,1-1.6-2.5,8.8,8.8,0,0,1,0-6.4,8.2,8.2,0,0,1,1.6-2.5,8.1,8.1,0,0,1,2.4-1.7,7.7,7.7,0,0,1,3-.6,7.9,7.9,0,0,1,3.2.6,7.3,7.3,0,0,1,2.2,1.6,7.2,7.2,0,0,1,1.4,2.4A9.3,9.3,0,0,1,302.9,52.1Zm-2.3-.7a5.2,5.2,0,0,0-1.3-3.5,4.6,4.6,0,0,0-3.7-1.4,4.5,4.5,0,0,0-2,.4,6.2,6.2,0,0,0-1.7,1.1,6.4,6.4,0,0,0-1.1,1.6,6.1,6.1,0,0,0-.5,1.8Z"/><path class="cls-2" d="M317,50.4a4.1,4.1,0,0,0-1.1-3,4.5,4.5,0,0,0-3-.9,6.6,6.6,0,0,0-4.5,1.8l-1.2-1.5a8.3,8.3,0,0,1,2.5-1.6,9,9,0,0,1,3.4-.6,5.6,5.6,0,0,1,2.3.4,3.9,3.9,0,0,1,1.9,1,3.7,3.7,0,0,1,1.3,1.7,6.1,6.1,0,0,1,.4,2.4v6.7c0,.6.1,1.2.1,1.8a7.8,7.8,0,0,0,.2,1.6h-2c0-.4-.1-.8-.1-1.2a6.2,6.2,0,0,1-.1-1.3H317a6,6,0,0,1-2.3,2.2,7.6,7.6,0,0,1-3.2.7,5.7,5.7,0,0,1-1.8-.3,4.4,4.4,0,0,1-1.7-.8,3.3,3.3,0,0,1-1.2-1.4,3.8,3.8,0,0,1-.5-2.2,4,4,0,0,1,.9-2.7,6.3,6.3,0,0,1,2.3-1.6A17,17,0,0,1,313,51l4-.2Zm-.7,2.2h-2.7a9.2,9.2,0,0,0-2.5.5,3.8,3.8,0,0,0-1.8.9,2.5,2.5,0,0,0-.8,1.8,1.8,1.8,0,0,0,.4,1.3,1.8,1.8,0,0,0,.8.9l1.1.5h1.3a4.6,4.6,0,0,0,2.1-.4,3.3,3.3,0,0,0,1.5-1.1,4.2,4.2,0,0,0,.9-1.6,4.1,4.1,0,0,0,.4-1.9V52.6Z"/><path class="cls-2" d="M324.7,46.8a12.1,12.1,0,0,1-.1-1.8h2.1a7.1,7.1,0,0,0,.1,1.4v1.2h.1a4.3,4.3,0,0,1,1.9-2.1,5,5,0,0,1,2.9-.9h1.5l-.3,2.1h-1.6a4.5,4.5,0,0,0-1.6.3,4,4,0,0,0-1.5,1,5.1,5.1,0,0,0-.9,1.8,6.8,6.8,0,0,0-.4,2.6v7.8h-2.2V46.8Z"/><path class="cls-2" d="M338.3,45a6.1,6.1,0,0,1,.1,1.4c0,.5.1.9.1,1.2h0a5.3,5.3,0,0,1,2.1-2.1,5.9,5.9,0,0,1,3.1-.9,5.4,5.4,0,0,1,4.3,1.7,6.9,6.9,0,0,1,1.5,4.6v9.3h-2.2V51.8a15,15,0,0,0-.2-2.2,5.9,5.9,0,0,0-.7-1.6,2.4,2.4,0,0,0-1.3-1.1,4,4,0,0,0-2-.4,4.5,4.5,0,0,0-1.6.3,4.2,4.2,0,0,0-1.5,1.1,5,5,0,0,0-1.1,1.9,9.8,9.8,0,0,0-.3,2.6v7.8h-2.2V48.4c0-.5-.1-1-.1-1.6a9.7,9.7,0,0,0-.1-1.8Z"/><path class="cls-2" d="M371,36.9a11.3,11.3,0,0,1,3.6.6,7.6,7.6,0,0,1,3.2,1.7l-2.7,2.7a4.6,4.6,0,0,0-1.8-1.3,6.2,6.2,0,0,0-2.3-.4v6.5l2.5.9,2.2,1.3a7,7,0,0,1,1.6,1.9,6.1,6.1,0,0,1,.6,2.8,7,7,0,0,1-.6,3,4.5,4.5,0,0,1-1.5,2.1,5.4,5.4,0,0,1-2.2,1.3,7.5,7.5,0,0,1-2.6.5v2.4h-1.7V60.5a11.1,11.1,0,0,1-4.1-.8,9.9,9.9,0,0,1-3.5-2.2l2.8-2.7a6.2,6.2,0,0,0,2.2,1.7,6.8,6.8,0,0,0,2.6.7V50a17.1,17.1,0,0,1-2.7-.9,5.7,5.7,0,0,1-2.1-1.3A5.2,5.2,0,0,1,363,46a6.8,6.8,0,0,1-.5-2.7,5.8,5.8,0,0,1,.6-2.6,7,7,0,0,1,1.5-1.9,6.1,6.1,0,0,1,2.2-1.3,10.2,10.2,0,0,1,2.5-.6V34.7H371Zm-1.7,3.3a3.3,3.3,0,0,0-2,.8,2.6,2.6,0,0,0-.9,2.1,2.9,2.9,0,0,0,.8,2.1,7,7,0,0,0,2.1,1.1Zm1.7,17a3.2,3.2,0,0,0,2.2-1,3.1,3.1,0,0,0,.8-2.3,2.9,2.9,0,0,0-.8-2.2,6.6,6.6,0,0,0-2.2-1.2Z"/><path class="cls-2" d="M381.2,56.5l12.5-15.7H381.4V37.3h17.1v3.6L386,56.5h12.7v3.7H381.2Z"/><path class="cls-2" d="M402.4,37.3h4.1V60.2h-4.1Z"/><path class="cls-2" d="M411.5,37.3h4.1V56.5h9.7v3.7H411.5Z"/></g></g></svg>