<svg xmlns="http://www.w3.org/2000/svg" viewBox="0 0 1696.7 710.3"><defs><style>.cls-1{fill:#fff;}.cls-2{fill:#06fccd;}</style></defs><g id="Layer_2" data-name="Layer 2"><g id="Layer_1-2" data-name="Layer 1"><path class="cls-1" d="M.3,589.6c18.6,16.8,34.7,37,50.9,56.1,8,9.4,15.7,19.1,23.6,28.6,3,3.7,8.4,2.1,12.9,2.2q9.6.3,19.2,1.2a1.2,1.2,0,0,0,1.1-1.2c1.1-13.4,1.7-26.8,1.9-40.2a1.2,1.2,0,0,0-2.4,0q-.1,20.1-1.8,40.2l1.2-1.2c-6-.5-12.1-.9-18.1-1.1-2.8-.1-5.9.3-8.6-.1s-5-3-7.2-5.6c-7.8-9.7-15.7-19.2-23.7-28.6s-15.8-18.1-23.8-27S10.6,594.7,1.4,588.1c-.9-.6-1.9.8-1.1,1.5Z"/><path class="cls-1" d="M.6,589.2c33.9,18.9,71.5,29.8,106.1,47.1a1.1,1.1,0,0,0,1.1-1.9C93,623.7,73.6,618.9,56.9,612.2c-18.8-7.5-36.8-17.1-55.6-24.4a.8.8,0,0,0-.7,1.4Z"/><path class="cls-1" d="M105.2,628c0,3.1,1.3,6.4,2.7,9.2.6,1.2,2.4.1,1.8-1.1-1.2-2.7-1.8-5.6-2.8-8.4a.9.9,0,0,0-1.7.3Z"/><path class="cls-1" d="M2,588.5c8,4.3,17.3,6.8,25.8,10l27.7,10.4c18.4,6.9,36.8,15.1,55.7,20.4,1.2.3,2-1.5.9-2-17.2-8-35.9-13.6-53.7-20L30.5,597.2c-9.1-3.4-18.5-7.8-28-9.9-.6-.1-1.1.8-.5,1.2Z"/><path class="cls-1" d="M1.1,588.4c7.8-.1,15.8-1.5,23.6-2.3s15.7-1.6,23.6-2.2c15.4-1.3,30.8-2.4,46.2-3.2,6.8-.4,17.5-2.9,23.3.8,3.4,2.2,6.4,5.4,9.5,8s6.2,4.6,8.7,7.3,2.3,1.5,1.2,3.7-2.6,2.8-3.7,4c-2.5,2.7-5,5.4-7.6,8-5,5.3-11.1,10.2-15.3,16.1-.4.6.4,1.3.9.9,5.4-3.6,9.9-9.1,14.5-13.8s10.1-10.6,15.1-16a1.1,1.1,0,0,0,0-1.6l-14.8-12.4c-2.9-2.4-6.7-7-10.3-8.3s-7.4.4-10.2.5l-9,.5c-6.8.3-13.6.8-20.3,1.3-12.8.8-25.6,2-38.3,3.2S12.9,584.5,1,587.4c-.6.1-.4,1,.1,1Z"/><path class="cls-1" d="M125.9,636.8a1.8,1.8,0,0,1-1-.2l-.5-.3a2,2,0,0,1,2.1-3.5l.5.3a2.2,2.2,0,0,1,.7,2.8A2.1,2.1,0,0,1,125.9,636.8Z"/><path class="cls-1" d="M202.3,664.6h-1.2a2.2,2.2,0,0,1-2-2.1,2,2,0,0,1,2.1-2h1.1a2,2,0,0,1,2,2A2.1,2.1,0,0,1,202.3,664.6Zm7.9-.3a2,2,0,0,1-2-1.8,2.1,2.1,0,0,1,1.9-2.2h1.1a2,2,0,0,1,.4,4h-1.4Zm-17.1-.3h-1.3a2.2,2.2,0,0,1-1.8-2.3,2,2,0,0,1,2.3-1.7h1.1a1.9,1.9,0,0,1,1.7,2.2A1.9,1.9,0,0,1,193.1,664Zm26.2-.9a2,2,0,0,1-.4-4l1.1-.2a2,2,0,0,1,2.4,1.5,2.1,2.1,0,0,1-1.6,2.4l-1.1.2Zm-35.2-.5h-.4l-1.1-.2a2,2,0,0,1-1.5-2.4,1.9,1.9,0,0,1,2.4-1.5l1,.2a2,2,0,0,1-.4,4Zm44-1.9a2.1,2.1,0,0,1-1.9-1.3,2,2,0,0,1,1.3-2.6l1-.3a2,2,0,1,1,1.3,3.7l-1.1.4Zm-52.8-.4h-.6l-1.1-.3a1.9,1.9,0,0,1-1.3-2.5,1.9,1.9,0,0,1,2.5-1.3l1,.3a2,2,0,0,1,1.4,2.5A1.8,1.8,0,0,1,175.3,660.3Zm-8.7-2.9h-.7l-1.1-.4a2,2,0,0,1,1.5-3.7l1,.4a1.9,1.9,0,0,1,1.2,2.5A2.1,2.1,0,0,1,166.6,657.4Zm69.9-.2a2.1,2.1,0,0,1-1.8-1.1,2,2,0,0,1,.9-2.7l1-.5a2.1,2.1,0,0,1,2.7.8,2.2,2.2,0,0,1-.8,2.8l-1.1.5ZM158.2,654a1.1,1.1,0,0,1-.8-.2l-1.1-.4a2,2,0,0,1-1-2.7,2,2,0,0,1,2.6-1l1.1.5a2,2,0,0,1,1,2.6A1.9,1.9,0,0,1,158.2,654Zm86.1-1.5a1.9,1.9,0,0,1-1.6-.9,2,2,0,0,1,.4-2.8l.9-.6a2,2,0,1,1,2.4,3.2l-.9.7A1.9,1.9,0,0,1,244.3,652.5Zm-94.4-2.4a1.5,1.5,0,0,1-.9-.2l-1-.5a2,2,0,1,1,1.8-3.6l1,.5a2,2,0,0,1,.9,2.7A2.1,2.1,0,0,1,149.9,650.1Zm101.3-3.6a2,2,0,0,1-1.4-.6,2,2,0,0,1-.1-2.8l.8-.8a2,2,0,1,1,2.9,2.7l-.8.9A2,2,0,0,1,251.2,646.5Zm-109.4-.6a1.8,1.8,0,0,1-1-.2l-1-.6a2,2,0,0,1-.8-2.7,2,2,0,0,1,2.7-.8l1,.6a1.9,1.9,0,0,1-.9,3.7Zm-8-4.4a1.9,1.9,0,0,1-1-.3l-1-.6a1.9,1.9,0,0,1-.7-2.7,1.9,1.9,0,0,1,2.7-.7l1,.5a2.1,2.1,0,0,1,.8,2.8A2.2,2.2,0,0,1,133.8,641.5Zm123.1-2.1a1.5,1.5,0,0,1-1.1-.4,2,2,0,0,1-.6-2.7,8.6,8.6,0,0,0,.7-1,1.9,1.9,0,0,1,2.7-.6,2,2,0,0,1,.6,2.8l-.6,1A2,2,0,0,1,256.9,639.4Zm4.4-8a1.3,1.3,0,0,1-.8-.2,2,2,0,0,1-1-2.6c.2-.3.3-.7.5-1a2,2,0,0,1,2.6-1.1l.6.4c-.1-.2-.1-.4-.2-.6a2,2,0,0,1,1.9-2.1H266a2.2,2.2,0,0,1,2.2,1.9,1.9,1.9,0,0,1-1.9,2.1h-1.2a2.4,2.4,0,0,1-1.4-.5,1.6,1.6,0,0,1-.1,1.5l-.4,1A2.1,2.1,0,0,1,261.3,631.4Zm-4.2-3.3h-1.4a2,2,0,0,1,.4-4h1.1a2,2,0,0,1,1.9,2.1A2.1,2.1,0,0,1,257.1,628.1Zm17-1a2.1,2.1,0,0,1-2-1.6,2.1,2.1,0,0,1,1.6-2.4l1.1-.2a2.1,2.1,0,0,1,2.4,1.6,2,2,0,0,1-1.6,2.3l-1.1.3Zm-26-.5h-.5l-1.2-.3a2,2,0,0,1,1.1-3.9l1.1.3a2.1,2.1,0,0,1,1.4,2.5A1.9,1.9,0,0,1,248.1,626.6Zm34.8-1.7a2.1,2.1,0,0,1-1.9-1.4,2.2,2.2,0,0,1,1.3-2.6l1.1-.3a1.9,1.9,0,0,1,2.5,1.3,2,2,0,0,1-1.2,2.5l-1.1.4Zm-43.4-1.4a1.5,1.5,0,0,1-.9-.2l-1.1-.5a2.1,2.1,0,0,1-.8-2.7,2,2,0,0,1,2.7-.9l.9.5a2,2,0,0,1,1,2.7A2,2,0,0,1,239.5,623.5Zm24.8-.7h-.5a1.9,1.9,0,0,1-1.4-2.4c.1-.3.1-.7.2-1.1a2.1,2.1,0,0,1,2.4-1.5,2,2,0,0,1,1.5,2.4,5,5,0,0,1-.2,1.2A2.1,2.1,0,0,1,264.3,622.8Zm27.2-1.2a2.2,2.2,0,0,1-1.9-1.2,2.1,2.1,0,0,1,1-2.7l1.1-.4a2,2,0,1,1,1.6,3.6l-1,.5Zm-59.8-2.9a1.7,1.7,0,0,1-1.2-.4l-1-.8a2,2,0,0,1,2.6-3l.9.7a2,2,0,0,1,.3,2.8A2,2,0,0,1,231.7,618.7Zm67.9-1.3a1.8,1.8,0,0,1-1.7-1,1.9,1.9,0,0,1,.7-2.7l1-.6a2.1,2.1,0,0,1,2.7.7,2,2,0,0,1-.7,2.8l-1,.6Zm-34-3.6h-.1a2.1,2.1,0,0,1-1.9-2.1c0-.4.1-.7.1-1.1a2,2,0,0,1,2-2,2.1,2.1,0,0,1,2,2.1,4.9,4.9,0,0,1-.1,1.2A2,2,0,0,1,265.6,613.8Zm41.7-1.3a2,2,0,0,1-1.7-.9,2.1,2.1,0,0,1,.5-2.8l.9-.6a2,2,0,1,1,2.4,3.2l-1,.7A1.5,1.5,0,0,1,307.3,612.5Zm-81.8-.4a2.1,2.1,0,0,1-1.7-.8l-.7-1.1a2,2,0,0,1,.7-2.7,1.9,1.9,0,0,1,2.7.6l.6.9a2,2,0,0,1-.5,2.8A2,2,0,0,1,225.5,612.1Zm89-5.2a2.4,2.4,0,0,1-1.6-.7,2.1,2.1,0,0,1,.3-2.9l.8-.7a2,2,0,0,1,2.8.2,1.9,1.9,0,0,1-.2,2.8l-.9.8A1.8,1.8,0,0,1,314.5,606.9ZM265,604.7a1.9,1.9,0,0,1-1.9-1.7l-.3-1a2.1,2.1,0,0,1,1.6-2.4,2.1,2.1,0,0,1,2.4,1.5c.1.4.1.8.2,1.2a2.1,2.1,0,0,1-1.6,2.4Zm-43.3-.8a2,2,0,0,1-1.9-1.6l-.3-1.2a2,2,0,0,1,4-.7,3.6,3.6,0,0,0,.2,1,2,2,0,0,1-1.5,2.4Zm99.5-3.2a2,2,0,0,1-1.4-.6,1.9,1.9,0,0,1,0-2.8l.8-.8a2.1,2.1,0,0,1,2.9,0,2.2,2.2,0,0,1-.1,2.9l-.8.8A2.4,2.4,0,0,1,321.2,600.7ZM262.3,596a2.2,2.2,0,0,1-1.8-1.2l-.4-.9a1.9,1.9,0,0,1,.8-2.7,2.1,2.1,0,0,1,2.7.8l.6,1.1a2.1,2.1,0,0,1-1,2.7Zm-40.8-1.2h-.4a2,2,0,0,1-1.6-2.3,5.1,5.1,0,0,1,.2-1.3,2.1,2.1,0,0,1,2.4-1.5,1.9,1.9,0,0,1,1.5,2.4,3.6,3.6,0,0,1-.2,1A1.9,1.9,0,0,1,221.5,594.8Zm106.1-.6a2.4,2.4,0,0,1-1.4-.5,2.2,2.2,0,0,1-.1-2.9l.8-.8a2,2,0,1,1,2.9,2.7l-.7.9A2.2,2.2,0,0,1,327.6,594.2Zm-70.3-5.8a2,2,0,0,1-1.5-.6l-.7-.8a2,2,0,0,1,2.8-2.8l.9.9a1.9,1.9,0,0,1-.2,2.8A1.5,1.5,0,0,1,257.3,588.4Zm76.3-1a2.4,2.4,0,0,1-1.3-.5,2,2,0,0,1-.2-2.8l.7-.9a2.1,2.1,0,0,1,2.9-.3,2.2,2.2,0,0,1,.2,2.9l-.7.9A2.4,2.4,0,0,1,333.6,587.4Zm-108.8-1a2.8,2.8,0,0,1-1.2-.4,2,2,0,0,1-.5-2.8l.8-1a2,2,0,1,1,3.1,2.5l-.6.8A1.9,1.9,0,0,1,224.8,586.4Zm25.4-3.7a1.9,1.9,0,0,1-1-.3l-.9-.5a2.1,2.1,0,0,1-.8-2.8,2.1,2.1,0,0,1,2.7-.8l1.1.6a2.2,2.2,0,0,1,.7,2.8A2.2,2.2,0,0,1,250.2,582.7Zm-18.5-2.1a2,2,0,0,1-1.8-1.2,2,2,0,0,1,1-2.7l1.2-.4a2,2,0,0,1,1.3,3.7l-.9.4Zm107.7-.3a1.9,1.9,0,0,1-1.2-.4,2.1,2.1,0,0,1-.3-2.9l.7-.8a2,2,0,1,1,3.1,2.4l-.7.9A2.1,2.1,0,0,1,339.4,580.3Zm-97.6-.9h-1.4a2,2,0,1,1,.4-4l1.3.2a1.9,1.9,0,0,1,1.6,2.3A1.9,1.9,0,0,1,241.8,579.4Zm103.3-6.3a2,2,0,0,1-1.3-.4,2,2,0,0,1-.3-2.8l.6-.9a2.1,2.1,0,0,1,2.9-.4,2,2,0,0,1,.3,2.8l-.7.9A1.9,1.9,0,0,1,345.1,573.1Z"/><path class="cls-1" d="M350.6,565.8a2.1,2.1,0,0,1-1.2-.5,2,2,0,0,1-.4-2.8l.4-.4a2,2,0,0,1,2.8-.4,2,2,0,0,1,.4,2.8l-.4.5A2.1,2.1,0,0,1,350.6,565.8Z"/><path class="cls-1" d="M1507.4,293.5c-3.3,8-4.6,17.3-6.7,25.7s-4.8,15.9-5.4,23.9c-.1,1,1.3,1,1.6.2,3.4-7.9,4.6-17.3,6.6-25.7s4.7-15.9,5.4-23.9c.1-.9-1.2-.9-1.5-.2Z"/><path class="cls-1" d="M1516.4,311.4c-4.7,4.4-8,10.5-11.6,15.8s-8.4,10.8-9.9,16.8a.7.7,0,0,0,1.2.7c4.4-4,7.1-10.3,10.5-15.2s8.5-10.9,11.2-17a.9.9,0,0,0-1.4-1.1Z"/><path class="cls-1" d="M1508.5,294.4c-.1-5.5-3.1-11.3-5-16.4s-4.5-12.1-6.8-18.2l-2,1.5c25.5,11.5,49.8,25.3,74,39.3,11.9,6.9,23.9,13.7,36,20.3S1628.4,335,1641,339c.9.3,1.4-1,.6-1.5-5.8-3.7-12.6-6.5-18.8-9.7l-17.7-9.6c-12.1-6.6-24-13.6-36-20.5-23.9-13.8-47.9-27.4-73.1-38.7-.9-.4-2.4.3-2,1.5,2.5,6.4,4.9,12.8,7.3,19.3,1.8,4.9,3.1,10.7,6.5,14.9.2.3.7,0,.7-.3Z"/><path class="cls-1" d="M1515.9,312.5c2.5,9.5,6.6,18.7,10.1,27.8s7.1,18.5,10.7,27.7a1.6,1.6,0,0,0,1.8,1q51-15.2,102.5-29a1.1,1.1,0,0,0-.5-2.1c-34.4,8.9-68.7,18.2-102.8,28.3l1.8,1-11.1-28.7c-3.5-8.9-6.5-18.1-10.9-26.6a.9.9,0,0,0-1.6.6Z"/><path class="cls-1" d="M1495.3,344c3.9,2.4,9.8,1.1,14.2,1.1,6.1,0,12.3,0,18.4-.4a1.3,1.3,0,0,0,0-2.5c-6.1-.2-12.3-.1-18.4.1-4.5.1-10.3-1-14.2,1.4-.1.1-.1.3,0,.3Z"/><path class="cls-1" d="M1517,313.4c10.5,2.3,21,3.5,31.5,6.4s19.2,5.7,29,8.1c20.4,5,41.4,7.4,61.9,11.9.9.3,1.3-1.2.4-1.5-20.4-6.4-41.9-8.2-62.6-13.4-10.1-2.4-20-5.6-30.1-8.3s-19.9-5.8-29.8-5.3c-1.2,0-1.5,1.9-.3,2.1Z"/><path class="cls-1" d="M1507.5,294.5c9.3,4.6,19.7,7.6,29.6,11.1s21.1,7.2,31.7,10.8c21.7,7.3,43.2,14.7,65.3,20.5.1,0,.1-.1,0-.1-20.8-8.6-42.1-15.5-63.5-22.7l-30.7-10.4c-10.5-3.7-20.9-8.3-31.6-11.3a1.1,1.1,0,0,0-.8,2.1Z"/><path class="cls-1" d="M1584.9,171.8l-.7-.2-.5-.2a2,2,0,0,1-1.2-2.6,2,2,0,0,1,2.6-1.1l.5.2a2,2,0,0,1,1.2,2.6A2.1,2.1,0,0,1,1584.9,171.8Z"/><path class="cls-1" d="M1452.9,348a2,2,0,1,1,0-4h1.1a1.9,1.9,0,0,1,2,1.9,2,2,0,0,1-2,2.1Zm-8.1-.2h-1.3a1.9,1.9,0,0,1-1.9-2.1,2.1,2.1,0,0,1,2.1-1.9h1.2a2,2,0,0,1,1.9,2.1A2.1,2.1,0,0,1,1444.8,347.8Zm17.3-.1a1.9,1.9,0,0,1-2-1.9,2,2,0,0,1,1.9-2.1h1.1a2.1,2.1,0,1,1,.3,4.1h-1.3Zm-26.5-.7h-1.4a2.2,2.2,0,0,1-1.8-2.3,2.1,2.1,0,0,1,2.3-1.7h1.1a2,2,0,0,1,1.8,2.2A2,2,0,0,1,1435.6,347Zm35.7,0a2,2,0,0,1-2-1.8,2,2,0,0,1,1.8-2.2h1.1a2,2,0,0,1,2.3,1.7,2.2,2.2,0,0,1-1.8,2.3h-1.4Zm-44.9-1.3h-.3l-1.2-.2a2.1,2.1,0,0,1-1.6-2.4,1.9,1.9,0,0,1,2.4-1.5l1.1.2a2,2,0,0,1,1.6,2.3A2,2,0,0,1,1426.4,345.7Zm-9-2.1h-.5l-1.1-.3a2,2,0,0,1,1.1-3.9l1.1.3a2.1,2.1,0,0,1,1.4,2.5A2.1,2.1,0,0,1,1417.4,343.6Zm-8.7-2.9h-.8l-1.1-.5a2,2,0,0,1-1.1-2.6,2,2,0,0,1,2.6-1.1l1.1.4a2,2,0,0,1,1.1,2.6A1.9,1.9,0,0,1,1408.7,340.7Zm-8.5-3.8-.9-.2-1-.6a1.9,1.9,0,0,1-.8-2.7,2,2,0,0,1,2.7-.8,3.1,3.1,0,0,0,1,.5,2,2,0,0,1,.8,2.7A1.9,1.9,0,0,1,1400.2,336.9Zm-7.8-4.8a1.9,1.9,0,0,1-1.2-.4l-1-.7a2.2,2.2,0,0,1-.4-2.8,2.1,2.1,0,0,1,2.9-.4l.9.6a2,2,0,0,1,.4,2.8A1.9,1.9,0,0,1,1392.4,332.1Zm-7-6a2,2,0,0,1-1.5-.6l-.8-.9a2,2,0,0,1,2.9-2.7l.8.8a1.9,1.9,0,0,1,0,2.8A2,2,0,0,1,1385.4,326.1Zm-6-7a2.1,2.1,0,0,1-1.6-.8l-.7-1a2,2,0,0,1,3.2-2.4l.7.9a2.2,2.2,0,0,1-.4,2.9A2.8,2.8,0,0,1,1379.4,319.1Zm-5.1-7.7a2.1,2.1,0,0,1-1.8-1.1,9.3,9.3,0,0,1-.5-1,1.9,1.9,0,0,1,.7-2.7,2,2,0,0,1,2.8.8,4.1,4.1,0,0,1,.5.9,2,2,0,0,1-.7,2.8A1.9,1.9,0,0,1,1374.3,311.4Zm-4.1-8.3a2.1,2.1,0,0,1-1.9-1.2c-.1-.4-.3-.8-.4-1.1a2,2,0,0,1,3.7-1.5,10.4,10.4,0,0,1,.4,1,1.9,1.9,0,0,1-1,2.6Zm-3.2-8.7a2.1,2.1,0,0,1-1.9-1.4l-.3-1.2a1.9,1.9,0,0,1,1.4-2.4,1.9,1.9,0,0,1,2.4,1.3,3.6,3.6,0,0,0,.4,1.1,2,2,0,0,1-1.4,2.5Zm-2.1-9a2.1,2.1,0,0,1-2-1.6,5,5,0,0,0-.2-1.2,2.1,2.1,0,0,1,1.7-2.3,2,2,0,0,1,2.3,1.7c.1.3.1.7.2,1.1a2,2,0,0,1-1.6,2.3Zm-1-9.2a2,2,0,0,1-2-1.9v-1.2a1.9,1.9,0,0,1,1.9-2,1.9,1.9,0,0,1,2.1,1.9v1.1a1.9,1.9,0,0,1-1.9,2.1Zm.2-9.2h-.2a2,2,0,0,1-1.8-2.2,3.7,3.7,0,0,1,.1-1.1,2,2,0,0,1,2.2-1.9,2.1,2.1,0,0,1,1.8,2.3,3.7,3.7,0,0,0-.1,1.1A2,2,0,0,1,1364.1,267Zm1.4-9.1h-.5a1.9,1.9,0,0,1-1.5-2.4l.3-1.1a1.9,1.9,0,0,1,2.4-1.5,2,2,0,0,1,1.5,2.4l-.3,1.1A1.9,1.9,0,0,1,1365.5,257.9Zm90.7-1.9h-.4l-1.3-.3a2,2,0,0,1-1.4-2.5,2.1,2.1,0,0,1,2.5-1.4l.9.2a2.1,2.1,0,0,1,1.6,2.4A1.8,1.8,0,0,1,1456.2,256Zm7.8-.9a2.1,2.1,0,0,1-1.8-1.1,2,2,0,0,1,1-2.7l.8-.5a2,2,0,1,1,2.1,3.4l-1.2.7Zm-16-3.1a1.5,1.5,0,0,1-1.3-.5,3.9,3.9,0,0,1-1-.8,2.1,2.1,0,0,1-.1-2.9,2.1,2.1,0,0,1,2.9,0l.8.7a2,2,0,0,1,.2,2.8A1.9,1.9,0,0,1,1448,252Zm-79.9-2.9-.7-.2a2,2,0,0,1-1.1-2.6,4.9,4.9,0,0,1,.4-1.1,2,2,0,0,1,2.6-1.1,1.9,1.9,0,0,1,1.1,2.6c-.1.4-.3.7-.4,1.1A2.1,2.1,0,0,1,1368.1,249.1Zm102-.7h-.7a2,2,0,0,1-1.2-2.6l.3-.9a2,2,0,1,1,3.9,1l-.4,1.3A2.1,2.1,0,0,1,1470.1,248.4Zm-27.6-3.7a2.2,2.2,0,0,1-1.9-1.3c-.1-.4-.3-.8-.4-1.2a1.9,1.9,0,0,1,1.3-2.5,1.9,1.9,0,0,1,2.5,1.2,3,3,0,0,0,.4,1,2,2,0,0,1-1.1,2.6Zm-70.4-4-1-.2a2,2,0,0,1-.7-2.8l.6-1a2,2,0,0,1,2.8-.7,2.1,2.1,0,0,1,.6,2.8,4.1,4.1,0,0,0-.5.9A2,2,0,0,1,1372.1,240.7Zm98.4-1.4a2.1,2.1,0,0,1-2-1.6,4.3,4.3,0,0,0-.2-1.1,2,2,0,0,1,3.9-1l.3,1.3a2,2,0,0,1-1.6,2.3Zm-29.4-3.7h-.1a2.1,2.1,0,0,1-1.9-2.1,4.9,4.9,0,0,1,.1-1.2,2,2,0,0,1,2.2-1.9,2,2,0,0,1,1.8,2.2c0,.4-.1.7-.1,1.1A1.9,1.9,0,0,1,1441.1,235.6Zm-63.7-2.4a2.1,2.1,0,0,1-1.3-.5,2,2,0,0,1-.3-2.8l.8-1a2,2,0,0,1,2.8-.2,2.1,2.1,0,0,1,.3,2.9l-.8.8A1.9,1.9,0,0,1,1377.4,233.2Zm89.8-2.5a2,2,0,0,1-1.8-1,4.1,4.1,0,0,1-.5-.9,2,2,0,0,1,.6-2.8,2.1,2.1,0,0,1,2.8.6l.6,1.1a2,2,0,0,1-1.7,3Zm-24.3-4.1h-.6a2.1,2.1,0,0,1-1.3-2.6,7.6,7.6,0,0,0,.4-1.1,2,2,0,0,1,3.8,1.4,4.2,4.2,0,0,1-.4,1A1.9,1.9,0,0,1,1442.9,226.6Zm-59.1,0a2.3,2.3,0,0,1-1.5-.7,2.1,2.1,0,0,1,.2-2.9l.9-.8a2.1,2.1,0,0,1,2.9.3,1.9,1.9,0,0,1-.3,2.8l-.8.8A2.4,2.4,0,0,1,1383.8,226.6Zm77.6-3.1a1.9,1.9,0,0,1-1.3-.6,2.7,2.7,0,0,1-.8-.7,1.9,1.9,0,0,1-.2-2.8,1.9,1.9,0,0,1,2.8-.2l.9.8a2,2,0,0,1-1.4,3.5Zm-70.2-2.5a2.1,2.1,0,0,1-1.7-.9,2,2,0,0,1,.7-2.8l1-.6a2,2,0,0,1,2.8.7,2.1,2.1,0,0,1-.7,2.7l-1,.6A2,2,0,0,1,1391.2,221Zm55.6-2.8a1.9,1.9,0,0,1-1-.3,1.9,1.9,0,0,1-.7-2.7,4.1,4.1,0,0,1,.5-.9h-.7l-1.1-.4a2,2,0,0,1-1.2-2.6,1.9,1.9,0,0,1,2.5-1.2l1.1.4a2,2,0,0,1,1.3,2.5.4.4,0,0,0-.1.3,1.9,1.9,0,0,1,1,.3,1.9,1.9,0,0,1,.7,2.7l-.5,1A2.2,2.2,0,0,1,1446.8,218.2Zm7.1-.1-1-.2-.9-.6a2,2,0,0,1,1.9-3.5l1.1.6a2,2,0,0,1,.7,2.7A2,2,0,0,1,1453.9,218.1Zm-54.5-1.4a1.8,1.8,0,0,1-1.8-1.2,2,2,0,0,1,1-2.7l1.1-.4a1.9,1.9,0,0,1,2.6,1,2.1,2.1,0,0,1-1.1,2.7l-1,.4Zm8.7-3.2a2,2,0,0,1-2-1.4,2,2,0,0,1,1.4-2.5l1.2-.3a1.9,1.9,0,0,1,2.4,1.4,2,2,0,0,1-1.4,2.5l-1.1.3Zm28.5-1.6h-.3l-1.1-.2a2,2,0,1,1,.6-4l1.2.2a2.1,2.1,0,0,1,1.6,2.4A2,2,0,0,1,1436.6,211.9Zm-19.5-.3a2,2,0,0,1-2-1.7,2,2,0,0,1,1.7-2.3h1.2a1.9,1.9,0,0,1,2.2,1.7,2,2,0,0,1-1.7,2.3h-1.4Zm10.4-.6h-1.2a2,2,0,0,1,0-4h1.2a2,2,0,0,1,2,2A2.1,2.1,0,0,1,1427.5,211Zm24.4-.5a1.9,1.9,0,0,1-1.2-.4,2,2,0,0,1-.4-2.8,6.1,6.1,0,0,1,.7-1,2,2,0,0,1,2.8-.4,2.1,2.1,0,0,1,.4,2.9l-.7.9A2.1,2.1,0,0,1,1451.9,210.5Zm5.8-7.2a2.4,2.4,0,0,1-1.4-.5,1.9,1.9,0,0,1-.1-2.8l.8-.9a2,2,0,0,1,2.8-.2,2.1,2.1,0,0,1,.1,2.9l-.7.8A1.9,1.9,0,0,1,1457.7,203.3Zm6.4-6.6a2.3,2.3,0,0,1-1.5-.7,2,2,0,0,1,.1-2.8l.9-.8a2,2,0,1,1,2.7,2.9l-.8.8A2,2,0,0,1,1464.1,196.7Zm6.9-6.1a2.1,2.1,0,0,1-1.5-.8,1.9,1.9,0,0,1,.3-2.8l.9-.7a2,2,0,0,1,2.5,3.1l-.9.7A2.1,2.1,0,0,1,1471,190.6Zm7.5-5.5a2,2,0,0,1-1.7-.9,2,2,0,0,1,.5-2.8l1-.6a1.9,1.9,0,0,1,2.8.5,2,2,0,0,1-.6,2.8l-.9.6A1.5,1.5,0,0,1,1478.5,185.1Zm7.8-4.9a1.8,1.8,0,0,1-1.7-1,1.9,1.9,0,0,1,.7-2.7l1.1-.6a1.9,1.9,0,0,1,2.7.8,2,2,0,0,1-.8,2.7l-1,.6Zm8.2-4.2a2.2,2.2,0,0,1-1.8-1.2,2,2,0,0,1,1-2.7l1-.5a2.1,2.1,0,0,1,2.7,1,2,2,0,0,1-1,2.7l-1,.5Zm8.5-3.6a1.9,1.9,0,0,1-1.8-1.3,2,2,0,0,1,1.1-2.6l1.1-.4a2,2,0,0,1,2.6,1.2,1.9,1.9,0,0,1-1.2,2.5l-1.1.4Zm8.8-3a1.8,1.8,0,0,1-1.9-1.4,1.9,1.9,0,0,1,1.3-2.5l1.2-.3a2,2,0,0,1,2.4,1.3,2,2,0,0,1-1.3,2.5l-1.1.3Zm64.9-.4h-.5l-1.1-.3a2.1,2.1,0,0,1-1.4-2.5,2,2,0,0,1,2.5-1.4l1.1.3a2,2,0,0,1,1.4,2.5A2.1,2.1,0,0,1,1576.7,169Zm-56-1.8a2,2,0,0,1-1.9-1.6,1.9,1.9,0,0,1,1.5-2.4l1.2-.3a2.1,2.1,0,0,1,2.4,1.6,2.1,2.1,0,0,1-1.6,2.4l-1.1.2Zm47.1-.5h-.4l-1.2-.2a2,2,0,0,1-1.5-2.4,2,2,0,0,1,2.3-1.6l1.2.2a2,2,0,0,1,1.5,2.4A1.9,1.9,0,0,1,1567.8,166.7Zm-38-1.1a2,2,0,0,1-1.9-1.8,1.9,1.9,0,0,1,1.7-2.2l1.1-.2a2.1,2.1,0,0,1,2.3,1.8,2,2,0,0,1-1.8,2.2l-1.1.2Zm28.8-.3h-1.3a2,2,0,0,1,.4-4h1.2a2,2,0,0,1,1.7,2.3A2,2,0,0,1,1558.6,165.3Zm-19.6-.6a2.1,2.1,0,0,1-2-1.9,2,2,0,0,1,1.9-2.1h1.2a1.9,1.9,0,0,1,2.1,1.9,1.9,1.9,0,0,1-1.9,2.1H1539Zm10.4-.1h-1.2a1.9,1.9,0,0,1-1.9-2,2,2,0,0,1,2-2h1.2a2.1,2.1,0,0,1-.1,4.1Z"/><path class="cls-1" d="M1480.6,345.8a2,2,0,0,1-.3-4h.6a2,2,0,0,1,.6,4h-.9Z"/><path class="cls-1" d="M1594.4,470.9c-2.7,1.2-4,3.4-5.9,5.7l-7.5,9.2c-4.4,5.6-10,11.4-13.2,17.8-.3.8.7,1.7,1.4,1.1,5.4-4.8,9.4-11.6,13.8-17.3l7.4-9.3c1.8-2.3,3.7-4,4.3-6.9a.2.2,0,0,0-.3-.3Z"/><path class="cls-1" d="M1600.1,492.3c-5.2,1.7-10.3,4-15.4,5.9s-10.6,3.2-15.6,5.3c-1,.5-.8,2.2.4,2,5.5-1,10.8-3.1,16-5a118.7,118.7,0,0,0,15.6-6.4c1-.6,0-2.1-1-1.8Z"/><path class="cls-1" d="M1567.9,505.1c5.4,3.4,12,5.4,18,7.5s12.2,4.7,18.6,6.1a1,1,0,0,0,.5-1.9c-6.2-2.6-12.8-4.3-19.1-6.7s-11.5-5-17.4-6.3c-.7-.1-1.2.9-.6,1.3Z"/><path class="cls-1" d="M1696.1,556c-4-2.1-8.7-2.3-13.1-2.4-6.3-.1-12.5-.4-18.7-1.1l-38.7-4.2-8.9-1c-3.9-.4-5.8.3-6.2-3.9s-1.5-10.9-2.5-16.2c-2.3-11.4-4.5-22.5-5.7-34.1,0-.9-1.6-1-1.7,0-.5,18.4,6.8,36.4,7.8,54.8a1.3,1.3,0,0,0,1,1.1l44.6,4.8c7.1.8,14.1,1.7,21.2,2.1s13.3,0,20,2a1.1,1.1,0,0,0,.9-1.9Z"/><path class="cls-1" d="M1601,494.5c16,9.5,31.3,19.8,46.5,30.5l22.6,16c7.3,5.1,14.5,10.9,22.6,14.7,0,0,.1,0,0-.1-6.9-6.9-15.7-12.3-23.7-17.9l-22.6-16.1c-14.4-10.1-28.8-21.1-44.6-28.8-1.1-.6-1.8,1.1-.8,1.7Z"/><path class="cls-1" d="M1578.1,434.8v-.9a.6.6,0,1,0-1.1.1c1.6,6.5,5.5,12.7,8.3,18.8s5.9,12.5,8.8,18.7c.6,1.4,2.9.6,2.2-.8-3-6.6-6-13.1-9.1-19.6s-5.2-12.5-9.2-17.7l-.8.8.8.6Z"/><path class="cls-1" d="M1593.6,471c7.2,7.8,16.3,14.5,24.4,21.5l26.1,22.3,25.3,21.7c8.4,7.2,16.6,14.6,24.8,21.9.3.3.8-.1.5-.4-6-8-14.2-14.6-21.7-21.1l-26-22.4-25.3-21.7c-8.9-7.6-17.5-16.3-27.1-22.8-.6-.4-1.6.3-1,1Z"/><path class="cls-1" d="M1577.6,433.7c18.6,21,38.8,40.8,58.2,61.1s39,41,58.6,61.4l.8-1.8-1.9-.3a.7.7,0,0,0-.4,1.3l1.7.9c.9.4,1.9-.8,1.2-1.5-19-20.1-38.3-40.1-57.4-60.1s-39-42.2-59.6-62.2c-.7-.7-1.9.5-1.2,1.2Z"/><path class="cls-1" d="M1558,498.2a2.2,2.2,0,0,1-.3-1.6,2,2,0,0,1,2.3-1.2l.5.2a1.8,1.8,0,0,1,1.1,2.2,1.7,1.7,0,0,1-2.2,1.2l-.5-.2A1.5,1.5,0,0,1,1558,498.2Z"/><path class="cls-1" d="M1534.3,703.3a1.7,1.7,0,0,1,0-2.1l.7-.8a1.8,1.8,0,0,1,2.5-.3,1.9,1.9,0,0,1,.3,2.5l-.7.8a1.8,1.8,0,0,1-2.5.3Zm5.1-6.4a1.8,1.8,0,0,1,.1-2.1l.7-.8a1.8,1.8,0,0,1,2.5-.3,2,2,0,0,1,.2,2.6l-.7.7a1.8,1.8,0,0,1-2.5.3Zm5.3-6.3a1.5,1.5,0,0,1,.1-2.1l.6-.8a1.8,1.8,0,0,1,2.8,2.2l-.7.8a1.8,1.8,0,0,1-2.5.3Zm5.1-6.4a1.7,1.7,0,0,1,0-2.1l.6-.8a1.8,1.8,0,0,1,2.5-.4,1.9,1.9,0,0,1,.4,2.5l-.7.8a1.8,1.8,0,0,1-2.5.4Zm-74.3-112.4a1.6,1.6,0,0,1,.4-2.4,1.8,1.8,0,0,1,2.5.3l.6.8a1.8,1.8,0,1,1-2.8,2.2l-.7-.9Zm-3.8-6.1a.3.3,0,0,1-.1-.2,4.1,4.1,0,0,1-.5-.9,1.8,1.8,0,0,1,3.2-1.6l.4.9a1.8,1.8,0,0,1-.7,2.4A1.9,1.9,0,0,1,1471.7,565.7Zm9.3,12.2a2,2,0,0,1,.1-2.3,1.9,1.9,0,0,1,2.6,0l.7.6a1.8,1.8,0,0,1-2.4,2.7l-.8-.7Zm73.5,99.6a1.8,1.8,0,0,1,0-2,4.1,4.1,0,0,0,.5-.9,1.9,1.9,0,0,1,2.5-.5,1.8,1.8,0,0,1,.5,2.5l-.5.9a1.9,1.9,0,0,1-2.5.5Zm-85.7-119.4-.3-.6a3.6,3.6,0,0,1-.2-1,1.8,1.8,0,0,1,1.3-2.2,1.8,1.8,0,0,1,2.1,1.4l.3.9a1.9,1.9,0,0,1-1.3,2.2A1.8,1.8,0,0,1,1468.8,558.1Zm18.6,25a1.8,1.8,0,0,1,2.4-2.5l.9.5a1.8,1.8,0,0,1,.4,2.5,1.8,1.8,0,0,1-2.4.5l-.9-.6C1487.6,583.4,1487.5,583.2,1487.4,583.1Zm6.9,4.3a1.8,1.8,0,0,1-.1-1.9,1.7,1.7,0,0,1,2.4-.7l.9.5a1.7,1.7,0,0,1,.7,2.4,1.7,1.7,0,0,1-2.4.7l-.9-.5ZM1467.5,550a1.6,1.6,0,0,1-.3-.9,4.1,4.1,0,0,0-.1-1.1,1.8,1.8,0,0,1,1.8-1.8,1.7,1.7,0,0,1,1.8,1.7v1a1.8,1.8,0,0,1-3.2,1.1Zm91.3,120.5a1.7,1.7,0,0,1-.1-1.9,4.1,4.1,0,0,1,.5-.9,1.8,1.8,0,0,1,2.4-.7,1.8,1.8,0,0,1,.7,2.4l-.5.9a1.7,1.7,0,0,1-2.4.7A1,1,0,0,1,1558.8,670.5Zm-57.2-79.3a1.9,1.9,0,0,1-.2-1.8,1.9,1.9,0,0,1,2.4-.9l.9.4a1.8,1.8,0,1,1-1.5,3.3l-.9-.5A1.8,1.8,0,0,1,1501.6,591.2Zm-33.8-49.4a1.7,1.7,0,0,1-.3-1.2c0-.4.1-.7.1-1.1a1.8,1.8,0,0,1,2-1.5,1.7,1.7,0,0,1,1.5,2,3.4,3.4,0,0,1-.1,1,1.7,1.7,0,0,1-2,1.5A1.5,1.5,0,0,1,1467.8,541.8Zm41.3,52.7a2.1,2.1,0,0,1-.2-1.7,1.7,1.7,0,0,1,2.3-1l1,.4a1.8,1.8,0,0,1-1.4,3.3l-.9-.4A2.4,2.4,0,0,1,1509.1,594.5Zm53.2,68.6a2,2,0,0,1-.2-1.7,3.6,3.6,0,0,0,.4-.9,1.7,1.7,0,0,1,2.3-1,1.7,1.7,0,0,1,1,2.3,3.6,3.6,0,0,1-.4.9,1.7,1.7,0,0,1-2.3,1A1.6,1.6,0,0,1,1562.3,663.1Zm-92.8-129.3a2.1,2.1,0,0,1-.3-1.6l.3-1a1.8,1.8,0,0,1,2.3-1.1,1.8,1.8,0,0,1,1.1,2.2l-.3,1a1.8,1.8,0,0,1-2.2,1.2A2.2,2.2,0,0,1,1469.5,533.8Zm47.2,63.8a2,2,0,0,1-.2-1.7,1.8,1.8,0,0,1,2.3-1l1,.4a1.8,1.8,0,0,1,1,2.3,1.9,1.9,0,0,1-2.4,1l-.9-.4A1.6,1.6,0,0,1,1516.7,597.6Zm7.6,3.1a2.2,2.2,0,0,1-.2-1.8,1.8,1.8,0,0,1,2.4-.9l.9.4a1.7,1.7,0,0,1,.9,2.3,1.8,1.8,0,0,1-2.3,1l-.9-.4Zm40.5,54.6a1.7,1.7,0,0,1-.2-1.4,3,3,0,0,1,.2-1,1.7,1.7,0,0,1,2.1-1.4,1.9,1.9,0,0,1,1.4,2.1l-.3,1.1a1.8,1.8,0,0,1-2.1,1.3A2.1,2.1,0,0,1,1564.8,655.3Zm-92.4-129.2a1.9,1.9,0,0,1-.2-1.8l.5-.9a1.8,1.8,0,0,1,3.2,1.5,3.6,3.6,0,0,0-.4.9,1.9,1.9,0,0,1-2.4.9A1.3,1.3,0,0,1,1472.4,526.1Zm59.4,77.9a1.7,1.7,0,0,1-.2-1.8,1.8,1.8,0,0,1,2.4-.8l1,.4a1.9,1.9,0,0,1,.8,2.4,1.7,1.7,0,0,1-2.4.8l-.9-.4A1.3,1.3,0,0,1,1531.8,604Zm34.1,43.2a2,2,0,0,1-.3-1.1v-1a1.7,1.7,0,0,1,1.8-1.7,1.8,1.8,0,0,1,1.8,1.7v1.1a1.8,1.8,0,0,1-1.9,1.7A1.7,1.7,0,0,1,1565.9,647.2Zm-26.8-39.4a1.7,1.7,0,0,1-.1-1.9,1.8,1.8,0,0,1,2.4-.6l.9.5a1.8,1.8,0,0,1,.6,2.4,1.7,1.7,0,0,1-2.4.6l-.9-.5ZM1476.4,519a1.8,1.8,0,0,1,0-2l.6-.9a1.9,1.9,0,0,1,2.5-.5,1.8,1.8,0,0,1,.4,2.5,5.6,5.6,0,0,1-.5.8,1.7,1.7,0,0,1-2.5.5Zm88.9,120a.9.9,0,0,1-.3-.7,2.9,2.9,0,0,1-.2-.9,1.7,1.7,0,1,1,3.4-.8l.3,1.1a1.8,1.8,0,0,1-1.4,2A1.6,1.6,0,0,1,1565.3,639ZM1546,612.2a1.7,1.7,0,0,1,0-2,1.9,1.9,0,0,1,2.5-.5,2.7,2.7,0,0,0,.8.7,1.7,1.7,0,0,1,.4,2.4,1.8,1.8,0,0,1-2.5.4l-.8-.5Zm6.4,5.2a1.8,1.8,0,0,1,.1-2.3,1.8,1.8,0,0,1,2.5-.1l.8.8a1.7,1.7,0,1,1-2.4,2.5l-.8-.7C1552.5,617.6,1552.5,617.5,1552.4,617.4Zm10.4,13.9a.5.5,0,0,1-.2-.4,2,2,0,0,1-.4-.8,1.7,1.7,0,0,1,.8-2.4,1.8,1.8,0,0,1,2.4.8,10.4,10.4,0,0,1,.4,1,1.7,1.7,0,0,1-.9,2.3A1.7,1.7,0,0,1,1562.8,631.3Zm-4.8-7.9a1.9,1.9,0,0,1,.3-2.5,1.8,1.8,0,0,1,2.5.4l.7.8a1.9,1.9,0,0,1-.4,2.5,1.8,1.8,0,0,1-2.5-.4l-.6-.8Zm-76.5-110.9a1.7,1.7,0,0,1,.1-2.2l.8-.8a1.8,1.8,0,0,1,2.5,2.5l-.6.7a1.9,1.9,0,0,1-2.6.1Zm6-5.6a1.7,1.7,0,0,1,.3-2.4l.9-.6a1.8,1.8,0,0,1,2.5.3,1.9,1.9,0,0,1-.4,2.5l-.8.6a1.8,1.8,0,0,1-2.5-.3Zm6.8-4.5c0-.1-.1-.1-.1-.2a1.7,1.7,0,0,1,.7-2.4l.9-.5a1.7,1.7,0,0,1,2.4.7,1.8,1.8,0,0,1-.7,2.4l-.9.5A1.8,1.8,0,0,1,1494.3,502.4Zm7.4-3.6a.5.5,0,0,1-.2-.4,1.7,1.7,0,0,1,.9-2.3l1-.4a1.8,1.8,0,0,1,2.3,1,1.7,1.7,0,0,1-1,2.3l-.9.4A1.7,1.7,0,0,1,1501.7,498.8Zm7.7-2.6a1.4,1.4,0,0,1-.2-.6,1.8,1.8,0,0,1,1.2-2.2l1-.2a1.8,1.8,0,1,1,.9,3.4l-1,.3A1.8,1.8,0,0,1,1509.4,496.2Zm8.1-1.7a.9.9,0,0,1-.3-.7,1.8,1.8,0,0,1,1.4-2.1h1.1a1.7,1.7,0,0,1,2,1.5,1.8,1.8,0,0,1-1.5,2l-1,.2A1.6,1.6,0,0,1,1517.5,494.5Zm8.1-.7a1.9,1.9,0,0,1-.3-1,1.9,1.9,0,0,1,1.7-1.9h1a1.9,1.9,0,0,1,1.9,1.7,1.9,1.9,0,0,1-1.7,1.9h-1A2.2,2.2,0,0,1,1525.6,493.8Zm8.2,0a2.1,2.1,0,0,1-.3-1.2,1.8,1.8,0,0,1,1.9-1.6h1a1.8,1.8,0,0,1-.2,3.6h-1A1.7,1.7,0,0,1,1533.8,493.8Zm8.2.8a1.6,1.6,0,0,1-.3-1.3,1.7,1.7,0,0,1,2-1.5h1a1.8,1.8,0,0,1,1.5,2,1.7,1.7,0,0,1-2,1.5h-1A2.4,2.4,0,0,1,1542,494.6Zm8.1,1.4a1.7,1.7,0,0,1-.3-1.4,1.7,1.7,0,0,1,2.1-1.3l1,.2a1.7,1.7,0,0,1,1.3,2.1,1.7,1.7,0,0,1-2.1,1.4l-1-.3A1.4,1.4,0,0,1,1550.1,496Z"/><path class="cls-1" d="M1529.7,709.6a1.8,1.8,0,0,1,0-2.1l.3-.4a1.7,1.7,0,0,1,2.5-.4,1.6,1.6,0,0,1,.4,2.4l-.3.5a1.8,1.8,0,0,1-2.5.4Z"/><path class="cls-1" d="M434.4,2.2c7.1,10.3,15.9,19.6,23.8,29.2s18.2,20.7,24.9,32.2c3.7,6.3,12-.1,17-2.3A319,319,0,0,0,535.4,43a1.3,1.3,0,0,0-1.4-2.3,327.3,327.3,0,0,1-30.4,16.1l-7.9,3.5c-1.7.7-5.8,3.3-7.6,3.1s-6.9-7.5-8.7-9.8L458.5,28C451.1,19.1,444,9.3,435.7,1.1c-.6-.6-1.9.3-1.3,1.1Z"/><path class="cls-1" d="M434.5,2.2c6.9,4.3,15.4,7,22.9,10.1l25,10.2c16.8,6.8,33.5,13.4,50.4,19.8,1.6.6,2.3-2,.7-2.6q-24.7-9.5-49.3-19.3l-24-9.8c-8.1-3.4-16.5-8-25-10.1a.9.9,0,0,0-.7,1.7Z"/><path class="cls-1" d="M436.6,2c8.6,4.2,18.8,5.8,27.8,9.1s20,7.9,30.1,11.8c18.6,7.2,38.7,16.3,58.7,18.7,1.6.2,1.8-2.3.4-2.8-9.9-3.1-20.1-5.2-30-8.4S504,23.5,494.2,19.8s-19.5-7.1-29.3-10.5-18.7-7.5-28.1-7.9a.3.3,0,0,0-.2.6Z"/><path class="cls-1" d="M535.5,42.4c-.8,4.9,1.2,10,2.3,14.8s2.6,12.7,4,18.9c.4,1.8,3,1,2.7-.7-1-6-2.4-11.9-3.7-17.8s-1.7-11.1-4.8-15.3a.3.3,0,0,0-.5.1Z"/><path class="cls-1" d="M552.5,40c-1.6,6-2.7,12-4.8,18s-4.5,11.8-5.8,18c-.4,1.9,2.5,2.7,2.9.8,2.5-11.8,11-24.5,9.3-36.8-.1-.9-1.4-.7-1.6,0Z"/><path class="cls-1" d="M511.2,54.6c4.4,3.9,9.9,6.8,14.7,10.3l8.3,6,4.2,3,1.7,1.2c.7.5,1.3,0,1.7-1.3a1,1,0,0,0-.9.3v.2a.8.8,0,0,0,.1,1.1h.1a1.2,1.2,0,0,0,2-.5v-.3a1.5,1.5,0,0,0-.7-1.6c-10.1-5.6-19.1-16.7-30.6-19.6-.6-.1-1.2.7-.7,1.1Z"/><path class="cls-1" d="M434.9.9C447.5,5.7,461.9,8,475,11l42,9.8c28,6.5,56,13,84.1,19.2,2.2.5,3-2.9.9-3.2l-1.8-.3c-1.4-.2-2.6,1.7-1.1,2.5l1.6.9c.4-1.1.9-2.1,1.3-3.1-28.4-6.6-56.8-13-85.2-19.4L474.7,8.1C461.8,5.2,448.2,1.1,435,0a.5.5,0,0,0-.1.9Z"/><path class="cls-1" d="M551.9,40.7c8.3,1,17.4-.7,25.7-.8s17.2.1,25.8.3a1.6,1.6,0,0,0,0-3.1c-8.9-.5-17.9-.3-26.9-.1s-17.1-.2-24.8,2.1a.8.8,0,0,0,.2,1.6Z"/><path class="cls-1" d="M554.7,84.3l-.7-.2-.5-.2a1.9,1.9,0,0,1-1.2-2.5,2,2,0,0,1,2.6-1.2l.5.2a1.9,1.9,0,0,1,1.2,2.5A2,2,0,0,1,554.7,84.3Z"/><path class="cls-1" d="M630,311.1a1.8,1.8,0,0,1-1.8-1.2c-.2-.3-.3-.7-.5-1a2.1,2.1,0,0,1,1.1-2.7,2,2,0,0,1,2.6,1,11.7,11.7,0,0,0,.5,1.1,2.1,2.1,0,0,1-1.1,2.7Zm-4.1-8.2a2.2,2.2,0,0,1-1.8-1l-.5-1a1.9,1.9,0,0,1,.6-2.7,2.1,2.1,0,0,1,2.8.6l.6,1.1a1.9,1.9,0,0,1-.7,2.7A1.9,1.9,0,0,1,625.9,302.9Zm-54.8-5.6a2,2,0,0,1-2-1.9,2.1,2.1,0,0,1,2-2.1h1.1a2,2,0,1,1,.2,4h-1.3Zm-7.9-1.3-.7-.2-1.1-.4a2,2,0,0,1-1-2.7,1.9,1.9,0,0,1,2.6-1l1,.4a2,2,0,0,1,1.1,2.6A2.1,2.1,0,0,1,563.2,296Zm17-.4a2,2,0,0,1-.7-3.9l1-.4a2,2,0,0,1,2.6,1.1,2.1,2.1,0,0,1-1.1,2.7l-1.1.4Zm40.5-.4a2,2,0,0,1-1.6-.7l-.7-.9a2,2,0,1,1,3.2-2.5l.7.9a2,2,0,0,1-.4,2.8A1.7,1.7,0,0,1,620.7,295.2Zm-32.4-3.9a2.1,2.1,0,0,1-1.6-.8,2,2,0,0,1,.5-2.8l.8-.7a2.1,2.1,0,0,1,2.9.4,2,2,0,0,1-.4,2.8l-1,.7A1.9,1.9,0,0,1,588.3,291.3Zm-32.3-.9a2.1,2.1,0,0,1-1.6-.8l-.7-1.1a2,2,0,1,1,3.3-2.1l.6.8a1.9,1.9,0,0,1-.4,2.8A1.9,1.9,0,0,1,556,290.4Zm58.6-2.1a2,2,0,0,1-1.4-.6l-.8-.8a2,2,0,0,1-.1-2.8,2.2,2.2,0,0,1,2.9-.1l.8.9a1.9,1.9,0,0,1,0,2.8A2,2,0,0,1,614.6,288.3ZM595.1,285a2,2,0,0,1-1.3-.4,2.1,2.1,0,0,1-.3-2.9l.7-.8a2,2,0,0,1,3.2,2.4l-.8,1A1.9,1.9,0,0,1,595.1,285Zm12.6-2.9a1.7,1.7,0,0,1-1.2-.4l-.9-.7a1.9,1.9,0,0,1-.4-2.8,2,2,0,0,1,2.8-.4l.9.8a1.9,1.9,0,0,1,.4,2.8A2,2,0,0,1,607.7,282.1Zm-54.8-.2a2,2,0,0,1-2-2v-1.3a2,2,0,1,1,4,.2v1a2.2,2.2,0,0,1-2,2.1Zm47.2-4.6-.9-.2a2.6,2.6,0,0,1-.9-.9c-.1-.1-.2-.1-.2-.2a1.9,1.9,0,0,1-.7-2.7,1.9,1.9,0,0,1,2.3-.9,2,2,0,0,1,1.7,0,2,2,0,0,1,1,2.7,11.7,11.7,0,0,0-.5,1.1A2.1,2.1,0,0,1,600.1,277.3ZM556,273.4a2.4,2.4,0,0,1-1.4-.5,2.1,2.1,0,0,1-.1-2.9l.9-.9a2,2,0,0,1,2.8,2.9,4.6,4.6,0,0,0-.7.7A1.9,1.9,0,0,1,556,273.4Zm35.9-.7-.8-.2-1-.4a2,2,0,0,1-1.1-2.7,2,2,0,0,1,2.6-1.1l1.1.5a2,2,0,0,1,1,2.7A2,2,0,0,1,591.9,272.7Zm-8.7-3.2h-.6l-1-.3a2.1,2.1,0,0,1-1.5-2.5,2,2,0,0,1,2.5-1.4l1.1.3a2,2,0,0,1,1.4,2.5A1.8,1.8,0,0,1,583.2,269.5Zm-19.4-.7a1.9,1.9,0,0,1-1.9-1.5,2,2,0,0,1,1.4-2.5l1.2-.3a2,2,0,0,1,2.4,1.5,2,2,0,0,1-1.5,2.4l-1,.3Zm39.5-.2h-.5a2,2,0,0,1-1.4-2.5l.3-1.1a2,2,0,0,1,2.4-1.5,2.1,2.1,0,0,1,1.5,2.5l-.3,1.1A2.1,2.1,0,0,1,603.3,268.6Zm-29.2-.8h-1.2a2,2,0,0,1-1.9-2.1,2,2,0,0,1,2.1-2h1.2a2,2,0,0,1,1.8,2.2A1.9,1.9,0,0,1,574.1,267.8Zm30.8-8.3h-.1a2,2,0,0,1-1.9-2.2,3.7,3.7,0,0,0,.1-1.1,2,2,0,0,1,2.2-1.8,1.9,1.9,0,0,1,1.8,2.1,4.9,4.9,0,0,1-.1,1.2A1.9,1.9,0,0,1,604.9,259.5Zm.1-9.2a2.1,2.1,0,0,1-2-1.9,4.5,4.5,0,0,0-.1-1.1,2,2,0,1,1,4-.3,4.5,4.5,0,0,1,.1,1.1,2,2,0,0,1-1.8,2.2Zm-1.3-9.1a2,2,0,0,1-2-1.6l-.3-1.1a2,2,0,0,1,1.5-2.4,1.9,1.9,0,0,1,2.4,1.4l.3,1.2a1.9,1.9,0,0,1-1.5,2.4Zm-2.8-8.8a2.1,2.1,0,0,1-1.9-1.3l-.4-1a2,2,0,0,1,1-2.7,2.1,2.1,0,0,1,2.7,1.1c.1.4.3.7.4,1.1a1.9,1.9,0,0,1-1.1,2.6Zm-4.2-8.2a1.9,1.9,0,0,1-1.7-1l-.6-.9a2,2,0,1,1,3.3-2.2l.7,1a1.9,1.9,0,0,1-.7,2.7A1.4,1.4,0,0,1,596.7,224.2ZM534,221.6h-1.2a2,2,0,0,1-2-2.1,1.9,1.9,0,0,1,2-1.9H534a2,2,0,0,1,0,4Zm8.1,0a2.2,2.2,0,0,1-2.1-2,2,2,0,0,1,2-2h1.2a1.9,1.9,0,0,1,2,1.9,2,2,0,0,1-1.9,2.1Zm-17.4-.2h-1.2a2,2,0,1,1,.2-4h1.1a2.1,2.1,0,0,1-.1,4.1Zm26.6-.1a2.1,2.1,0,0,1-2-1.9,2.1,2.1,0,0,1,1.9-2.2h1.1a2,2,0,0,1,2.2,1.8,2.1,2.1,0,0,1-1.9,2.2h-1.3Zm-35.8-.4h-1.3a2,2,0,1,1,.3-4h1.1a2,2,0,0,1,1.9,2.1A2.1,2.1,0,0,1,515.5,220.9Zm45-.4a2,2,0,0,1-2-1.8,2.2,2.2,0,0,1,1.8-2.3h1.1a2,2,0,0,1,2.2,1.8,1.9,1.9,0,0,1-1.7,2.2h-1.4Zm-54.2-.6H506l-1.2-.3a2,2,0,0,1-1.6-2.3,2.1,2.1,0,0,1,2.4-1.6l1.1.2a2,2,0,0,1,1.6,2.3A2,2,0,0,1,506.3,219.9Zm63.3-.9a1.8,1.8,0,0,1-1.9-1.6,1.9,1.9,0,0,1,1.5-2.3l1.2-.3a2,2,0,0,1,2.3,1.6,1.9,1.9,0,0,1-1.5,2.4l-1.2.2Zm-72.2-1.6h-.7l-1.2-.5a2,2,0,1,1,1.7-3.7l1,.4a2.1,2.1,0,0,1,1.1,2.7A2.1,2.1,0,0,1,497.4,217.4Zm81.2-.5a1.9,1.9,0,0,1-1.9-1.5,2.1,2.1,0,0,1,1.3-2.5l1.1-.3a2,2,0,0,1,2.5,1.4,1.9,1.9,0,0,1-1.3,2.5l-1.1.3Zm12.6-.2a1.8,1.8,0,0,1-1.5-.7l-.8-.9a1.8,1.8,0,0,1-.4-1.6h-.4a1.9,1.9,0,0,1-2.6-1,2,2,0,0,1,1-2.7l1.1-.4a2,2,0,0,1,2.6,1,2,2,0,0,1,.1,1.3,2.2,2.2,0,0,1,1.7.7l.8.9a1.9,1.9,0,0,1-.3,2.8A2.1,2.1,0,0,1,591.2,216.7Zm-101.7-4.1a2.2,2.2,0,0,1-1.3-.4l-.9-.9a2,2,0,0,1-.1-2.8,2.1,2.1,0,0,1,2.9-.1l.8.7a2,2,0,0,1,.2,2.8A2,2,0,0,1,489.5,212.6Zm95.4-2.6a2,2,0,0,1-1.4-.6l-.8-.7a2,2,0,1,1,2.7-3l.9.8a2.1,2.1,0,0,1,0,2.9A2,2,0,0,1,584.9,210Zm10.7-.4a2.1,2.1,0,0,1-1.8-.9,2.2,2.2,0,0,1,.7-2.8l1-.6a1.9,1.9,0,0,1,2.7.7,2,2,0,0,1-.6,2.7l-1,.7Zm-111.8-4.1a2.1,2.1,0,0,1-1.8-1.1,6.1,6.1,0,0,1-.5-1.2,2,2,0,0,1,3.6-1.6c.2.3.3.7.5,1a2,2,0,0,1-.9,2.7Zm119.3-1.2a2.4,2.4,0,0,1-1.6-.7,2.1,2.1,0,0,1,.3-2.9l.8-.7a2,2,0,0,1,2.7,3l-.9.8A2.4,2.4,0,0,1,603.1,204.3Zm-25.3-.3a1.9,1.9,0,0,1-1.2-.4l-.9-.7a2,2,0,0,1,2.4-3.2l.9.7a2,2,0,0,1,.4,2.8A2.1,2.1,0,0,1,577.8,204Zm-7.6-5.2a1.4,1.4,0,0,1-1-.4l-1-.6a1.9,1.9,0,0,1-.7-2.7,2,2,0,0,1,2.8-.7l1,.6a2.1,2.1,0,0,1-1.1,3.8Zm39.3-1.1a1.5,1.5,0,0,1-1.2-.5,1.9,1.9,0,0,1-.3-2.8l.7-.8a2,2,0,0,1,2.8-.4,2.2,2.2,0,0,1,.4,2.9l-.8.9A2,2,0,0,1,609.5,197.7Zm-127.7-1.1h-.1a2.1,2.1,0,0,1-1.9-2.2c0-.4.1-.8.1-1.3a2.1,2.1,0,0,1,2.3-1.7,2,2,0,0,1,1.7,2.3,3.8,3.8,0,0,1-.1,1A2,2,0,0,1,481.8,196.6Zm80.4-2.5-.9-.2-1-.5a2.1,2.1,0,0,1-.9-2.8,2.1,2.1,0,0,1,2.7-.8l1.1.5a2,2,0,0,1-1,3.8Zm52.6-4-1-.2a2.1,2.1,0,0,1-.8-2.8,3.1,3.1,0,0,0,.5-1,2.2,2.2,0,0,1,2.8-.8,2.1,2.1,0,0,1,.8,2.7l-.6,1.1A1.9,1.9,0,0,1,614.8,190.1Zm-60.9-.1h-.8l-1.1-.5a2,2,0,1,1,1.7-3.7l1.1.5a2.1,2.1,0,0,1,1,2.7A2.1,2.1,0,0,1,553.9,190Zm-69.1-2.1a2,2,0,0,1-1.1-.3,2,2,0,0,1-.6-2.8l.7-1a2,2,0,1,1,3.2,2.4l-.6.8A1.8,1.8,0,0,1,484.8,187.9Zm60.6-1.5h-.7l-1.1-.4a2,2,0,0,1-1.1-2.6,2,2,0,0,1,2.6-1.2l1.1.4a2.1,2.1,0,0,1,1.1,2.7A2.1,2.1,0,0,1,545.4,186.4Zm-8.6-3.2h-.7l-1.1-.4a2,2,0,0,1-1.2-2.6,1.9,1.9,0,0,1,2.5-1.2l1.1.4a2,2,0,0,1-.6,3.9Zm81.7-1.5h-.6a2.1,2.1,0,0,1-1.3-2.6,4.2,4.2,0,0,1,.4-1,2,2,0,0,1,2.5-1.4,2.2,2.2,0,0,1,1.3,2.6c-.1.4-.3.7-.4,1.1A2.1,2.1,0,0,1,618.5,181.7Zm-127.3-.3a1.9,1.9,0,0,1-1.6-.9,2.1,2.1,0,0,1,.5-2.8l1-.6a2.1,2.1,0,0,1,2.8.6,2.1,2.1,0,0,1-.6,2.8l-.9.6A2.7,2.7,0,0,1,491.2,181.4Zm36.8-1.1h-.6l-1.1-.4a1.9,1.9,0,0,1-1.3-2.5,2,2,0,0,1,2.5-1.3l1.1.3a2.2,2.2,0,0,1,1.3,2.6A2.1,2.1,0,0,1,528,180.3Zm-8.9-2.4h-.5l-1.1-.2a2,2,0,0,1-1.5-2.4,2,2,0,0,1,2.3-1.6l1.2.3a1.9,1.9,0,0,1,1.5,2.4A2,2,0,0,1,519.1,177.9Zm-19.5-.3a1.9,1.9,0,0,1-1.9-1.5,2,2,0,0,1,1.4-2.5l1.2-.3a2.1,2.1,0,0,1,2.4,1.6,2.2,2.2,0,0,1-1.5,2.4l-1.1.2Zm10.3-1h-1.2a2.1,2.1,0,0,1,.1-4.1H510a1.9,1.9,0,0,1,1.9,2.1A1.9,1.9,0,0,1,509.9,176.6Zm110.9-3.9h-.4a2,2,0,0,1-1.6-2.3c0-.4.1-.8.1-1.1a2,2,0,0,1,2.3-1.7,2,2,0,0,1,1.7,2.3,4.3,4.3,0,0,1-.2,1.1A1.9,1.9,0,0,1,620.8,172.7Zm.8-9.2h0a1.9,1.9,0,0,1-2-2v-1.2a2,2,0,0,1,4,0v1.2A2,2,0,0,1,621.6,163.5Zm-.5-9.2a2,2,0,0,1-2-1.8c-.1-.3-.1-.7-.2-1.1a2.2,2.2,0,0,1,1.7-2.3,2.1,2.1,0,0,1,2.3,1.8c.1.3.1.7.2,1.1a2.2,2.2,0,0,1-1.8,2.3Zm-1.8-9.1a1.9,1.9,0,0,1-1.9-1.5l-.3-1.1a1.9,1.9,0,0,1,1.4-2.4,2,2,0,0,1,2.5,1.4l.3,1.1a2.1,2.1,0,0,1-1.5,2.5Zm-2.9-8.7a1.9,1.9,0,0,1-1.8-1.3c-.2-.3-.3-.7-.5-1a2.1,2.1,0,0,1,1.1-2.7,2,2,0,0,1,2.6,1.1l.5,1.1a2,2,0,0,1-1.1,2.6Zm-4-8.3a2.2,2.2,0,0,1-1.8-1l-.5-1a2.1,2.1,0,0,1,.6-2.8,2.2,2.2,0,0,1,2.8.7l.6,1a2.1,2.1,0,0,1-.7,2.8A1.9,1.9,0,0,1,612.4,128.2Zm-5.1-7.7a1.9,1.9,0,0,1-1.6-.8l-.7-.9a2,2,0,1,1,3.2-2.5l.7.9a2.2,2.2,0,0,1-.4,2.9A2.8,2.8,0,0,1,607.3,120.5Zm-6-7.1a1.7,1.7,0,0,1-1.4-.7,3,3,0,0,1-.8-.8,1.9,1.9,0,0,1,0-2.8,2.1,2.1,0,0,1,2.9,0l.8.9a1.9,1.9,0,0,1-.1,2.8A2,2,0,0,1,601.3,113.4Zm-6.6-6.4a1.9,1.9,0,0,1-1.3-.5l-.9-.8a2,2,0,0,1-.2-2.8,1.9,1.9,0,0,1,2.8-.2l.9.7a2.2,2.2,0,0,1,.2,2.9A2.3,2.3,0,0,1,594.7,107Zm-7.2-5.8a1.6,1.6,0,0,1-1.2-.4l-1-.6a2,2,0,0,1-.4-2.8,1.9,1.9,0,0,1,2.8-.5l.9.7a2,2,0,0,1,.5,2.8A2.1,2.1,0,0,1,587.5,101.2Zm-7.7-5.1a2,2,0,0,1-1.1-.3l-1-.6a2,2,0,1,1,2.1-3.5l1,.7a1.9,1.9,0,0,1,.7,2.7A2.2,2.2,0,0,1,579.8,96.1Zm-8.1-4.5-.9-.2-1-.6a2,2,0,0,1,1.8-3.6l1,.6a2,2,0,0,1,.9,2.7A2.1,2.1,0,0,1,571.7,91.6Zm-8.4-4h-.8l-1-.5a2,2,0,0,1,1.5-3.7l1.1.5a2,2,0,0,1,1.1,2.6A2.1,2.1,0,0,1,563.3,87.6Z"/><path class="cls-1" d="M632.9,319.5A2.1,2.1,0,0,1,631,318v-.5a2,2,0,0,1,1.3-2.5,2,2,0,0,1,2.5,1.4l.2.5a2,2,0,0,1-1.4,2.5Z"/><path class="cls-1" d="M228.5,291.9c.1,9.3,1.4,18.7,1.7,28s.7,19.3,1.3,29c1.2,18.6,3.2,37,5.9,55.4a1.3,1.3,0,0,0,1.6.9l44-17.1c1.4-.6.8-3-.7-2.4l-44,17.1,1.5.9q-4.1-28.6-6.2-57.6c-.7-9.4-1.1-18.7-1.5-28.1s-.2-17.9-2.2-26.3a.7.7,0,0,0-1.4.2Z"/><path class="cls-1" d="M228.7,292.3c18.6,30.8,35.7,62.7,53,94.3.9,1.6,3.3.2,2.5-1.5-9.1-16.5-18.2-33.1-27.5-49.6-4.6-8.2-9.2-16.4-13.9-24.6-3.7-6.5-7.1-15-13.2-19.5-.6-.4-1.3.4-.9.9Z"/><path class="cls-1" d="M228.9,291.9c16.6,15.1,34.9,28.7,52.3,42.7l53.3,43,.6-2.4c-12.8,1.9-25.6,4.1-38.3,6.8l1.7.6q-17.2-22.8-34.1-45.9l-16.5-22.8c-5.3-7.4-10.3-15.3-16.2-22.3-.9-1-2.5.3-1.9,1.5,4.7,8,10.7,15.5,16.1,23l16.5,22.8c11.1,15.2,22.3,30.2,33.6,45.2a1.5,1.5,0,0,0,1.6.7c12.7-2.7,25.5-5,38.3-6.8a1.5,1.5,0,0,0,.6-2.4l-54.2-43.4c-17.3-13.9-34.3-28.6-52.4-41.5a.8.8,0,0,0-1,1.2Z"/><path class="cls-1" d="M281.8,385.8c.4,3,.9,5.9,1.4,8.9s.3,6.1,1.6,7.9,1.5.8,1.8,0h.1c.3-.7,0-1.6-.8-1.5,1-.1-1.9-14-2.3-15.5s-1.9-.7-1.8.3Z"/><path class="cls-1" d="M275.6,389.5c.2,2.6,2.2,4.7,3.6,6.6a71.8,71.8,0,0,0,5.4,6.7c.8,1,2.2-.4,1.4-1.4l-.2-.2a.8.8,0,0,0-.8-.1l-.2.2H286c-1.9-2.3-3.9-4.6-5.6-7s-2.4-4-4.3-5.1c-.2-.2-.6,0-.5.2Z"/><path class="cls-1" d="M297,382.9c-2.4,2.5-3.9,5.8-5.7,8.8l-6,10.2a.9.9,0,0,0,1.6.9c2-3.3,4.1-6.7,6-10.1s4-6,5-9.3a.5.5,0,0,0-.9-.5Z"/><path class="cls-1" d="M229.3,383.1Z"/><path class="cls-1" d="M358.7,460.1h-.2a1.6,1.6,0,0,1-1.7-1.6,1.7,1.7,0,0,1,1.7-1.7h.9a1.7,1.7,0,1,1,.1,3.3Zm-6.9-.3h-1.2a1.7,1.7,0,0,1,.4-3.3h1a1.7,1.7,0,0,1,1.5,1.9A1.8,1.8,0,0,1,351.8,459.8Zm14.3-.1a1.7,1.7,0,0,1-.2-3.4h.9a1.7,1.7,0,0,1,1.9,1.4,1.6,1.6,0,0,1-1.4,1.9l-1,.2Zm-21.9-1.2h-.3l-1-.2a1.7,1.7,0,0,1-1.2-2.1,1.7,1.7,0,0,1,2-1.2l.9.2a1.9,1.9,0,0,1,1.3,2.1A1.8,1.8,0,0,1,344.2,458.5Zm29.4-.4a1.6,1.6,0,0,1-1.6-1.2,1.6,1.6,0,0,1,1.2-2l.9-.3a1.6,1.6,0,0,1,2.1,1.1,1.8,1.8,0,0,1-1.2,2.1l-.9.3Zm-36.7-1.8h-.6l-.9-.3a1.7,1.7,0,0,1-1-2.2,1.7,1.7,0,0,1,2.2-1l.8.3a1.8,1.8,0,0,1,1.1,2.2A1.7,1.7,0,0,1,336.9,456.3Zm43.9-.8a1.6,1.6,0,0,1-1.5-.9,1.8,1.8,0,0,1,.8-2.3l.9-.4a1.7,1.7,0,0,1,1.4,3.1l-.9.4Zm-51-2.1-.7-.2-.9-.4a1.7,1.7,0,0,1-.7-2.3,1.6,1.6,0,0,1,2.2-.7,2,2,0,0,1,.8.4,1.6,1.6,0,0,1,.8,2.2A1.8,1.8,0,0,1,329.8,453.4Zm57.7-1.6a1.7,1.7,0,0,1-1.4-.8,1.7,1.7,0,0,1,.5-2.3l.7-.5a1.7,1.7,0,0,1,2.4.4,1.6,1.6,0,0,1-.5,2.3l-.8.6A1.6,1.6,0,0,1,387.5,451.8Zm-64.4-2.2a1.5,1.5,0,0,1-.9-.2l-.8-.5a1.7,1.7,0,0,1,1.8-2.9l.8.5a1.8,1.8,0,0,1,.5,2.4A1.5,1.5,0,0,1,323.1,449.6Zm70.4-2.6a2.1,2.1,0,0,1-1.3-.5,1.7,1.7,0,0,1,.1-2.4l.7-.6a1.6,1.6,0,0,1,2.4,0,1.7,1.7,0,0,1-.1,2.4l-.7.6A1.6,1.6,0,0,1,393.5,447Zm-76.7-1.7a1.4,1.4,0,0,1-1-.4l-.8-.6a1.7,1.7,0,0,1-.3-2.3,1.7,1.7,0,0,1,2.4-.3l.7.6a1.5,1.5,0,0,1,.3,2.3A1.5,1.5,0,0,1,316.8,445.3Zm115.7-3.1h-1a1.7,1.7,0,0,1,.1-3.4h1a1.7,1.7,0,0,1,1.6,1.7A1.7,1.7,0,0,1,432.5,442.2Zm6.7,0a1.7,1.7,0,0,1-1.7-1.6,1.8,1.8,0,0,1,1.6-1.8h1a1.5,1.5,0,0,1,1.7,1.5,1.6,1.6,0,0,1-1.5,1.8h-1.1Zm-14.3-.8h-.3l-1-.2a1.7,1.7,0,0,1,.7-3.3l.9.2a1.6,1.6,0,0,1,1.3,1.9A1.6,1.6,0,0,1,424.9,441.4Zm21.9,0a1.7,1.7,0,0,1-.2-3.3l.9-.2a1.7,1.7,0,0,1,1.9,1.4,1.6,1.6,0,0,1-1.4,1.9l-.9.2Zm-48.2-.1a1.7,1.7,0,0,1-1-.3,1.6,1.6,0,0,1-.3-2.4l.5-.7a1.7,1.7,0,0,1,2.4-.4,1.7,1.7,0,0,1,.3,2.4l-.6.8A1.6,1.6,0,0,1,398.6,441.3Zm-87.7-.9a1.6,1.6,0,0,1-1.1-.5l-.7-.6a1.7,1.7,0,1,1,2.3-2.5l.7.6a1.7,1.7,0,0,1,.1,2.4A1.6,1.6,0,0,1,310.9,440.4Zm143.4-.5a1.7,1.7,0,0,1-.3-3.3l.9-.2a1.6,1.6,0,0,1,2,1.2,1.8,1.8,0,0,1-1.2,2.1l-1,.2Zm-36.8-.4h-.6l-.9-.3a1.7,1.7,0,0,1,1.1-3.2l.9.3a1.8,1.8,0,0,1,1.1,2.2A1.7,1.7,0,0,1,417.5,439.5Zm44.2-1.6a1.7,1.7,0,0,1-1.6-1.1,1.7,1.7,0,0,1,1.2-2.1l.9-.3a1.6,1.6,0,0,1,2.1,1.1,1.8,1.8,0,0,1-1.1,2.1l-1,.3Zm-51.3-1.3-.8-.2-.8-.5a1.5,1.5,0,0,1-.7-2.2,1.6,1.6,0,0,1,2.2-.7l.9.4a1.7,1.7,0,0,1,.7,2.3A1.9,1.9,0,0,1,410.4,436.6Zm58.6-1a1.6,1.6,0,0,1-1.5-1.2,1.6,1.6,0,0,1,1-2.1l.9-.3a1.6,1.6,0,0,1,2.1,1,1.6,1.6,0,0,1-1,2.1l-.9.4ZM305.5,435a1.6,1.6,0,0,1-1.2-.6l-.7-.7a1.7,1.7,0,1,1,2.5-2.3l.6.7a1.7,1.7,0,0,1,0,2.4A2.1,2.1,0,0,1,305.5,435Zm97.3-.1-.8-.2a1.8,1.8,0,0,1-.7-2.3,2,2,0,0,0,.4-.8.1.1,0,0,0,.1-.1,1.8,1.8,0,0,1,0-2.2,1.7,1.7,0,0,1,2.3-.3l.7.6a1.6,1.6,0,0,1,.4,2.3l-.3.3a1.3,1.3,0,0,1-.2.9l-.4.9A1.6,1.6,0,0,1,402.8,434.9Zm73.4-2a1.7,1.7,0,0,1-.6-3.2l.9-.4a1.7,1.7,0,0,1,2.2,1,1.6,1.6,0,0,1-1,2.1l-.9.4Zm-175.7-3.8a1.6,1.6,0,0,1-1.3-.6l-.6-.7a1.7,1.7,0,0,1,.3-2.4,1.6,1.6,0,0,1,2.3.3l.6.7a1.7,1.7,0,0,1-.2,2.4A2,2,0,0,1,300.5,429.1Zm105.3-1.2h-.5a1.6,1.6,0,0,1-1.1-2.1l.3-.9a1.7,1.7,0,1,1,3.2,1l-.3.9A1.7,1.7,0,0,1,405.8,427.9Zm-7.7-.3a1.6,1.6,0,0,1-1.2-.6l-.7-.7a1.8,1.8,0,0,1,.1-2.4,1.7,1.7,0,0,1,2.4.2l.6.6a1.7,1.7,0,0,1,0,2.4A2.1,2.1,0,0,1,398.1,427.6ZM295.9,423a1.5,1.5,0,0,1-1.3-.7l-.6-.8a1.7,1.7,0,0,1,.4-2.3,1.6,1.6,0,0,1,2.4.4l.5.8a1.6,1.6,0,0,1-.4,2.3A1.7,1.7,0,0,1,295.9,423Zm97.6-1.5a1.8,1.8,0,0,1-1.5-.8,4.1,4.1,0,0,0-.5-.9,1.7,1.7,0,0,1,.7-2.3,1.6,1.6,0,0,1,2.2.7l.5.7a1.6,1.6,0,0,1-.6,2.3A1.1,1.1,0,0,1,393.5,421.5Zm14.1-1.1h-.3a1.7,1.7,0,0,1-1.4-1.9c0-.3.1-.6.1-.9a1.7,1.7,0,1,1,3.3.4,3.8,3.8,0,0,1-.1,1A1.6,1.6,0,0,1,407.6,420.4Zm-115.8-3.8a1.8,1.8,0,0,1-1.5-.8,4.1,4.1,0,0,0-.5-.9,1.7,1.7,0,0,1,2.9-1.7,5.6,5.6,0,0,0,.5.8,1.7,1.7,0,0,1-.6,2.3A1.1,1.1,0,0,1,291.8,416.6Zm98.5-2.1a1.7,1.7,0,0,1-1.6-1.2,4.3,4.3,0,0,1-.2-1.1,1.6,1.6,0,0,1,1.3-1.9,1.7,1.7,0,0,1,2,1.3,2.4,2.4,0,0,0,.2.8,1.9,1.9,0,0,1-1.3,2.1Zm17.5-1.7a1.7,1.7,0,0,1-1.7-1.6v-.9a1.6,1.6,0,0,1,1.5-1.8,1.7,1.7,0,0,1,1.8,1.5c0,.3.1.7.1,1a1.8,1.8,0,0,1-1.6,1.8ZM288,409.9a1.6,1.6,0,0,1-1.5-.9l-.5-.8a1.8,1.8,0,0,1,.7-2.3,1.7,1.7,0,0,1,2.3.7l.5.9a1.6,1.6,0,0,1-.7,2.2A1.3,1.3,0,0,1,288,409.9Zm102-3h-.3a1.6,1.6,0,0,1-1.3-1.9,4.3,4.3,0,0,1,.2-1.1,1.6,1.6,0,1,1,3.2.8c0,.2-.1.5-.1.8A1.8,1.8,0,0,1,390,406.9Zm16.1-1.6a1.6,1.6,0,0,1-1.5-1l-.4-.8a1.7,1.7,0,0,1,.8-2.2,1.6,1.6,0,0,1,2.2.7l.5,1a1.8,1.8,0,0,1-.9,2.2Zm-12.7-5.1a1.6,1.6,0,0,1-1.3-.6,1.7,1.7,0,0,1,.2-2.4l.9-.7a1.7,1.7,0,1,1,1.8,2.8l-.5.5A3,3,0,0,1,393.4,400.2Zm8-.7-.8-.2-.7-.4a1.6,1.6,0,0,1-.9-2.2,1.7,1.7,0,0,1,2.2-.9l1,.6a1.5,1.5,0,0,1,.6,2.2A1.5,1.5,0,0,1,401.4,399.5Z"/><path class="cls-2" d="M1230.6,1.2c-15.6,12.8-29.7,27.6-44.7,41.1s-30.4,26.8-45.8,39.9c-1.4,1.2.7,3.2,2.1,2q23.1-19.7,45.7-39.9c14.9-13.4,31-26.5,44.4-41.4,1-1.1-.5-2.6-1.7-1.7Z"/><path class="cls-2" d="M1090.6,50.1c3.7,4.9,10.6,8.1,15.7,11.4L1127,75.2a1.4,1.4,0,0,0,2.1-.9,2.1,2.1,0,0,0-.8-2.5,1.5,1.5,0,0,0-2.4,1.4,163.2,163.2,0,0,0,6.2,23.8l2-1.6-1-.5c-.7-.3-1.4.2-1.2.9l.2,1.2c.4,1.7,3.2.9,2.6-.8a162.6,162.6,0,0,1-6-23.8l-2.4,1.4v-.2l2.1-.9-19.7-13.1c-5.2-3.5-11.2-9-17.3-10.5-.6-.2-1.2.5-.8,1Z"/><path class="cls-2" d="M1140.4,82.3c-2.3,1.9-4.1,4.9-5.8,7.4s-3.8,4-2.8,6.1a.5.5,0,0,0,.5.3c2.2.1,3.3-3.1,4.4-4.6s4.1-5.1,5.4-8a1.1,1.1,0,0,0-1.7-1.2Z"/><path class="cls-2" d="M1146,86.9c-3.4,3.6-8.6,5.7-12.8,8.5a1.2,1.2,0,0,0,1.2,2c2.9-1.6,5.7-3.5,8.6-5.3s4.2-2.1,4.5-4.4a.9.9,0,0,0-1.5-.8Z"/><path class="cls-2" d="M1140.6,82.6c2.3,3,5.6,4.7,8.5,6.9s7.9,5.7,11.7,8.7c7.7,5.9,15.2,12.2,22.6,18.5,1.2,1.1,3-.7,1.8-1.8-7.3-6.6-14.9-12.8-22.6-18.8l-10.4-7.7c-3.4-2.5-6.7-5.6-10.8-6.8-.5-.1-1.1.6-.8,1Z"/><path class="cls-2" d="M1229.8,3.3c.3,4.5-4.3,11.4-6.1,15.7l-5.4,12.8-11.4,27-11.4,26.8c-3.9,9.5-9,19.1-11.9,28.9a1.1,1.1,0,0,0,2.1.8c5-9,8.4-19.4,12.4-28.9s8.4-20.1,12.7-30.1l12.6-30.1c2.1-4.8,4.1-9.7,6.1-14.5,1.2-3.1,2.9-5.6,1.5-8.7-.3-.6-1.3-.3-1.2.3Z"/><path class="cls-2" d="M1229.4,1.3q-52.1,34.3-102.1,71.5c-1.4,1-.1,3.3,1.3,2.3,16.2-12.1,32.3-24.4,48.9-35.7s35.6-23.9,53.2-36c1.3-.9.1-3-1.3-2.1Z"/><path class="cls-2" d="M1229.7,1.4c-12.4,2.7-24.7,8-36.7,12l-35.3,11.9c-11.6,3.9-23.1,7.9-34.6,12l-17.7,6.6c-4.4,1.7-10.2,2.8-13.7,5.8a1.4,1.4,0,0,0-.2,1.7l.2.3a1.3,1.3,0,0,0,1.5.7h.3c1.8-.3,1-3-.7-2.6l2.9.9,2.1-.8c1.4-.4,2.8-1.2,4.1-1.7l8.3-3.2,17.7-6.5c11.5-4.1,23.1-8.1,34.7-12l33.2-11.3c11.4-3.9,23.7-6.9,34.5-12.1.9-.4.3-1.7-.6-1.6Z"/><path class="cls-2" d="M1234.7,253a2,2,0,0,1-2-1.8,2.1,2.1,0,0,1,1.9-2.2h1.1a2,2,0,0,1,2.2,1.8,2.1,2.1,0,0,1-1.9,2.2h-1.3Zm-7.9,0h-1.4a2,2,0,1,1,.4-4h1.1a1.9,1.9,0,0,1,1.8,2.1A1.9,1.9,0,0,1,1226.8,253Zm-56.9-.2a2,2,0,0,1-2-1.8,2,2,0,0,1,1.9-2.1h1.1a2,2,0,0,1,2.2,1.8,2.2,2.2,0,0,1-1.9,2.2h-1.3Zm-8,0h-1.3a1.9,1.9,0,0,1-1.8-2.1,2,2,0,0,1,2.2-1.8h1.1a2,2,0,0,1,1.8,2.2A1.9,1.9,0,0,1,1161.9,252.8Zm81.9-1a2,2,0,0,1-2-1.6,2,2,0,0,1,1.6-2.3l1-.3a2,2,0,0,1,2.4,1.5,1.9,1.9,0,0,1-1.4,2.4l-1.2.3Zm-26.1-.1h-.4l-1.2-.3a2,2,0,0,1,.9-3.9l1.1.2a2.1,2.1,0,0,1,1.6,2.4A2,2,0,0,1,1217.7,251.7Zm-38.7-.1a1.9,1.9,0,0,1-2-1.6,2,2,0,0,1,1.6-2.3l1.1-.2a1.9,1.9,0,0,1,2.3,1.5,2,2,0,0,1-1.5,2.4l-1.1.2Zm-26.1-.1h-.4l-1.2-.3a1.9,1.9,0,0,1-1.4-2.4,2,2,0,0,1,2.4-1.5l1,.3a2,2,0,0,1-.4,3.9Zm34.9-2.3a2,2,0,0,1-.7-3.9l1.1-.3a1.9,1.9,0,0,1,2.5,1.2,1.9,1.9,0,0,1-1.2,2.5l-1.1.4Zm21.1,0h-.6l-1.1-.4a2,2,0,0,1-1.2-2.6,2,2,0,0,1,2.6-1.2l1,.4a2,2,0,0,1-.7,3.9Zm43.6,0a1.9,1.9,0,0,1-1.8-1.3,2,2,0,0,1,1.1-2.6l1-.4a2,2,0,0,1,2.6,1.1,1.9,1.9,0,0,1-1.1,2.6l-1.1.5Zm-108.3-.3h-.7l-1.1-.4a1.9,1.9,0,0,1-1.1-2.6,1.9,1.9,0,0,1,2.5-1.1l1.1.4a1.9,1.9,0,0,1,1.1,2.5A1.9,1.9,0,0,1,1144.2,248.9Zm52-3.2a2.1,2.1,0,0,1-1.8-1.1,2,2,0,0,1,.9-2.7l1-.5a1.8,1.8,0,0,1,2,.1,2,2,0,0,1,2.2-.3l1,.6a1.9,1.9,0,0,1,.8,2.7,2,2,0,0,1-2.6.8l-1.1-.5a.1.1,0,0,0-.1-.1l-.4.2-1,.6Zm64.5-.5a2.1,2.1,0,0,1-1.7-1,1.9,1.9,0,0,1,.7-2.7l.9-.6a2.1,2.1,0,0,1,2.8.6,2,2,0,0,1-.7,2.8l-1,.6A1.7,1.7,0,0,1,1260.7,245.2Zm-124.8,0a1.9,1.9,0,0,1-1-.3l-1-.6a1.9,1.9,0,1,1,1.9-3.4,3.1,3.1,0,0,1,1,.5,1.9,1.9,0,0,1,.8,2.7A1.8,1.8,0,0,1,1135.9,245.2ZM1204,241a2,2,0,0,1-1.1-3.6l.9-.7a2,2,0,0,1,2.3,3.3l-.9.7A2.7,2.7,0,0,1,1204,241Zm-11.2-.2a2.8,2.8,0,0,1-1.2-.4l-.9-.7a2,2,0,1,1,2.4-3.2l.9.6a2,2,0,0,1,.4,2.8A1.9,1.9,0,0,1,1192.8,240.8Zm-64.7-.5a2,2,0,0,1-1.1-.3l-1-.7a2,2,0,0,1,2.4-3.2l.9.6a2,2,0,0,1,.5,2.8A2.3,2.3,0,0,1,1128.1,240.3Zm140.1-.4a2,2,0,0,1-1.6-.7,1.9,1.9,0,0,1,.3-2.8l.8-.7a2.2,2.2,0,0,1,2.9.2,2,2,0,0,1-.3,2.8l-.9.8A1.7,1.7,0,0,1,1268.2,239.9Zm-57-4.6a2,2,0,0,1-1.4-3.4l.8-.8a2.1,2.1,0,0,1,2.9.1,2,2,0,0,1-.1,2.8l-.9.8A2.1,2.1,0,0,1,1211.2,235.3Zm-25.4-.4a2.4,2.4,0,0,1-1.4-.5l-.9-.9a2.1,2.1,0,0,1,0-2.8,2.1,2.1,0,0,1,2.9,0,6,6,0,0,0,.8.8,1.9,1.9,0,0,1,0,2.8A2,2,0,0,1,1185.8,234.9Zm-64.8-.3a2.1,2.1,0,0,1-1.3-.5l-.9-.8a2,2,0,0,1-.1-2.8,1.9,1.9,0,0,1,2.8-.1l.9.7a2,2,0,0,1,.1,2.8A1.8,1.8,0,0,1,1121,234.6Zm153.8-1a1.9,1.9,0,0,1-1.4-.5,2,2,0,0,1-.1-2.8l.7-.8a2.1,2.1,0,0,1,2.9-.2,1.9,1.9,0,0,1,.1,2.8l-.7.9A2.2,2.2,0,0,1,1274.8,233.6Zm-57.4-5a2.2,2.2,0,0,1-1.3-.4,2,2,0,0,1-.3-2.8l.7-.9a2,2,0,0,1,2.8-.3,1.9,1.9,0,0,1,.4,2.8l-.7.9A2,2,0,0,1,1217.4,228.6Zm-37.7-.5a1.8,1.8,0,0,1-1.6-.8l-.7-.9a2.1,2.1,0,0,1,.4-2.8,1.9,1.9,0,0,1,2.8.4l.7.9a2,2,0,0,1-.4,2.8A1.7,1.7,0,0,1,1179.7,228.1Zm-65.1,0a2.3,2.3,0,0,1-1.5-.7l-.7-.9a1.9,1.9,0,0,1,.2-2.8,2,2,0,0,1,2.8.2l.7.9a1.9,1.9,0,0,1-.2,2.8A1.9,1.9,0,0,1,1114.6,228.1Zm165.8-1.6a1.7,1.7,0,0,1-1.1-.4,2,2,0,0,1-.5-2.8l.6-.9a2,2,0,0,1,2.8-.5,1.9,1.9,0,0,1,.5,2.7l-.6,1A2,2,0,0,1,1280.4,226.5Zm-57.9-5.4a1.9,1.9,0,0,1-1-.3,2.1,2.1,0,0,1-.8-2.7l.6-1a2.1,2.1,0,0,1,2.7-.8,2,2,0,0,1,.8,2.7l-.6,1.1A1.9,1.9,0,0,1,1222.5,221.1Zm-113.5-.2a1.9,1.9,0,0,1-1.6-.9,8.6,8.6,0,0,1-.7-1,1.9,1.9,0,0,1,.6-2.7,1.9,1.9,0,0,1,2.7.5l.7.9a2,2,0,0,1-.5,2.8A2.8,2.8,0,0,1,1109,220.9Zm65.8-.5a2.2,2.2,0,0,1-1.8-1l-.5-1.1a2,2,0,1,1,3.6-1.8,3.1,3.1,0,0,0,.5,1,2,2,0,0,1-.9,2.7A1.5,1.5,0,0,1,1174.8,220.4Zm110.3-1.8-.9-.2a2,2,0,0,1-.9-2.7l.5-1a1.9,1.9,0,0,1,2.6-.9,2.1,2.1,0,0,1,1,2.7,4.7,4.7,0,0,0-.5,1A2.1,2.1,0,0,1,1285.1,218.6Zm-180.9-5.5a1.8,1.8,0,0,1-1.7-1.1l-.6-1a2,2,0,0,1,.9-2.7,2.1,2.1,0,0,1,2.7.9,4.1,4.1,0,0,0,.5.9,2.2,2.2,0,0,1-.8,2.8Zm122-.3h-.6a2,2,0,0,1-1.2-2.6l.3-1a2,2,0,0,1,2.5-1.3,2,2,0,0,1,1.3,2.5,3.6,3.6,0,0,1-.4,1.1A1.9,1.9,0,0,1,1226.2,212.8Zm-54.8-.8a2.1,2.1,0,0,1-1.9-1.5l-.3-1.2a2,2,0,0,1,1.5-2.4,2,2,0,0,1,2.4,1.5l.3,1a2.1,2.1,0,0,1-1.4,2.5Zm117.2-1.8h-.6a2,2,0,0,1-1.3-2.6,4.2,4.2,0,0,1,.4-1,1.9,1.9,0,0,1,2.5-1.3,2.1,2.1,0,0,1,1.3,2.5,7.6,7.6,0,0,0-.4,1.1A2,2,0,0,1,1288.6,210.2Zm-188.3-5.4a1.8,1.8,0,0,1-1.8-1.2l-.5-1.1a2,2,0,0,1,3.8-1.4l.4,1a2,2,0,0,1-1.1,2.6Zm128.2-.9h-.3a2,2,0,0,1-1.7-2.3c0-.3.1-.7.1-1a2,2,0,1,1,4,.4c-.1.4-.1.8-.2,1.2A1.9,1.9,0,0,1,1228.5,203.9Zm-58.2-1h0a1.9,1.9,0,0,1-2-2c0-.5.1-.9.1-1.3a2,2,0,1,1,4,.4c0,.3-.1.7-.1,1A1.9,1.9,0,0,1,1170.3,202.9Zm120.6-1.5h-.3a2,2,0,0,1-1.6-2.3,4.3,4.3,0,0,1,.2-1.1,1.9,1.9,0,0,1,2.3-1.6,2,2,0,0,1,1.6,2.3c-.1.4-.1.8-.2,1.1A2,2,0,0,1,1290.9,201.4Zm-193.5-5.2a2.1,2.1,0,0,1-2-1.5l-.3-1.1a2,2,0,0,1,1.4-2.4,2,2,0,0,1,2.5,1.4l.3,1.1a1.9,1.9,0,0,1-1.4,2.4Zm131.2-1.4a1.9,1.9,0,0,1-1.9-1.7c-.1-.4-.1-.7-.2-1.1a2,2,0,0,1,1.7-2.3,1.9,1.9,0,0,1,2.2,1.7,5,5,0,0,1,.2,1.2,1.9,1.9,0,0,1-1.7,2.2Zm-56-.6a1.4,1.4,0,0,1-.9-.3,2,2,0,0,1-.9-2.7l.6-1h.1a1.9,1.9,0,0,1,2.6-.7,2,2,0,0,1,.8,2.7h-.1l-.5.9A1.8,1.8,0,0,1,1172.6,194.2Zm119.4-1.9h-.1a1.9,1.9,0,0,1-1.9-2.1v-1.1a1.9,1.9,0,0,1,2-1.9,2,2,0,0,1,2,2v1.2A2.1,2.1,0,0,1,1292,192.3Zm-95.4-1.5a2,2,0,0,1-1.7-.9l-.5-.7a2,2,0,0,1,.2-2.8,2.1,2.1,0,0,1,1.7-.4,2.2,2.2,0,0,1-1.2-2.4c.1-.4.3-.8.4-1.2a2,2,0,0,1,2.6-1.2,1.9,1.9,0,0,1,1.2,2.5l-.3.9a1.9,1.9,0,0,1-2.3,1.5,1.8,1.8,0,0,1,.7.5l.9,1.2a2,2,0,0,1-.6,2.7A2.3,2.3,0,0,1,1196.6,190.8Zm-17.6-2.9a2.1,2.1,0,0,1-1.8-1.1,2,2,0,0,1,.9-2.7l1.2-.5a1.9,1.9,0,0,1,2.6,1.1,2.1,2.1,0,0,1-1.1,2.6l-.9.4Zm-83.6-.7a1.9,1.9,0,0,1-2-1.6h0c0-.4-.1-.7-.1-1.1a1.9,1.9,0,0,1,1.7-2.2,1.9,1.9,0,0,1,2.2,1.7c.1.3.1.6.2,1a2.1,2.1,0,0,1-1.7,2.3Zm93.6-.9h-1.3a1.9,1.9,0,0,1-1.8-2.1,2,2,0,0,1,2.1-1.9l1.3.2a2.1,2.1,0,0,1,1.7,2.3A2,2,0,0,1,1189,186.3Zm37-.2a2,2,0,0,1-1.8-1,4.1,4.1,0,0,0-.5-.9,1.9,1.9,0,0,1,.7-2.7,2,2,0,0,1,2.7.6l.6,1.1a1.9,1.9,0,0,1-.8,2.7A1.5,1.5,0,0,1,1226,186.1Zm65.6-2.9a2.1,2.1,0,0,1-2-1.8c0-.3-.1-.7-.1-1.1a1.9,1.9,0,0,1,1.7-2.2,2,2,0,0,1,2.3,1.7c0,.4.1.8.1,1.2a2.1,2.1,0,0,1-1.7,2.2Zm-71.5-3.9a1.6,1.6,0,0,1-1.2-.4l-.9-.6a2,2,0,1,1,2.2-3.3l1,.7a2,2,0,0,1,.5,2.8A2.1,2.1,0,0,1,1220.1,179.3Zm-18-.6a2.1,2.1,0,0,1-1.6-.8,2,2,0,0,1,.3-2.8l1.1-.8a2,2,0,0,1,2.2,3.4l-.8.5A2.1,2.1,0,0,1,1202.1,178.7Zm-107.6-.5a1.9,1.9,0,0,1-2-1.9c0-.4-.1-.8-.1-1.2a2,2,0,0,1,2-2,1.9,1.9,0,0,1,2,1.9c0,.4.1.7.1,1.1a2,2,0,0,1-1.9,2.1Zm117.2-2.3h-1.2a1.9,1.9,0,0,1-1.9-2,2,2,0,0,1,2-2h1.3a2,2,0,0,1,1.8,2.2A2,2,0,0,1,1211.7,175.9Zm-117.2-6.8h-.1a2.1,2.1,0,0,1-1.9-2.1v-1.2a1.9,1.9,0,0,1,2.1-1.8,1.9,1.9,0,0,1,1.9,2.1v1.1A1.9,1.9,0,0,1,1094.5,169.1Zm1-9.1h-.3a2,2,0,0,1-1.7-2.3c.1-.4.1-.8.2-1.2a2,2,0,0,1,2.3-1.6,2,2,0,0,1,1.6,2.3c0,.4-.1.7-.1,1.1A2,2,0,0,1,1095.5,160Zm1.8-8.9h-.5a2,2,0,0,1-1.4-2.4l.3-1.2a2,2,0,0,1,2.4-1.4,2,2,0,0,1,1.4,2.5,3.6,3.6,0,0,0-.2,1.1A2.1,2.1,0,0,1,1097.3,151.1Zm2.7-8.8h-.7a2,2,0,0,1-1.2-2.5l.4-1.1a1.9,1.9,0,0,1,2.5-1.2,1.9,1.9,0,0,1,1.2,2.5l-.3,1.1A2.1,2.1,0,0,1,1100,142.3Zm3.4-8.4-.8-.2a2,2,0,0,1-1-2.7l.5-1a1.9,1.9,0,0,1,2.6-1,2.1,2.1,0,0,1,1,2.7,9.3,9.3,0,0,0-.5,1A2.1,2.1,0,0,1,1103.4,133.9Zm4.1-8.2-1-.2a2.1,2.1,0,0,1-.7-2.8l.5-1a2.1,2.1,0,0,1,2.8-.7,2,2,0,0,1,.7,2.7l-.5,1A2.2,2.2,0,0,1,1107.5,125.7Zm4.8-7.8a2,2,0,0,1-1.1-.3,2,2,0,0,1-.5-2.8l.6-.9a2,2,0,0,1,2.8-.5,1.9,1.9,0,0,1,.5,2.7l-.6,1A2.1,2.1,0,0,1,1112.3,117.9Zm5.4-7.3a2.8,2.8,0,0,1-1.2-.4,2.1,2.1,0,0,1-.3-2.9l.7-.9a2,2,0,0,1,2.8-.2,1.9,1.9,0,0,1,.3,2.8l-.7.9A2.4,2.4,0,0,1,1117.7,110.6Zm6.1-6.9a2.4,2.4,0,0,1-1.4-.5,2,2,0,0,1-.1-2.8l.8-.9a2.1,2.1,0,0,1,2.9,0,2,2,0,0,1,0,2.8l-.8.8A2,2,0,0,1,1123.8,103.7Z"/></g></g></svg>