<svg xmlns="http://www.w3.org/2000/svg" viewBox="0 0 267.3 33"><defs><style>.cls-1{fill:#fff;}</style></defs><g id="Layer_2" data-name="Layer 2"><g id="Layer_1-2" data-name="Layer 1"><path class="cls-1" d="M0,.8C.2.2.7.1,1.3.1H25.1a2.8,2.8,0,0,1,3,3V6.4c0,.9-.3,1.2-1.2,1.2H18.6V31.2c0,1-.3,1.3-1.2,1.3H12.5a2.9,2.9,0,0,1-3-3.1V7.6H1.3C.7,7.6.2,7.5,0,6.8Z"/><path class="cls-1" d="M136.8,0h.3a2.9,2.9,0,0,1,2.1,2.8V31.4a1,1,0,0,1-1.1,1.1h-4.5a2.9,2.9,0,0,1-2.8-2.9V1.1a1.1,1.1,0,0,1,.7-1.1Z"/><path class="cls-1" d="M238.9,11.7a7.7,7.7,0,0,1,6.2-2.8,6.5,6.5,0,0,1,5.8,3.1,3,3,0,0,0,.8-.8,10.4,10.4,0,0,1,10.7-1.6,7.9,7.9,0,0,1,4.4,5.5,18.4,18.4,0,0,1,.5,4.1V30.7c0,1-.4,1.4-1.4,1.4H262a3.1,3.1,0,0,1-3.2-3.2c0-3.2,0-6.4-.1-9.6a4.9,4.9,0,0,0-.1-1.2,2.4,2.4,0,0,0-1.8-1.9,2.6,2.6,0,0,0-2.7,1.1,3.4,3.4,0,0,0-.7,2.2V30.7c0,1.1-.4,1.5-1.5,1.5h-3.8a3.2,3.2,0,0,1-3-3.4c0-3.2,0-6.5-.1-9.8a4.1,4.1,0,0,0-.1-1.1,2.2,2.2,0,0,0-3.4-1.6,3.1,3.1,0,0,0-1.8,2.7,4.9,4.9,0,0,0-.1,1.2V30.8c0,1-.4,1.4-1.4,1.4h-3.6a3.2,3.2,0,0,1-3.4-3.5V10.8c0-1,.4-1.5,1.4-1.5h2.7A3.4,3.4,0,0,1,238.9,11.7Z"/><path class="cls-1" d="M118.2,12.1l.3-1.6a.9.9,0,0,1,1-.8h4.3a2.9,2.9,0,0,1,2.9,2.8v19c0,.7-.4,1-1.1,1h-3.9a3.1,3.1,0,0,1-3.3-2.4h-.2a9.2,9.2,0,0,1-7.5,2.6,10.8,10.8,0,0,1-6-2,10.2,10.2,0,0,1-4-6.7,13.3,13.3,0,0,1,1.1-9.2,10.5,10.5,0,0,1,8.5-5.8,10.3,10.3,0,0,1,5.2.7,6,6,0,0,1,2.5,1.9Zm-9.4,9.1c.1.3.1.7.2,1.2a4.2,4.2,0,0,0,3,3.5,4.5,4.5,0,0,0,4.7-1.1,5,5,0,0,0,1.4-4.3,4.2,4.2,0,0,0-2.4-3.9,4.6,4.6,0,0,0-4.9.3A5.2,5.2,0,0,0,108.8,21.2Z"/><path class="cls-1" d="M160,12l.3-1.5c.1-.6.4-.8,1-.8h4.4a2.8,2.8,0,0,1,2.8,2.9V31.2c0,1-.3,1.3-1.3,1.3h-3.9a3,3,0,0,1-3.1-2.2v-.2a9.1,9.1,0,0,1-4.2,2.5c-3.8,1-9.1,0-11.8-4.1a12.2,12.2,0,0,1-2-5.7,15.6,15.6,0,0,1,1.1-7.4,10.7,10.7,0,0,1,10.4-6.3,10.1,10.1,0,0,1,3.9.9,6.5,6.5,0,0,1,2.2,1.8Zm0,9a5.9,5.9,0,0,0-.2-1.3,4,4,0,0,0-3.1-3.5,4.7,4.7,0,0,0-5,1.4,5.8,5.8,0,0,0-1,4,4.5,4.5,0,0,0,6.2,4.2A4.9,4.9,0,0,0,160,21Z"/><path class="cls-1" d="M63.5,12c.1-.5.1-1,.2-1.4s.4-1,1.2-1H69a2.9,2.9,0,0,1,2.9,2.9V31.4c0,.7-.3,1-1.1,1.1H66.6a3,3,0,0,1-2.9-2.2.3.3,0,0,0-.1-.2l-.8.7a9.2,9.2,0,0,1-5.3,2.1A12.2,12.2,0,0,1,51,31.5a10,10,0,0,1-4.7-5.8,14.1,14.1,0,0,1,.6-10.5,10.3,10.3,0,0,1,8.7-6,9.2,9.2,0,0,1,3.7.2A6.7,6.7,0,0,1,63.5,12Zm-4.8,4a4.4,4.4,0,0,0-4.4,3.3,6.6,6.6,0,0,0-.1,2.8,4.5,4.5,0,0,0,6,3.7,4.9,4.9,0,0,0,3.2-5.1C63.3,17.7,61.5,16,58.7,16Z"/><path class="cls-1" d="M229,20.5c0,3.7-1,6.6-3.6,9a13.3,13.3,0,0,1-6.6,3,15.7,15.7,0,0,1-9.3-1.1,10.4,10.4,0,0,1-6.5-9.1,12.6,12.6,0,0,1,1-6.9,10.6,10.6,0,0,1,6.3-5.6,15.8,15.8,0,0,1,12.8.7,10.3,10.3,0,0,1,5.8,8.5A9.2,9.2,0,0,1,229,20.5Zm-13-4.7a4.5,4.5,0,0,0-4.4,3,5.5,5.5,0,0,0-.3,3.1,4.3,4.3,0,0,0,3.1,3.6,4.5,4.5,0,0,0,4.7-.9,5.1,5.1,0,0,0,1.5-4.5A4.6,4.6,0,0,0,216,15.8Z"/><path class="cls-1" d="M87.3,23.2a28.1,28.1,0,0,0,1-3.1c1-3.3,2.2-6.6,3.5-9.8a1,1,0,0,1,1-.7h4a2.8,2.8,0,0,1,2.6,4c-1.2,3.2-2.5,6.3-3.8,9.4L92,31.7c-.3.8-.4.9-1.3.9H85.2a3,3,0,0,1-2.9-1.9L76.6,17.4,74,11.2c-.5-1-.1-1.6,1-1.6h6.5c.7,0,.9.1,1.2.8,1.6,4.1,3,8.2,4.4,12.4,0,.2.1.3.1.4Z"/><path class="cls-1" d="M180.6,20.8a11.6,11.6,0,0,1,2.9-8.1,12.7,12.7,0,0,1,6.4-3.5,14.5,14.5,0,0,1,8.5.6l1.4.7a2.5,2.5,0,0,1,.7,3.9l-1.7,1.8a1.3,1.3,0,0,1-1.9.3,5.4,5.4,0,0,0-4.6-.7,4.8,4.8,0,0,0-3.3,3.9,4.9,4.9,0,0,0,.9,4.2,4.9,4.9,0,0,0,4.1,1.6,5.1,5.1,0,0,0,2.6-.7,2.8,2.8,0,0,1,3.1.5l2.2,2.3a1.3,1.3,0,0,1-.2,2.2,14,14,0,0,1-10.5,2.7,14.9,14.9,0,0,1-5.8-2,10.2,10.2,0,0,1-4.6-7.3A19.4,19.4,0,0,1,180.6,20.8Z"/><path class="cls-1" d="M34.6,12c2.5-4.1,8.2-3.4,11-1.1a1.1,1.1,0,0,1,.2,1.2c-.8,1.6-1.7,3.1-2.6,4.6s-.8.6-1.3.3a5.9,5.9,0,0,0-4.1-.6A3.7,3.7,0,0,0,35,19.9V31.3c0,.8-.3,1.2-1.2,1.2H29.4a2.9,2.9,0,0,1-3-3V10.8c0-.9.3-1.2,1.2-1.2h3.8a2.9,2.9,0,0,1,3.1,2.2Z"/><path class="cls-1" d="M175.4,32.6a4.3,4.3,0,0,1-4.4-2.9,4,4,0,0,1,3.4-5.4,5.1,5.1,0,0,1,3.2.4,4,4,0,0,1,2.4,4.1,4.1,4.1,0,0,1-3.4,3.6Z"/></g></g></svg>