<svg viewBox="0 0 15 12" fill="none" xmlns="http://www.w3.org/2000/svg">
<path d="M13.5003 2.04407L15 1.75243C15 1.75243 13.7394 3.12841 13.5003 3.2159C13.4779 3.508 13.4779 3.80133 13.5003 4.09344C10.6204 16.1564 0 10.8275 0 10.8275C3.87158 10.915 4.20032 9.36401 4.20032 9.36401C1.95073 9.04321 1.49973 7.60627 1.49973 7.60627C1.70153 7.71065 1.93574 7.73861 2.15738 7.68479C2.37902 7.63096 2.57247 7.49914 2.7006 7.31463C0.271691 6.69956 0.600432 4.39832 0.600432 4.39832C1.03343 4.70368 1.53955 4.89539 2.07028 4.95508C1.79859 4.63428 -0.480892 1.96983 0.899293 0.593864C0.899293 0.593864 2.57833 3.51017 6.99058 3.77529L7.28944 3.71697C7.23846 3.50605 7.21833 3.28915 7.22967 3.07273C7.22967 2.25779 7.56142 1.47623 8.15195 0.899979C8.74248 0.323731 9.54341 0 10.3786 0C12.4787 0 12.9297 1.17182 12.9297 1.17182L14.4295 0.294278C14.4023 0.288976 14.2501 1.75243 13.5003 2.04407Z" fill="#535461"/>
</svg>
