<svg xmlns="http://www.w3.org/2000/svg" viewBox="0 0 61.8 86.6"><defs><style>.cls-1{fill:#fff;}</style></defs><g id="Layer_2" data-name="Layer 2"><g id="Layer_1-2" data-name="Layer 1"><path class="cls-1" d="M61.8,36.5V23.2L13.4,0,0,5.8V19.2L32.2,34.6,0,50.2V63.5L48.7,86.6l13.1-5.8V40.9L47.9,47.1V72.3L18,57.9,49,42.1ZM49.5,40.1V29.8L60.1,25V35.4ZM59,23.7,48.7,28.4,2.8,6.4,13.3,1.8ZM49.5,48.2l10.6-4.8V79.7L49.5,84.4ZM47.9,74.1V84.4L1.7,62.5V51.3L35.9,34.6,1.7,18.2V7.6L47.9,29.8V40.9L14.4,58Z"/></g></g></svg>