<svg xmlns="http://www.w3.org/2000/svg" viewBox="0 0 365 45"><defs><style>.cls-1{fill:#fff;}</style></defs><g id="Layer_2" data-name="Layer 2"><g id="Layer_1-2" data-name="Layer 1"><path class="cls-1" d="M0,1.1A1.6,1.6,0,0,1,1.7.1H34.2a3.9,3.9,0,0,1,4.2,4.1V8.8a1.4,1.4,0,0,1-1.6,1.6H25.4V42.6c0,1.3-.4,1.7-1.7,1.7H17.1a3.9,3.9,0,0,1-4.2-4.1V10.4H1.8C.9,10.4.3,10.2,0,9.3Z"/><path class="cls-1" d="M186.7,0h.4a3.9,3.9,0,0,1,3,3.8V42.8c0,1.1-.5,1.5-1.6,1.5h-6a3.8,3.8,0,0,1-3.9-3.9V1.5a1.5,1.5,0,0,1,1-1.5Z"/><path class="cls-1" d="M326.2,16a10.5,10.5,0,0,1,8.4-3.9,9,9,0,0,1,8,4.3l1.1-1.1A12.7,12.7,0,0,1,352,12a13.6,13.6,0,0,1,6.3,1.1,10.7,10.7,0,0,1,5.9,7.5,26.1,26.1,0,0,1,.8,5.6V41.9c0,1.4-.6,2-2,2h-5.3a4.3,4.3,0,0,1-4.4-4.4V26.3a8.8,8.8,0,0,0-.2-1.6,3.3,3.3,0,0,0-2.5-2.6,3.8,3.8,0,0,0-3.7,1.5,4.9,4.9,0,0,0-.9,3.1V41.9c0,1.6-.5,2.1-2.1,2.1h-5.1a4.3,4.3,0,0,1-4.2-4.5V26a8.8,8.8,0,0,0-.2-1.6,3.2,3.2,0,0,0-4.7-2.2,4.5,4.5,0,0,0-2.4,3.7,9.7,9.7,0,0,0-.1,1.7V42.1a1.7,1.7,0,0,1-1.9,1.9h-4.9a4.5,4.5,0,0,1-4.8-4.8V14.7c0-1.3.6-1.9,2-1.9h3.7C323.7,12.7,325.4,13.6,326.2,16Z"/><path class="cls-1" d="M161.4,16.5a19.1,19.1,0,0,0,.4-2.1,1.3,1.3,0,0,1,1.4-1.2h5.9a4,4,0,0,1,3.8,3.9c.1,8.6.1,17.3.1,25.9,0,.9-.5,1.4-1.5,1.4h-5.3a4.2,4.2,0,0,1-4.6-3.2l-.2.2A13,13,0,0,1,151.1,45a14.9,14.9,0,0,1-8.1-2.8,14.6,14.6,0,0,1-5.6-9.1A18.9,18.9,0,0,1,139,20.5a14,14,0,0,1,11.5-7.9,15.9,15.9,0,0,1,7.2.9,8.2,8.2,0,0,1,3.4,2.7Q161.3,16.2,161.4,16.5ZM148.6,29c.1.4.1,1,.2,1.5.5,2.4,1.7,4.2,4.1,4.9a6.3,6.3,0,0,0,6.5-1.5,7.2,7.2,0,0,0,1.9-5.9c-.2-2.4-1.1-4.3-3.3-5.4a6.5,6.5,0,0,0-6.7.5C149.3,24.4,148.7,26.5,148.6,29Z"/><path class="cls-1" d="M218.5,16.4a15.5,15.5,0,0,1,.4-2.1,1.2,1.2,0,0,1,1.3-1.1h6.1a3.8,3.8,0,0,1,3.7,4V42.6c0,1.4-.4,1.8-1.7,1.8H223a3.9,3.9,0,0,1-4.2-3c0-.1-.1-.2-.1-.3a12,12,0,0,1-5.7,3.4c-5.1,1.3-12.4-.1-16.1-5.6a17,17,0,0,1-2.7-7.8A20.6,20.6,0,0,1,195.7,21a14.6,14.6,0,0,1,14.1-8.5,14.2,14.2,0,0,1,5.4,1.2,8.9,8.9,0,0,1,3,2.4Zm0,12.3c-.1-.6-.1-1.2-.2-1.8a5.8,5.8,0,0,0-4.4-4.8c-2.6-.6-4.9-.2-6.7,2a7.5,7.5,0,0,0-1.5,5.4,6.2,6.2,0,0,0,8.5,5.7C216.8,34.3,218.4,31.8,218.5,28.7Z"/><path class="cls-1" d="M86.6,16.4a16.2,16.2,0,0,0,.4-1.9c.2-1,.6-1.4,1.5-1.4h5.7a3.9,3.9,0,0,1,4,4V42.8c0,1.1-.5,1.5-1.5,1.5H90.9A3.9,3.9,0,0,1,87,41.4c0-.1-.1-.2-.1-.3l-1.1,1a12.9,12.9,0,0,1-7.3,2.8A16.3,16.3,0,0,1,69.6,43a13,13,0,0,1-6.3-7.9A18.9,18.9,0,0,1,64,20.7a14.1,14.1,0,0,1,12-8.2,13.9,13.9,0,0,1,5,.3A8.8,8.8,0,0,1,86.6,16.4Zm-6.4,5.4a5.9,5.9,0,0,0-6,4.5,8.2,8.2,0,0,0-.2,3.8,6.1,6.1,0,0,0,8.1,5.1,6.6,6.6,0,0,0,4.5-7C86.4,24.2,84,21.8,80.2,21.8Z"/><path class="cls-1" d="M312.7,28c0,5-1.4,9.1-4.9,12.2a18.2,18.2,0,0,1-9.1,4.2,21.8,21.8,0,0,1-12.6-1.5,14.4,14.4,0,0,1-9-12.5,17.9,17.9,0,0,1,1.4-9.4,14.2,14.2,0,0,1,8.7-7.6,21.9,21.9,0,0,1,17.4.9,14.2,14.2,0,0,1,7.9,11.6C312.6,26.7,312.7,27.6,312.7,28Zm-17.8-6.4a5.9,5.9,0,0,0-6,4,8.2,8.2,0,0,0-.3,4.4,5.8,5.8,0,0,0,4.1,4.8,6,6,0,0,0,6.5-1.3,6.6,6.6,0,0,0,2-6.1A6.2,6.2,0,0,0,294.9,21.6Z"/><path class="cls-1" d="M119.2,31.7c.5-1.4,1-2.8,1.4-4.2,1.3-4.6,3-9,4.7-13.4a1.4,1.4,0,0,1,1.4-1h5.4a3.9,3.9,0,0,1,3.7,5.5l-5.3,12.9-4.8,11.7c-.5,1.2-.7,1.3-1.9,1.3s-5-.1-7.5,0a3.9,3.9,0,0,1-3.9-2.6l-7.8-18.1L101,15.2c-.6-1.3-.1-2.1,1.4-2.1h8.9c.9,0,1.2.2,1.6,1.1,2.3,5.6,4.2,11.2,6,17a.8.8,0,0,1,.2.5Z"/><path class="cls-1" d="M246.5,28.4a16.4,16.4,0,0,1,4.1-11.1,16.2,16.2,0,0,1,8.7-4.7,19.2,19.2,0,0,1,11.6.8,17.6,17.6,0,0,1,2,.9,3.4,3.4,0,0,1,.8,5.4l-2.2,2.5a1.8,1.8,0,0,1-2.7.3,7.4,7.4,0,0,0-6.3-.9,6.5,6.5,0,0,0-4.5,5.3,6.6,6.6,0,0,0,1.3,5.7,6.8,6.8,0,0,0,5.5,2.3,7.5,7.5,0,0,0,3.6-1,3.4,3.4,0,0,1,4.2.7l3.1,3.1c1,1,.9,2.1-.3,3a18.7,18.7,0,0,1-14.3,3.6,17.7,17.7,0,0,1-8-2.7,13.7,13.7,0,0,1-6.2-9.9C246.7,30.6,246.7,29.5,246.5,28.4Z"/><path class="cls-1" d="M47.2,16.4c3.5-5.5,11.3-4.7,15-1.5a1.4,1.4,0,0,1,.3,1.7l-3.4,6.2a1.2,1.2,0,0,1-1.9.4,7.6,7.6,0,0,0-5.5-.8,4.9,4.9,0,0,0-3.9,4.8c-.1,1.5,0,3,0,4.5v11c0,1.2-.5,1.6-1.7,1.6h-6a3.9,3.9,0,0,1-4-4.1c-.1-4.3,0-8.6,0-12.9V14.8c0-1.3.4-1.7,1.6-1.7h5.2a3.9,3.9,0,0,1,4.2,3.1C47.2,16.2,47.2,16.3,47.2,16.4Z"/><path class="cls-1" d="M239.4,44.5a5.8,5.8,0,0,1-5.9-4,5.4,5.4,0,0,1,4.6-7.3,7,7,0,0,1,4.3.5,5.3,5.3,0,0,1,3.3,5.6,5.5,5.5,0,0,1-4.5,5Z"/></g></g></svg>