<svg xmlns="http://www.w3.org/2000/svg" viewBox="0 0 143.96 101.23"><defs><style>.cls-1{fill:#ee1b23;}.cls-2{fill:#fff;}</style></defs><g id="Layer_2" data-name="Layer 2"><g id="Layer_2-2" data-name="Layer 2"><path class="cls-1" d="M62.88,17.22V.52c0-.52,0-.52.52-.52H80.58c.47,0,.48,0,.48.48q0,8.1,0,16.19v.53H97.91c0,.18,0,.31,0,.44q0,8.31,0,16.63c0,.38-.1.47-.47.47H81.62c-.55,0-.55,0-.55.57q0,7.94,0,15.89c0,.88.08.74-.75.74H63.43c-.55,0-.55,0-.55-.53V35.25c0-.52,0-.52-.52-.52H46.5c-.49,0-.49,0-.49-.47v-17Z"/><path class="cls-2" d="M23.14,79.11c1.23,0,2.39,0,3.54,0a1.2,1.2,0,0,1,.74.63q3.41,6.93,6.77,13.88a.79.79,0,0,0,.42.41V79.17h3.33v21.68c-1.18,0-2.34.05-3.48,0-.28,0-.61-.46-.77-.78-2.26-4.52-4.48-9-6.71-13.57a2.38,2.38,0,0,0-.7-.92v15.24H23.14Z"/><path class="cls-2" d="M56.73,83.56a27.24,27.24,0,0,0-4.43-1.14,6.14,6.14,0,0,0-6.82,4.89A8.62,8.62,0,0,0,46.71,95,6.39,6.39,0,0,0,53,97.54c.46-.06.85-.14.84-.78,0-1.53,0-3.06,0-4.7H50.23V88.67h7c0,.39,0,.72,0,1,0,3.07,0,6.15,0,9.22,0,.77-.2,1.18-1,1.37a17.27,17.27,0,0,1-7,.46,8.61,8.61,0,0,1-6.93-6,13.57,13.57,0,0,1,.06-9.72c1.78-4.67,6-6.9,11.27-5.84,4,.8,3.19.13,3,4.06A.76.76,0,0,1,56.73,83.56Z"/><path class="cls-2" d="M144,97.56v3.21H133.07V79.16h10.68c0,1,0,1.88,0,2.78,0,.2-.5.5-.77.5-1.78,0-3.55,0-5.32,0h-1.18v5.26h6.61a30.07,30.07,0,0,1-.05,3c0,.2-.56.49-.86.5-1.87,0-3.74,0-5.69,0v6.28Z"/><path class="cls-2" d="M9.92,82.9a26.36,26.36,0,0,0-3.31-.84c-1.95-.25-3.41,1-3.12,2.66a3.75,3.75,0,0,0,1.32,2A22.35,22.35,0,0,0,8,88.8c3.88,2.23,3.72,6.35,2.58,9.12a4.92,4.92,0,0,1-3,2.78,9.75,9.75,0,0,1-6.42,0,1,1,0,0,1-.81-1.2c.11-.9.12-1.82.18-2.89A7,7,0,0,0,1.4,97,15.59,15.59,0,0,0,4.29,98a2.68,2.68,0,0,0,3-1.74,3,3,0,0,0-.93-3.68C5.26,91.67,4,91,2.82,90.16A6.58,6.58,0,0,1,.34,82.65,5.66,5.66,0,0,1,6.1,78.76a29.25,29.25,0,0,1,3.32.5c.63.1.86.42.77,1.06C10.07,81.16,10,82,9.92,82.9Z"/><path class="cls-2" d="M18.08,100.79H14.84V79.16h3.24Z"/><path class="cls-2" d="M112,84.38a8.19,8.19,0,0,0-7.29-5.59c-3.52-.28-6.49.95-8.16,4.15a14.55,14.55,0,0,0,.09,14.22c1.56,2.89,4.28,4.11,7.53,4a8.09,8.09,0,0,0,7.2-4.3,13,13,0,0,0,1.56-6A16.47,16.47,0,0,0,112,84.38ZM108,95.74a4.67,4.67,0,0,1-8.12.08,11,11,0,0,1-1.46-5.89A10.5,10.5,0,0,1,100,84c2.14-3,6.3-3,8.06.28A11.42,11.42,0,0,1,108,95.74Z"/><path class="cls-2" d="M128.09,95.33c-.72-1.81-1.47-3.6-2.16-5.26a9.21,9.21,0,0,0,1.88-1.82,5.89,5.89,0,0,0-5.08-9.14c-1.81,0-3.62,0-5.43,0a5.76,5.76,0,0,0-.74.09v21.6h3.23c0-.32,0-.56,0-.79,0-2.56,0-5.12,0-7.68,0-.68.22-.9.9-.85,1.92.15,2.45.53,3.11,2.38.74,2.08,1.49,4.17,2.28,6.24a1.27,1.27,0,0,0,.79.72c1,.08,2.1,0,3.33,0C129.49,98.92,128.81,97.12,128.09,95.33Zm-4.46-7.73a33.26,33.26,0,0,1-3.76.76V82.5a8,8,0,0,1,4.07.49,2.34,2.34,0,0,1,1.14,2.35A2.23,2.23,0,0,1,123.63,87.6Z"/><path class="cls-2" d="M78.26,99.92l-6.9-18.69c-.8-2.14-.81-2.11-3.09-2.14A1.14,1.14,0,0,0,67,80c-2.13,6-4.31,11.91-6.46,17.87-.35,1-.67,1.91-1,3,1.06,0,2,0,2.9,0a.91.91,0,0,0,1.08-.76c.38-1.28.81-2.54,1.29-3.77a1.19,1.19,0,0,1,.83-.64c2.25,0,4.5-.06,6.75,0a1.25,1.25,0,0,1,.88.69c.52,1.26.91,2.57,1.39,3.84.09.24.36.58.55.59,1.11.06,2.22,0,3.42,0C78.41,100.43,78.35,100.17,78.26,99.92ZM66,92.15c1-2.79,1.88-5.47,2.88-8.42,1,3,1.91,5.62,2.86,8.42Z"/><path class="cls-2" d="M87.74,79.2c-2.22-.22-4.49,0-6.82,0v21.61h3.32V92.39c.77,0,1.41,0,2.06,0,3.66,0,6-1.93,6.6-5.3C93.62,83.05,91.44,79.56,87.74,79.2Zm1.74,6.69c-.09,2-1.35,3.13-3.61,3.2h-.3c-1,0-1.24,0-1.3-.57,0-.19,0-.44,0-.78,0-1.47,0-2.94,0-4.4,0-.67.21-1,.88-.88.34,0,.69,0,1,0C88.53,82.73,89.58,83.8,89.48,85.89Z"/></g></g></svg>