<svg xmlns="http://www.w3.org/2000/svg" viewBox="0 0 849.65 970.43"><defs><style>.cls-1{fill:#fff;}.cls-2{fill:#e31d1a;}</style></defs><g id="Layer_2" data-name="Layer 2"><g id="Layer_1-2" data-name="Layer 1"><path class="cls-1" d="M0,970.43V0H849.65V970.43ZM513.61,680.34c.12-.13.35-.25.35-.37,0-55.87,0-111.74,0-168h165.2V339.53h-165v-168c-17.54-.8-174.23-.47-178.8.4V339.71H170.57V512.18H335.22c.16.33.29.47.29.61q0,83.37,0,166.73a.93.93,0,0,0,.15.45,2.51,2.51,0,0,0,.36.37ZM266.44,746.66c9,17.9,17.71,35.79,26.81,53.31h14.18V722.8H295.14v53.31l-25.8-53.25H254.07v77h12.37Zm240.46,14.2A45.72,45.72,0,0,0,510,781.21a31.29,31.29,0,0,0,15.72,17.49c5.82,2.9,16.61,3.54,22.72,1.24a35.57,35.57,0,0,0,6.94-3.23,36.34,36.34,0,0,0,7.09-6.37c3.94-4.39,5.76-9.93,7.33-15.49a36.21,36.21,0,0,0,1-7.29c.17-2.56-.1-5.16.06-7.73a44.39,44.39,0,0,0-3.16-18.29c-2.91-7.84-8.14-14.08-15.74-17.4a31.09,31.09,0,0,0-23.53-.88c-1.65.6-3.53.88-4.87,1.89a59.38,59.38,0,0,0-8.31,7.27c-4,4.36-5.73,9.94-7.35,15.48a30.76,30.76,0,0,0-1,6.26C506.76,756.38,506.9,758.63,506.9,760.86ZM616,761.3c2.71-1,5.26-1.85,6.51-4.44,1.69-3.51,3.49-7,3.13-11.1-.18-2,.11-4.13-.06-6.18a16.42,16.42,0,0,0-5.65-11.48,24,24,0,0,0-16.26-5.48c-5.84.21-11.69,0-17.53,0-1.31,0-2.61.11-3.72.17v77.25c2.39,0,4.6,0,6.81,0s4.35.29,6.64-.3V767.31c3.84-1,6.91.55,10.25,2.32,3.73,10,7.54,20.33,11.24,30.28H631.8a5,5,0,0,0-.21-1.56c-2.48-4.47-4-9.34-5.9-14.06C622.72,776.74,620.37,769,616,761.3ZM373.49,725.72c-3.83-1-7.67-2.8-11.55-2.88-5.68-.11-11.4-1-17.15.74s-12.58,4.78-15.7,9.3a66.52,66.52,0,0,0-6.52,11.2c-2.51,5.76-2.06,11.83-3.55,17.62-.12.49-.24,1.24,0,1.51,1.61,1.75.83,3.85,1,5.8.06.86-.34,2,.07,2.54,1.78,2.46,1,5.64,2.69,8.21s2.64,5.07,4.37,7.49c5.16,7.22,14.72,12.91,23,12.81,5.54-.06,11.13.65,16.61-1,2.91-.86,5.91-1.43,8.79-2.11.62-14.07.41-36.14-.34-40.05h-26.2v10.76l1.58,1.58h11.55v17.06l-1.41,1.41c-3.67-.34-7.5.5-11.29-1s-7.73-3.15-10.22-6.3a31,31,0,0,1-6.84-19.32c0-2,.64-3.92.83-5.78a24.26,24.26,0,0,1,4.34-11.17,19.68,19.68,0,0,1,13.59-8.93c5.85-.89,11.91-.48,17.29,2.89a50.14,50.14,0,0,0,5,2.44ZM450.41,800c-9.58-26-19-51.65-28.42-77.16H409.82L381.9,799.86H396l6-18.32h27.4c2.19,6,4.42,12.11,6.71,18.42ZM679.2,722.85h-39v77h40v-12.3H653.66V766.07c7.62-.21,15.11.2,22.35-.23v-13.3H653.72V734.93H679.2Zm-221.69-.19v77.43c2.21,0,4.25,0,6.29,0s4-.08,6.11-.12V770.15c2.91,0,5.65-.15,8.36.05a19.94,19.94,0,0,0,6.8-1.09A20.32,20.32,0,0,0,498.92,757a9.14,9.14,0,0,0,.73-1.75,45.7,45.7,0,0,0,1-5.76,42.82,42.82,0,0,0,0-6.7,31.38,31.38,0,0,0-1.95-7.42c-1-3-3.35-4.86-5.31-7.09-3.38-3.85-8-5.17-12.66-5.45C473.08,722.32,465.35,722.66,457.51,722.66Zm-248.07,1.21c-1.12-.19-1.94-.27-2.73-.47-2.17-.56-4.31-1.62-6.49-1.67-4-.1-7.94-.34-12,.8a20.6,20.6,0,0,0-11.79,8.85c-4,6.46-3.91,13.12-1.68,19.86,1.48,4.5,4,8.43,8.54,10.86,3.7,2,6.92,4.81,10.53,7,2.86,1.7,4.86,3.78,5.43,7.13a7,7,0,0,0,.91,1.92c-.35,1.45-.69,2.68-.93,3.93-.61,3.17-3.47,6.38-6.36,6.65-6.3.61-12.06-.8-16.93-5.06-2.23,4.54-1.31,9.39-1.51,13.86.67.67,1,1.27,1.4,1.36,4.3.91,8.42,2.82,13,2.29a34.06,34.06,0,0,1,4.63,0,16.19,16.19,0,0,0,7-1.82c6.62-3,11.51-7.54,12.29-15.3,1.89-2.42.62-5.23.94-7.85.35-2.85-.78-5.5-1.65-8.08-1.53-4.54-4.89-7.74-8.87-10.32-3.66-2.38-7.34-4.73-10.9-7.25-1.9-1.35-4-2.74-5.21-4.64-1.06-1.7-2.52-4-.26-6.3.82-.83,1-2.31,1.34-3.23,2.69-.9,4.75-2.59,7.6-2.4a29.58,29.58,0,0,1,10.78,2.66,13.66,13.66,0,0,0,2.92.63ZM237.28,800V722.66c-2.2,0-4.24,0-6.28,0s-4,.07-5.77.11V800Z"/><path class="cls-2" d="M513.61,680.34H336a2.51,2.51,0,0,1-.36-.37.93.93,0,0,1-.15-.45q0-83.37,0-166.73c0-.14-.13-.28-.29-.61H170.57V339.71H335.32V172c4.57-.87,161.26-1.2,178.8-.4v168h165V512H514c0,56.23,0,112.1,0,168C514,680.09,513.73,680.21,513.61,680.34Z"/><path d="M266.44,746.66v53.22H254.07v-77h15.27l25.8,53.25V722.8h12.29V800H293.25C284.15,782.45,275.41,764.56,266.44,746.66Z"/><path d="M506.9,760.86c0-2.23-.14-4.48,0-6.7a30.76,30.76,0,0,1,1-6.26c1.62-5.54,3.37-11.12,7.35-15.48a59.38,59.38,0,0,1,8.31-7.27c1.34-1,3.22-1.29,4.87-1.89a31.09,31.09,0,0,1,23.53.88c7.6,3.32,12.83,9.56,15.74,17.4a44.39,44.39,0,0,1,3.16,18.29c-.16,2.57.11,5.17-.06,7.73a36.21,36.21,0,0,1-1,7.29c-1.57,5.56-3.39,11.1-7.33,15.49a36.34,36.34,0,0,1-7.09,6.37,35.57,35.57,0,0,1-6.94,3.23c-6.11,2.3-16.9,1.66-22.72-1.24A31.29,31.29,0,0,1,510,781.21,45.72,45.72,0,0,1,506.9,760.86Zm13.42.39c0,1.54,0,3.09,0,4.63a30.12,30.12,0,0,0,5,16.49,15.66,15.66,0,0,0,7.91,6.16c3,1.2,6.34,2,9.93.33,3.37-1.58,6.38-3,8.71-6.22,3.7-5.1,5.09-10.83,5.48-16.77.3-4.62.43-9.3-.73-14a39.42,39.42,0,0,0-3.28-9.48c-2.34-4.3-3.32-5-7.78-7.45-2.71-1.5-5.54-2.47-8.45-1.84a21.76,21.76,0,0,0-8.71,3.75,18,18,0,0,0-5.87,8.34c-1.31,3.79-2.72,7.74-2.25,12A35.19,35.19,0,0,1,520.32,761.25Z"/><path d="M616,761.3c4.36,7.65,6.71,15.44,9.68,23,1.86,4.72,3.42,9.59,5.9,14.06a5,5,0,0,1,.21,1.56H617.37c-3.7-9.95-7.51-20.23-11.24-30.28-3.34-1.77-6.41-3.33-10.25-2.32v32.47c-2.29.59-4.48.24-6.64.3s-4.42,0-6.81,0V722.84c1.11-.06,2.41-.16,3.72-.17,5.84,0,11.69.16,17.53,0a24,24,0,0,1,16.26,5.48,16.42,16.42,0,0,1,5.65,11.48c.17,2-.12,4.14.06,6.18.36,4.13-1.44,7.59-3.13,11.1C621.27,759.45,618.72,760.27,616,761.3Zm-20.25-6.74c6.63.54,12.36-.28,16.42-5.67V742c-.77-3.6-2.62-5.29-4.71-5.74-3.79-.81-7.75-.87-11.71-1.25Z"/><path d="M373.49,725.72v14.84a50.14,50.14,0,0,1-5-2.44c-5.38-3.37-11.44-3.78-17.29-2.89a19.68,19.68,0,0,0-13.59,8.93,24.26,24.26,0,0,0-4.34,11.17c-.19,1.86-.84,3.81-.83,5.78a31,31,0,0,0,6.84,19.32c2.49,3.15,6.4,4.78,10.22,6.3s7.62.67,11.29,1l1.41-1.41V769.27H350.64l-1.58-1.58V756.93h26.2c.75,3.91,1,26,.34,40.05-2.88.68-5.88,1.25-8.79,2.11-5.48,1.62-11.07.91-16.61,1-8.32.1-17.88-5.59-23-12.81-1.73-2.42-2.82-5.07-4.37-7.49s-.91-5.75-2.69-8.21c-.41-.56,0-1.68-.07-2.54-.16-2,.62-4-1-5.8-.26-.27-.14-1,0-1.51,1.49-5.79,1-11.86,3.55-17.62a66.52,66.52,0,0,1,6.52-11.2c3.12-4.52,9.88-7.53,15.7-9.3s11.47-.85,17.15-.74C365.82,722.92,369.66,724.71,373.49,725.72Z"/><path d="M450.41,800H436.17c-2.29-6.31-4.52-12.43-6.71-18.42h-27.4l-6,18.32H381.9l27.92-77.06H422C431.39,748.31,440.83,773.93,450.41,800ZM415.68,741l-9.74,28.11c6.59-.17,13,.23,19.34-.23Z"/><path d="M679.2,722.85v12.08H653.72v17.61H676v13.3c-7.24.43-14.73,0-22.35.23v21.51H680.2v12.3h-40v-77Z"/><path d="M457.51,722.66c7.84,0,15.57-.34,23.24.13,4.65.28,9.28,1.6,12.66,5.45,2,2.23,4.28,4.06,5.31,7.09a31.38,31.38,0,0,1,1.95,7.42,42.82,42.82,0,0,1,0,6.7,45.7,45.7,0,0,1-1,5.76,9.14,9.14,0,0,1-.73,1.75,20.32,20.32,0,0,1-13.85,12.15,19.94,19.94,0,0,1-6.8,1.09c-2.71-.2-5.45-.05-8.36-.05V800c-2.14,0-4.12.1-6.11.12s-4.08,0-6.29,0Zm12.4,12.11v22.92c6.87.24,13.69.92,17.37-6.87v-9.05c-.66-3.2-4-3.65-5.74-5.6Z"/><path d="M209.44,723.87v13.36a13.66,13.66,0,0,1-2.92-.63,29.58,29.58,0,0,0-10.78-2.66c-2.85-.19-4.91,1.5-7.6,2.4-.36.92-.52,2.4-1.34,3.23-2.26,2.3-.8,4.6.26,6.3,1.18,1.9,3.31,3.29,5.21,4.64,3.56,2.52,7.24,4.87,10.9,7.25,4,2.58,7.34,5.78,8.87,10.32.87,2.58,2,5.23,1.65,8.08-.32,2.62.95,5.43-.94,7.85-.78,7.76-5.67,12.31-12.29,15.3a16.19,16.19,0,0,1-7,1.82,34.06,34.06,0,0,0-4.63,0c-4.57.53-8.69-1.38-13-2.29-.42-.09-.73-.69-1.4-1.36.2-4.47-.72-9.32,1.51-13.86,4.87,4.26,10.63,5.67,16.93,5.06,2.89-.27,5.75-3.48,6.36-6.65.24-1.25.58-2.48.93-3.93a7,7,0,0,1-.91-1.92c-.57-3.35-2.57-5.43-5.43-7.13-3.61-2.16-6.83-5-10.53-7-4.57-2.43-7.06-6.36-8.54-10.86-2.23-6.74-2.3-13.4,1.68-19.86a20.6,20.6,0,0,1,11.79-8.85c4-1.14,8-.9,12-.8,2.18,0,4.32,1.11,6.49,1.67C207.5,723.6,208.32,723.68,209.44,723.87Z"/><path d="M237.28,800H225.23V722.78c1.79,0,3.78-.09,5.77-.11s4.08,0,6.28,0Z"/><path class="cls-1" d="M520.32,761.25a35.19,35.19,0,0,0,0-4.11c-.47-4.23.94-8.18,2.25-12a18,18,0,0,1,5.87-8.34,21.76,21.76,0,0,1,8.71-3.75c2.91-.63,5.74.34,8.45,1.84,4.46,2.48,5.44,3.15,7.78,7.45a39.42,39.42,0,0,1,3.28,9.48c1.16,4.72,1,9.4.73,14-.39,5.94-1.78,11.67-5.48,16.77-2.33,3.21-5.34,4.64-8.71,6.22-3.59,1.69-6.91.87-9.93-.33a15.66,15.66,0,0,1-7.91-6.16,30.12,30.12,0,0,1-5-16.49C520.31,764.34,520.32,762.79,520.32,761.25Z"/><path class="cls-1" d="M595.76,754.56V735c4,.38,7.92.44,11.71,1.25,2.09.45,3.94,2.14,4.71,5.74v6.94C608.12,754.28,602.39,755.1,595.76,754.56Z"/><path class="cls-1" d="M415.68,741l9.6,27.88c-6.33.46-12.75.06-19.34.23Z"/><path class="cls-1" d="M469.91,734.77l11.63,1.4c1.73,2,5.08,2.4,5.74,5.6v9.05c-3.68,7.79-10.5,7.11-17.37,6.87Z"/></g></g></svg>