<svg xmlns="http://www.w3.org/2000/svg" viewBox="0 0 247.25 41.09"><defs><style>.cls-1{fill:#fff;}.cls-2{fill:#fe7351;}</style></defs><g id="Layer_2" data-name="Layer 2"><g id="Layer_2-2" data-name="Layer 2"><path class="cls-1" d="M0,.91.46,1c.87,1,.64,2.3.64,3.49q0,15.61,0,31.23c0,3.45.07,3.53,3.42,3.51,5.6,0,5,.62,5.07-5,0-4.78,0-9.56,0-14.33,0-1-.3-2.2,1.1-2.64,0,7-.05,14,0,21.07,0,1.55-.37,2.14-2,2.07-2.9-.13-5.82,0-8.73,0Z"/><path class="cls-1" d="M10.73,17.19c-.74.61-.43,1.45-.43,2.2,0,6.06-.1,12.12,0,18.17.05,2-.59,2.49-2.43,2.34a39.68,39.68,0,0,0-5.56,0C.83,40,.39,39.43.4,38c.06-12.34,0-24.67,0-37C3.81.94,7.16,1,10.51.87a2.91,2.91,0,0,1,2.87,1.7Q19.13,11.92,25,21.21c.46.73.7,1.75,2,2.1V15.22c0-4.2,0-8.41,0-12.61,0-1.3.42-1.77,1.72-1.72C31,1,33.25,1,35.53.89c1.23,0,1.79.29,1.78,1.66q-.06,18.06,0,36.13c0,1.23-.45,1.6-1.63,1.57-2.56-.06-5.14-.11-7.7,0a3.09,3.09,0,0,1-3.09-1.66c-4.35-6.82-8.78-13.6-13.17-20.4C11.45,17.79,11.29,17.31,10.73,17.19Z"/><path class="cls-1" d="M158.58.91c4.64,0,9.28,0,13.92,0,1.36,0,1.95.33,1.87,1.78a46.45,46.45,0,0,0,0,5.78c.11,1.59-.56,1.92-2,1.85-2.14-.1-4.29.09-6.43-.06-1.75-.11-2.31.42-2.29,2.24.09,8.49,0,17,.09,25.46,0,1.94-.57,2.48-2.42,2.34a37.44,37.44,0,0,0-6,0c-1.84.14-2.45-.38-2.42-2.33.11-8.49,0-17,.09-25.46,0-1.8-.51-2.37-2.29-2.25-2.06.15-4.14-.05-6.2.07-1.56.08-2-.54-1.9-2a41.53,41.53,0,0,0,0-5.35c-.1-1.56.38-2.13,2-2.1C149.3,1,153.94.91,158.58.91Z"/><path class="cls-2" d="M94.24.9c4,0,7.51,0,11.07,0a2.26,2.26,0,0,1,2.17,1.33q5.49,8.61,11.07,17.17a1.81,1.81,0,0,1,0,2.29q-5.75,8.83-11.37,17.74a1.78,1.78,0,0,1-1.75.89c-3.63,0-7.26,0-11.09,0a37.4,37.4,0,0,1,3.52-5.9c2.58-4.17,5.27-8.26,8-12.33a2.29,2.29,0,0,0,0-3C102.22,13.56,98.69,8,95.12,2.43,94.87,2,94.64,1.6,94.24.9Z"/><path class="cls-2" d="M184.64,20.59c0-5.92,0-11.84,0-17.75,0-1.41.24-2.06,1.84-2,2.49.13,5,.08,7.49,0,1.09,0,1.49.28,1.49,1.43q-.06,18.3,0,36.59c0,1.17-.43,1.44-1.5,1.41-2.57-.06-5.14-.1-7.71,0-1.43.06-1.61-.56-1.6-1.77C184.66,32.57,184.64,26.58,184.64,20.59Z"/><path class="cls-1" d="M127.3,28.3l7.61,11.83H119.69Z"/><path class="cls-1" d="M119.74,1h15.18c-2.42,3.78-4.69,7.33-7,10.86-.54.83-1,.43-1.44-.22C124.29,8.19,122.09,4.73,119.74,1Z"/><path class="cls-2" d="M246.81,17c-1.66-10.52-9.09-15.59-17.69-16-6.55-.3-13.13,0-19.69-.09-1.13,0-1.64.21-1.63,1.5q.06,18.18,0,36.36c0,1.2.33,1.59,1.56,1.58,6.42-.06,12.85.1,19.26-.07C237.35,40,244,34.87,246.23,27c.32-1.13.17-2.4,1-3.36V21.46a1,1,0,0,1,0-1.71V18C246.71,17.83,246.87,17.34,246.81,17ZM233.62,28.5a8,8,0,0,1-4.35,2.09c-3.11.54-6.25.14-9.38.25-1.12,0-1-.79-1-1.48,0-2.92,0-5.83,0-8.75s.08-5.7,0-8.54c-.06-1.45.47-1.85,1.83-1.75,3,.21,6.13-.39,9.14.37a7.9,7.9,0,0,1,6.3,6.49C236.93,21.28,236.91,25.26,233.62,28.5Z"/><path class="cls-1" d="M83.62,5.67A20.62,20.62,0,0,0,64.56.55c-8,1.73-13.7,6.41-16,14.39-2.14,7.62-.42,14.61,5.3,20.22C61.27,42.38,75.31,43,83.66,37c1.71-1.24,2-2.18.6-3.77A21.59,21.59,0,0,1,82.2,30c-.75-1.3-1.46-1.87-2.89-.65A15.69,15.69,0,0,1,71,32.87c-5.2.73-10.82-2.57-12.37-7.4-.45-1.38-.29-1.92,1.32-1.89,4.64.08,9.28,0,13.92,0H87.79c.76,0,1.64.17,1.74-1C90.08,16.07,88.52,10.14,83.62,5.67ZM77,16.33c-2.78-.12-5.56,0-8.34,0s-5.7,0-8.56,0c-1.41,0-1.57-.5-1-1.66,2-4.15,5.37-6.14,9.81-6.41,3.79-.23,7.67,2.36,9.36,6C78.93,15.64,79,16.43,77,16.33Z"/></g></g></svg>