<svg xmlns="http://www.w3.org/2000/svg" viewBox="0 0 1594.96 147.76"><defs><style>.cls-1{fill:#fff;}</style></defs><g id="Layer_2" data-name="Layer 2"><g id="Layer_2-2" data-name="Layer 2"><path class="cls-1" d="M77.14,86H91.08v24.27H73.88L69,144.14H42.74l4.7-33.86H40.2l-4.89,33.86H9.05l4.71-33.86H0V86H17.2l1.81-12H5.07V49.8h17.2L27,15.94H53.42L48.53,49.8H56l4.89-33.86H87.1L82.21,49.8H96V74.06H78.77ZM43.46,86h7.42l1.82-12H45.09Z"/><path class="cls-1" d="M112.09,108.11l48-56.5h-46V15.94H216.39V47.08l-51.06,60.3h52.51v36.76H112.09Z"/><path class="cls-1" d="M237.76,15.94h43.46v128.2H237.76Z"/><path class="cls-1" d="M305.12,15.94h43.46V107h42.56v37.12h-86Z"/><path class="cls-1" d="M393.31,80a69.28,69.28,0,0,1,5.43-27.89,64.07,64.07,0,0,1,14.85-21.37,65.72,65.72,0,0,1,22.18-13.67A77.08,77.08,0,0,1,463,12.31a81.92,81.92,0,0,1,28.07,4.8,65.09,65.09,0,0,1,22.09,13L486.75,61.93a23.31,23.31,0,0,0-9.06-7.15,29.21,29.21,0,0,0-12.13-2.45,27,27,0,0,0-10.14,1.9,23.88,23.88,0,0,0-8.24,5.53,25.65,25.65,0,0,0-5.52,8.78,31.65,31.65,0,0,0-2,11.5,29.07,29.07,0,0,0,2.08,11.32,27.36,27.36,0,0,0,5.61,8.6,23.86,23.86,0,0,0,8.24,5.52,26.31,26.31,0,0,0,10,1.9,25.08,25.08,0,0,0,12.77-3.08,27.07,27.07,0,0,0,8.42-7.24l26.44,31.69a63.92,63.92,0,0,1-21.37,13.85,80.74,80.74,0,0,1-56.05.28A66,66,0,0,1,413.59,129a65.2,65.2,0,0,1-14.85-21.37A68.09,68.09,0,0,1,393.31,80Z"/><path class="cls-1" d="M625.46,96.16A51.62,51.62,0,0,1,621,118.07a48.14,48.14,0,0,1-11.95,16.2,51.74,51.74,0,0,1-17.38,10,63.67,63.67,0,0,1-41.29,0,50.76,50.76,0,0,1-17.29-10,48.58,48.58,0,0,1-11.86-16.2,51.62,51.62,0,0,1-4.44-21.91,50.54,50.54,0,0,1,4.44-21.64,48,48,0,0,1,11.86-16,50.52,50.52,0,0,1,17.29-9.87,65.29,65.29,0,0,1,41.29,0,51.5,51.5,0,0,1,17.38,9.87,47.56,47.56,0,0,1,11.95,16A50.54,50.54,0,0,1,625.46,96.16ZM571,80.58a14.27,14.27,0,0,0-11.13,4.71,15.94,15.94,0,0,0-4.26,11,16.22,16.22,0,0,0,4.35,11.41,15.75,15.75,0,0,0,22.45,0,16.22,16.22,0,0,0,4.35-11.41,15.58,15.58,0,0,0-4.44-11A14.87,14.87,0,0,0,571,80.58Z"/><path class="cls-1" d="M629.8,48.89h46.36l13.58,51.43h.73l13-51.43h44.73l-36.76,95.25H666Z"/><path class="cls-1" d="M755.83,21.37a20.13,20.13,0,0,1,1.73-8.24,21.24,21.24,0,0,1,4.7-6.79,23.28,23.28,0,0,1,7-4.62A21.23,21.23,0,0,1,777.75,0a19.54,19.54,0,0,1,8.15,1.72,24,24,0,0,1,6.79,4.62,21.4,21.4,0,0,1,4.7,6.79,20.12,20.12,0,0,1,1.72,8.24,20.59,20.59,0,0,1-6.42,15.12,23.21,23.21,0,0,1-6.79,4.43,20.45,20.45,0,0,1-8.15,1.63,22.25,22.25,0,0,1-8.52-1.63,22.58,22.58,0,0,1-7-4.43,20.23,20.23,0,0,1-4.7-6.7A20.56,20.56,0,0,1,755.83,21.37Zm.73,27.52h41.83v95.25H756.56Z"/><path class="cls-1" d="M814,96.16a59.71,59.71,0,0,1,2.81-18.11A51.25,51.25,0,0,1,825,62.11,41.6,41.6,0,0,1,838.59,50.7a39.49,39.49,0,0,1,18.83-4.34A38.35,38.35,0,0,1,871.18,49a26.66,26.66,0,0,1,11.05,7.52h.36V7.24h41.83v136.9H886.78v-10h-.37a27.63,27.63,0,0,1-12.13,9.15,43.13,43.13,0,0,1-16.85,3.35,39.45,39.45,0,0,1-18.84-4.35A41.13,41.13,0,0,1,825,130.83a52,52,0,0,1-8.24-16.2A62.13,62.13,0,0,1,814,96.16Zm38.75,0a16.92,16.92,0,0,0,4,11.49q4,4.62,11.59,4.62,7.41,0,11.86-4.71a16,16,0,0,0,4.43-11.4,15.62,15.62,0,0,0-4.43-11q-4.44-4.71-11.86-4.71-7.6,0-11.59,4.71A16.56,16.56,0,0,0,852.71,96.16Z"/><path class="cls-1" d="M1024,95.43H988.89v48.71h-43.1V15.94H988.7V59.4h35.13V15.94h43.28v128.2H1024Z"/><path class="cls-1" d="M1188.07,97.42q0,2.35-.09,4.8t-.27,4.08h-64.1a8.12,8.12,0,0,0,1.72,4.52,14.63,14.63,0,0,0,3.8,3.44,17.24,17.24,0,0,0,5.07,2.18,22.86,22.86,0,0,0,5.71.72,20.3,20.3,0,0,0,9.68-2.08,18.39,18.39,0,0,0,5.89-4.62l29.7,15a43.86,43.86,0,0,1-18.38,16.3q-12,6-28,6a63,63,0,0,1-20.1-3.26,51.14,51.14,0,0,1-17.29-9.68,47.29,47.29,0,0,1-12-16,51.64,51.64,0,0,1-4.52-22.27A52.44,52.44,0,0,1,1089,75.24a47.74,47.74,0,0,1,11.32-16.12,50.83,50.83,0,0,1,16.84-10.23,58.83,58.83,0,0,1,20.73-3.62,52.3,52.3,0,0,1,20.47,3.89A46.49,46.49,0,0,1,1174.22,60a48.7,48.7,0,0,1,10.23,16.57A58.39,58.39,0,0,1,1188.07,97.42Zm-36-13.58a10.6,10.6,0,0,0-3.71-8.33q-3.72-3.26-10-3.26-6.88,0-10.69,3.81a13.83,13.83,0,0,0-4.34,7.78Z"/><path class="cls-1" d="M1202.74,48.89h40.2V59.76h.36a25.29,25.29,0,0,1,9.15-9.6,26.22,26.22,0,0,1,14.21-3.8,29.11,29.11,0,0,1,8,.9l-3.26,35.49a29.39,29.39,0,0,0-4.44-.81,40.74,40.74,0,0,0-4.43-.27q-8.16,0-13,4.71A15.45,15.45,0,0,0,1244.57,98v46.17h-41.83Z"/><path class="cls-1" d="M1384.91,96.16a51.62,51.62,0,0,1-4.44,21.91,48.14,48.14,0,0,1-12,16.2,51.74,51.74,0,0,1-17.38,10,63.67,63.67,0,0,1-41.29,0,50.76,50.76,0,0,1-17.29-10,48.58,48.58,0,0,1-11.86-16.2,51.62,51.62,0,0,1-4.44-21.91,50.54,50.54,0,0,1,4.44-21.64,48,48,0,0,1,11.86-16,50.52,50.52,0,0,1,17.29-9.87,65.29,65.29,0,0,1,41.29,0,51.5,51.5,0,0,1,17.38,9.87,47.56,47.56,0,0,1,12,16A50.54,50.54,0,0,1,1384.91,96.16ZM1330.4,80.58a14.27,14.27,0,0,0-11.13,4.71,15.94,15.94,0,0,0-4.26,11,16.22,16.22,0,0,0,4.35,11.41,15.75,15.75,0,0,0,22.45,0,16.22,16.22,0,0,0,4.35-11.41,15.58,15.58,0,0,0-4.44-11A14.87,14.87,0,0,0,1330.4,80.58Z"/><path class="cls-1" d="M1499.72,97.42c0,1.57,0,3.17-.1,4.8s-.15,3-.27,4.08h-64.1a8.12,8.12,0,0,0,1.72,4.52,14.63,14.63,0,0,0,3.8,3.44,17.24,17.24,0,0,0,5.07,2.18,22.86,22.86,0,0,0,5.71.72,20.3,20.3,0,0,0,9.68-2.08,18.39,18.39,0,0,0,5.89-4.62l29.7,15a43.86,43.86,0,0,1-18.38,16.3q-12,6-28,6a63,63,0,0,1-20.1-3.26,51.14,51.14,0,0,1-17.29-9.68,47.42,47.42,0,0,1-12-16,51.79,51.79,0,0,1-4.52-22.27,52.44,52.44,0,0,1,4.16-21.28A47.74,47.74,0,0,1,1412,59.12a50.83,50.83,0,0,1,16.84-10.23,58.84,58.84,0,0,1,20.74-3.62A52.28,52.28,0,0,1,1470,49.16,46.49,46.49,0,0,1,1485.86,60a48.7,48.7,0,0,1,10.23,16.57A58.39,58.39,0,0,1,1499.72,97.42Zm-36-13.58a10.6,10.6,0,0,0-3.71-8.33q-3.72-3.26-10-3.26-6.89,0-10.69,3.81a13.83,13.83,0,0,0-4.34,7.78Z"/><path class="cls-1" d="M1592.25,113.9q0,9.6-4.06,16.12a32.07,32.07,0,0,1-10.28,10.41,44.11,44.11,0,0,1-13.6,5.61,62,62,0,0,1-14.08,1.72,84.06,84.06,0,0,1-24.17-3.53,64.38,64.38,0,0,1-20.55-10L1526,110.46a34.65,34.65,0,0,0,10.23,6.43,29.45,29.45,0,0,0,11.32,2.44,10.23,10.23,0,0,0,4.07-.81,3,3,0,0,0,1.9-3c0-1.57-1.11-2.81-3.35-3.71a91.78,91.78,0,0,0-11.68-3.35,53.46,53.46,0,0,1-9.23-3.17,33.21,33.21,0,0,1-8.6-5.52,28,28,0,0,1-6.43-8.42,25.87,25.87,0,0,1-2.54-11.86,29.13,29.13,0,0,1,4.08-15.76,33.9,33.9,0,0,1,10.32-10.59,45.68,45.68,0,0,1,13.58-6,55.65,55.65,0,0,1,13.85-1.9,75.93,75.93,0,0,1,21.91,3.26,72.49,72.49,0,0,1,19.56,9L1575.4,80.94a43,43,0,0,0-9.23-4.52,28,28,0,0,0-9.23-1.63,13.61,13.61,0,0,0-5.08.81,3.11,3.11,0,0,0-2,3.17c0,1.21.75,2.15,2.25,2.81a64.53,64.53,0,0,0,10.37,2.62,55.18,55.18,0,0,1,10.91,3.35,38.08,38.08,0,0,1,9.56,5.8,26.31,26.31,0,0,1,6.76,8.6A26.57,26.57,0,0,1,1592.25,113.9Z"/></g></g></svg>