<svg viewBox="0 0 156 150" fill="none" xmlns="http://www.w3.org/2000/svg">
<path d="M135 104.5C135 53.9659 94.2579 13 44 13C-6.25791 13 -47 53.9659 -47 104.5C-47 155.034 -6.25791 196 44 196C94.2579 196 135 155.034 135 104.5Z" fill="#057A8E"/>
<path d="M197 59.5C197 18.3548 163.645 -15 122.5 -15C81.3548 -15 48 18.3548 48 59.5C48 100.645 81.3548 134 122.5 134C163.645 134 197 100.645 197 59.5Z" fill="#535461"/>
<path d="M190.525 145.131C190.525 100.994 154.744 65.2131 110.607 65.2131C66.4691 65.2131 30.6885 100.994 30.6885 145.131C30.6885 189.269 66.4691 225.049 110.607 225.049C154.744 225.049 190.525 189.269 190.525 145.131Z" fill="#29CCC4"/>
</svg>
