<svg width="465" height="289" viewBox="0 0 465 289" fill="none" xmlns="http://www.w3.org/2000/svg">
<g clip-path="url(#clip0)">
<path d="M119.869 286.847C55.6616 287.11 3.40073 288.247 3.40073 288.247C3.40073 288.247 65.3478 181.213 119.528 221.015C173.709 260.816 235.917 287.293 235.917 287.293C235.917 287.293 184.077 286.584 119.869 286.847Z" fill="#E6E6E6"/>
<path d="M267.291 271.843C181.958 272.193 112.501 273.315 112.501 273.315C112.501 273.315 195.062 175.981 266.981 212.042C338.9 248.104 421.517 272.048 421.517 272.048C421.517 272.048 352.623 271.493 267.291 271.843Z" fill="#E6E6E6"/>
<path d="M116.47 287.872C52.2622 288.135 -3.05176e-05 289 -3.05176e-05 289C-3.05176e-05 289 62.1096 213.372 116.229 241.402C170.349 269.432 232.516 288.046 232.516 288.046C232.516 288.046 180.677 287.608 116.47 287.872Z" fill="#F2F2F2"/>
<path d="M97.58 130.019V127.986C97.5798 127.723 97.6513 127.464 97.7883 127.231C97.9253 126.998 98.1237 126.798 98.3666 126.648C98.6095 126.499 98.8895 126.403 99.1828 126.371C99.476 126.339 99.7737 126.37 100.05 126.463C107.566 128.969 131.756 135.261 166.096 126.756C166.628 126.623 167.188 126.601 167.732 126.693C168.276 126.784 168.788 126.986 169.229 127.283C169.67 127.581 170.029 127.964 170.275 128.405C170.522 128.846 170.651 129.332 170.652 129.824C170.653 130.411 170.46 130.986 170.097 131.477C169.734 131.968 169.217 132.352 168.61 132.584C161.111 135.43 133.73 143.961 99.4281 132.391C98.886 132.209 98.4188 131.885 98.0888 131.461C97.7587 131.037 97.5812 130.534 97.58 130.019Z" fill="#3F3D56"/>
<path opacity="0.2" d="M97.58 130.019V127.986C97.5798 127.723 97.6513 127.464 97.7883 127.231C97.9253 126.998 98.1237 126.798 98.3666 126.648C98.6095 126.499 98.8895 126.403 99.1828 126.371C99.476 126.339 99.7737 126.37 100.05 126.463C107.566 128.969 131.756 135.261 166.096 126.756C166.628 126.623 167.188 126.601 167.732 126.693C168.276 126.784 168.788 126.986 169.229 127.283C169.67 127.581 170.029 127.964 170.275 128.405C170.522 128.846 170.651 129.332 170.652 129.824C170.653 130.411 170.46 130.986 170.097 131.477C169.734 131.968 169.217 132.352 168.61 132.584C161.111 135.43 133.73 143.961 99.4281 132.391C98.886 132.209 98.4188 131.885 98.0888 131.461C97.7587 131.037 97.5812 130.534 97.58 130.019Z" fill="black"/>
<path d="M97.58 126.565V129.88C97.5797 130.071 97.6318 130.259 97.7318 130.427C97.8318 130.596 97.9766 130.741 98.1536 130.848C98.3307 130.956 98.5346 131.023 98.7476 131.045C98.9606 131.066 99.1763 131.041 99.3758 130.971C106.183 128.598 131.892 121.316 168.774 131.136C168.992 131.193 169.222 131.205 169.446 131.169C169.67 131.134 169.882 131.052 170.064 130.931C170.247 130.81 170.395 130.652 170.497 130.471C170.599 130.29 170.652 130.09 170.652 129.888V127.503C170.652 126.876 170.444 126.262 170.055 125.74C169.666 125.217 169.112 124.809 168.463 124.565C160.708 121.646 133.144 113.205 98.7432 125.047C98.4001 125.166 98.1054 125.375 97.8979 125.646C97.6903 125.917 97.5796 126.237 97.58 126.565Z" fill="#3F3D56"/>
<path d="M71.3883 197.644C74.4686 200.312 74.8449 204.415 74.8449 204.415C74.8449 204.415 70.2269 204.191 67.1466 201.522C64.0662 198.853 63.69 194.75 63.69 194.75C63.69 194.75 68.308 194.975 71.3883 197.644Z" fill="#29CCC4"/>
<path d="M190.782 195.034C187.557 197.563 182.933 197.584 182.933 197.584C182.933 197.584 183.537 193.503 186.762 190.973C189.987 188.443 194.612 188.423 194.612 188.423C194.612 188.423 194.008 192.504 190.782 195.034Z" fill="#29CCC4"/>
<path d="M211.316 238.895C208.091 241.425 203.466 241.445 203.466 241.445C203.466 241.445 204.07 237.364 207.295 234.834C210.52 232.305 215.145 232.284 215.145 232.284C215.145 232.284 214.541 236.365 211.316 238.895Z" fill="#29CCC4"/>
<path d="M247.455 240.723C244.23 243.252 239.605 243.273 239.605 243.273C239.605 243.273 240.209 239.192 243.434 236.662C246.659 234.132 251.284 234.112 251.284 234.112C251.284 234.112 250.68 238.193 247.455 240.723Z" fill="#29CCC4"/>
<path d="M44.4867 238.548C40.6508 236.821 38.9138 233.006 38.9138 233.006C38.9138 233.006 43.396 231.992 47.2319 233.719C51.0677 235.446 52.8047 239.261 52.8047 239.261C52.8047 239.261 48.3226 240.276 44.4867 238.548Z" fill="#29CCC4"/>
<path d="M245.264 24.811C238.477 26.7241 231.41 27.7321 224.291 27.802C232.187 24.5832 238.498 18.9187 242.048 11.8644C234.637 14.868 226.7 16.7121 218.585 17.3157C214.3 12.2138 208.388 8.37809 201.62 6.30759C194.851 4.23709 187.54 4.02771 180.636 5.70671C173.732 7.38571 167.556 10.8753 162.911 15.7215C158.266 20.5677 155.367 26.546 154.592 32.8785C154.279 35.3013 154.287 37.7485 154.617 40.1696C140.591 38.166 127.197 33.553 115.309 26.6315C103.42 19.7099 93.3055 10.6355 85.6235 0C80.2278 6.51273 77.8244 14.6112 78.9029 22.6459C79.9813 30.6806 84.4604 38.0473 91.428 43.2455C85.7925 42.5677 80.4292 40.6721 75.8066 37.7242L75.7582 38.1152C74.8549 45.4045 76.8129 52.7474 81.3001 58.898C85.7873 65.0486 92.5273 69.6279 100.376 71.8589C97.2421 72.2955 94.0567 72.3605 90.9033 72.052C88.6653 71.8362 86.4574 71.4209 84.3126 70.8126C85.8006 77.3083 89.533 83.2276 94.9877 87.7419C100.442 92.2563 107.346 95.1399 114.733 95.9892C101.09 103.543 84.9853 106.787 69.0171 105.197C66.1908 104.916 63.3857 104.487 60.6162 103.912C70.4957 111.123 81.845 116.571 94.0425 119.958C103.236 112.744 123.916 109.041 147.267 111.329C154.674 112.035 161.99 113.359 169.118 115.284C201.708 101.007 221.689 71.6093 225.163 43.5202C225.332 42.1516 225.465 40.7794 225.557 39.4362C233.05 35.6413 239.723 30.6889 245.264 24.811Z" fill="#1DA1F3"/>
<path d="M107.572 128.573L97.3456 236.578L98.1642 236.64L108.391 128.634L107.572 128.573Z" fill="#2F2E41"/>
<path d="M158.029 128.534L157.222 128.67L180.323 236.679L181.13 236.542L158.029 128.534Z" fill="#2F2E41"/>
<path d="M117.81 136.985L114.201 236.599L115.022 236.622L118.631 137.008L117.81 136.985Z" fill="#2F2E41"/>
<path d="M149.672 137.286L148.853 137.342L157.32 236.638L158.139 236.583L149.672 137.286Z" fill="#2F2E41"/>
<path d="M139.249 243.19C163.517 243.19 183.191 240.244 183.191 236.61C183.191 232.977 163.517 230.031 139.249 230.031C114.981 230.031 95.3075 232.977 95.3075 236.61C95.3075 240.244 114.981 243.19 139.249 243.19Z" fill="#2F2E41"/>
<path d="M156.48 255.009L153.467 260.476C153.467 260.476 148.019 259.857 150.221 266.252C150.221 266.252 149.642 271.1 148.483 272.132C147.324 273.164 149.41 279.972 153.582 278.012C155.929 276.909 156.076 275.644 155.755 274.747C155.257 273.41 155.16 271.981 155.473 270.601C155.934 268.524 156.783 266.531 157.986 264.705C160.652 260.888 163.202 257.175 163.202 257.175L156.48 255.009Z" fill="#FFB8B8"/>
<path d="M148.947 221.381C148.947 221.381 142.341 219.937 140.138 220.969C137.936 222 131.446 222.104 131.446 222.104C131.446 222.104 125.999 229.943 127.274 233.966C128.549 237.989 133.88 240.465 133.88 240.465L151.844 240.568L154.741 230.046C154.741 230.046 153.351 222.826 152.192 222.413C151.033 222 148.947 221.381 148.947 221.381Z" fill="#3F3D56"/>
<path d="M143.036 194.149C148.477 194.149 152.887 190.224 152.887 185.381C152.887 180.539 148.477 176.614 143.036 176.614C137.595 176.614 133.185 180.539 133.185 185.381C133.185 190.224 137.595 194.149 143.036 194.149Z" fill="#2F2E41"/>
<path d="M136.893 192.912C136.893 192.912 138.052 197.244 136.314 197.76C134.575 198.275 133.069 200.338 133.069 200.338L135.619 204.155L144.311 206.115L146.976 203.846L148.947 198.997L146.976 197.76C146.976 197.76 145.122 198.275 145.006 196.625C144.951 195.386 144.989 194.146 145.122 192.911L136.893 192.912Z" fill="#FFB8B8"/>
<path opacity="0.1" d="M136.893 192.912C136.893 192.912 138.052 197.244 136.314 197.76C134.575 198.275 133.069 200.338 133.069 200.338L135.619 204.155L144.311 206.115L146.976 203.846L148.947 198.997L146.976 197.76C146.976 197.76 145.122 198.275 145.006 196.625C144.951 195.386 144.989 194.146 145.122 192.911L136.893 192.912Z" fill="black"/>
<path d="M141.355 195.748C145.26 195.748 148.425 192.931 148.425 189.456C148.425 185.981 145.26 183.164 141.355 183.164C137.451 183.164 134.286 185.981 134.286 189.456C134.286 192.931 137.451 195.748 141.355 195.748Z" fill="#FFB8B8"/>
<path d="M140.95 203.846L134.228 198.379C134.228 198.379 131.215 200.648 130.867 200.648C130.519 200.648 125.999 201.886 125.883 202.401C125.767 202.917 129.824 208.384 129.824 208.384C129.824 208.384 128.897 212.407 129.824 214.161C130.751 215.914 130.056 223.444 130.056 223.444C130.056 223.444 136.198 221.485 139.443 222.413C142.688 223.341 152.192 222.413 152.192 222.413C152.192 222.413 153.582 214.47 153.003 213.439C152.424 212.407 152.308 206.528 152.308 206.528L157.291 201.679C157.291 201.679 156.248 197.966 152.308 197.76C148.367 197.553 145.933 197.347 145.933 197.347L140.95 203.846Z" fill="#29CCC4"/>
<path d="M133.069 229.221C133.069 229.221 120.088 223.96 114.873 221.485C109.658 219.009 101.661 220.969 104.211 226.539C106.76 232.109 121.016 237.576 121.016 237.576C121.016 237.576 125.652 240.671 128.433 240.568C131.215 240.464 135.213 240.516 135.213 240.516L133.069 229.221Z" fill="#3F3D56"/>
<path d="M153.119 229.943C153.119 229.943 176.414 230.149 174.907 237.886C173.401 245.622 164.477 258.516 162.854 258.825C161.232 259.135 155.321 256.866 155.321 256.144C155.321 255.421 161 242.115 161 242.115L147.092 238.298L153.119 229.943Z" fill="#3F3D56"/>
<path d="M157.523 206.837C157.523 206.837 158.914 218.699 158.218 220.556C157.523 222.413 155.089 227.467 151.96 229.943C148.831 232.419 144.427 244.9 141.993 238.917C139.559 232.934 145.933 229.634 145.933 229.634L152.323 221.632L152.383 208.611L157.523 206.837Z" fill="#FFB8B8"/>
<path d="M131.446 231.697C131.446 231.697 142.92 235.307 144.195 234.791C145.47 234.275 148.251 236.132 148.251 236.132C149.537 235.887 150.864 235.87 152.156 236.083C153.449 236.295 154.682 236.733 155.784 237.37C159.493 239.536 160.304 242.012 159.493 242.115C158.682 242.218 155.784 241.083 155.784 241.083C155.784 241.083 151.38 240.258 148.715 240.98C146.049 241.702 142.575 240.18 142.575 240.18L128.433 237.37L131.446 231.697Z" fill="#FFB8B8"/>
<path opacity="0.1" d="M131.446 231.697C131.446 231.697 142.92 235.307 144.195 234.791C145.47 234.275 148.251 236.132 148.251 236.132C149.537 235.887 150.864 235.87 152.156 236.083C153.449 236.295 154.682 236.733 155.784 237.37C159.493 239.536 160.304 242.012 159.493 242.115C158.682 242.218 155.784 241.083 155.784 241.083C155.784 241.083 151.38 240.258 148.715 240.98C146.049 241.702 142.575 240.18 142.575 240.18L128.433 237.37L131.446 231.697Z" fill="black"/>
<path d="M154.857 200.442L157.291 201.679C157.291 201.679 158.218 207.147 158.682 207.869C159.145 208.591 153.003 210.447 152.076 209.932C151.149 209.416 150.685 204.361 150.685 204.361L154.857 200.442Z" fill="#29CCC4"/>
<path opacity="0.1" d="M115.743 223.444C115.743 223.444 122.812 226.126 124.782 226.539C126.753 226.952 133.121 231.78 133.121 231.78L128.774 237.654C128.774 237.654 124.319 237.164 121.885 236.751C119.451 236.338 104.964 227.777 107.398 226.333C109.832 224.889 115.743 223.444 115.743 223.444Z" fill="black"/>
<path d="M114.294 223.444C114.294 223.444 121.363 226.126 123.334 226.539C125.304 226.952 133.069 231.697 133.069 231.697L129.244 238.298C129.244 238.298 122.87 237.164 120.436 236.751C118.002 236.338 103.515 227.777 105.949 226.333C108.383 224.889 114.294 223.444 114.294 223.444Z" fill="#3F3D56"/>
<path d="M144.948 188.218C150.389 188.218 154.799 184.293 154.799 179.45C154.799 174.608 150.389 170.682 144.948 170.682C139.508 170.682 135.097 174.608 135.097 179.45C135.097 184.293 139.508 188.218 144.948 188.218Z" fill="#2F2E41"/>
<path d="M147.73 174.808C150.29 174.808 152.366 172.961 152.366 170.682C152.366 168.404 150.29 166.556 147.73 166.556C145.169 166.556 143.094 168.404 143.094 170.682C143.094 172.961 145.169 174.808 147.73 174.808Z" fill="#2F2E41"/>
<path d="M148.457 215.807H144.004C143.646 215.807 143.356 216.065 143.356 216.384V225.038C143.356 225.356 143.646 225.615 144.004 225.615H148.457C148.815 225.615 149.105 225.356 149.105 225.038V216.384C149.105 216.065 148.815 215.807 148.457 215.807Z" fill="#2F2E41"/>
<path d="M146.231 218.792C146.76 218.792 147.189 218.41 147.189 217.939C147.189 217.468 146.76 217.086 146.231 217.086C145.701 217.086 145.272 217.468 145.272 217.939C145.272 218.41 145.701 218.792 146.231 218.792Z" fill="#29CCC4"/>
<path d="M125.883 211.272C125.883 211.272 125.999 224.063 127.738 225.611C129.476 227.158 140.481 226.376 140.481 226.376C140.481 226.376 147.429 227.377 150.337 223.818C153.623 219.797 141.713 223.087 141.713 223.087C141.713 223.087 133.205 223.466 132.721 223.135C131.215 222.103 130.867 210.757 130.867 210.757L125.883 211.272Z" fill="#FFB8B8"/>
<path d="M127.39 202.298H125.883C125.883 202.298 124.261 203.846 124.377 207.146C124.493 210.447 122.986 212.51 123.913 212.82C124.84 213.129 129.465 211.491 129.413 211.949C129.36 212.407 131.794 211.582 131.794 211.582L130.171 206.115L127.39 202.298Z" fill="#29CCC4"/>
<path d="M248.042 140.857C229.038 140.935 213.569 141.185 213.569 141.185C213.569 141.185 231.956 119.508 247.974 127.539C263.991 135.571 282.39 140.903 282.39 140.903C282.39 140.903 267.047 140.779 248.042 140.857Z" fill="#F2F2F2"/>
<path d="M91.5775 172.657C72.573 172.735 57.1042 172.985 57.1042 172.985C57.1042 172.985 75.4914 151.307 91.5085 159.339C107.526 167.37 125.925 172.702 125.925 172.702C125.925 172.702 110.582 172.579 91.5775 172.657Z" fill="#F2F2F2"/>
<path d="M330.176 194.222C311.172 194.3 295.703 194.55 295.703 194.55C295.703 194.55 314.09 172.872 330.107 180.904C346.124 188.935 364.524 194.268 364.524 194.268C364.524 194.268 349.181 194.144 330.176 194.222Z" fill="#F2F2F2"/>
<path d="M248.286 287.294C184.078 287.557 131.816 288.401 131.816 288.401C131.816 288.401 193.938 215.163 248.053 242.297C302.168 269.432 364.332 287.448 364.332 287.448C364.332 287.448 312.494 287.03 248.286 287.294Z" fill="#F2F2F2"/>
<path d="M348.954 286.654C284.746 286.917 232.485 287.893 232.485 287.893C232.485 287.893 294.528 199.395 348.672 232.249C402.816 265.103 465 286.939 465 286.939C465 286.939 413.161 286.39 348.954 286.654Z" fill="#F2F2F2"/>
</g>
<defs>
<clipPath id="clip0">
<rect width="465" height="289" fill="white"/>
</clipPath>
</defs>
</svg>
