<svg width="322" height="298" viewBox="0 0 322 298" fill="none" xmlns="http://www.w3.org/2000/svg">
<g clip-path="url(#clip0)">
<path d="M221.648 159.977L137.749 139.755V298L221.648 276.023V159.977Z" fill="#E0E0E0"/>
<path opacity="0.1" d="M221.648 159.977L137.749 139.755V298L221.648 276.023V159.977Z" fill="black"/>
<path d="M53.8508 159.977L137.749 139.755V298L53.8508 276.462V159.977Z" fill="#E0E0E0"/>
<path opacity="0.17" d="M53.8508 159.275L137.749 139.057V298L53.8508 276.462V159.275Z" fill="black"/>
<path d="M137.049 140.456L181.237 103.709L265.132 125.251L220.947 160.674L137.049 140.456Z" fill="#E0E0E0"/>
<path d="M11.5035 126.389L54.5517 160.674L138.446 140.456L95.8417 104.411L11.5035 126.389Z" fill="#E0E0E0"/>
<path opacity="0.05" d="M10.8066 125.691L54.9002 160.674L138.799 140.456L95.1408 103.709L10.8066 125.691Z" fill="black"/>
<path d="M53.8508 159.977V276.462L137.749 298L138.882 182.394L53.8508 159.977Z" fill="#E0E0E0"/>
<path d="M221.648 276.023L137.749 298V182.394L221.648 159.977V276.023Z" fill="#E0E0E0"/>
<path opacity="0.07" d="M221.648 276.023L137.749 298V182.394L221.648 159.977V276.023Z" fill="black"/>
<path opacity="0.07" d="M188.262 237.338V275.583L221.648 266.349V228.109L188.262 237.338Z" fill="black"/>
<g clip-path="url(#clip1)">
<path d="M111.396 228.832L63.8882 205.686V218.351L96.5742 234.291L63.8882 250.486V263.151L111.396 286.333V273.632L79.3183 257.983L111.396 241.533V228.832Z" fill="#4BC1BE"/>
<path d="M111.396 228.905L123.711 223.3V235.856L111.396 241.46V228.905Z" fill="#278D96"/>
<path d="M111.396 286.333L123.711 280.765V241.97L111.396 247.538V286.333Z" fill="#278D96"/>
<path d="M76.3111 200.191L63.8882 205.686L64.0673 205.759L111.396 228.905L123.711 223.3L76.3111 200.191Z" fill="#057A8E"/>
</g>
<path opacity="0.1" d="M52.7539 220.417L99.7541 232.285L137.532 201.515V182.612L53.633 161.514L52.7539 220.417Z" fill="black"/>
<path opacity="0.1" d="M222.305 220.417L175.305 232.285L137.532 201.515V182.612L221.426 161.514L222.305 220.417Z" fill="black"/>
<path d="M102.653 158.154L105.904 157.504C105.904 157.504 103.171 160.563 102.653 160.758C102.604 161.408 102.604 162.061 102.653 162.711C96.408 189.535 73.3771 177.687 73.3771 177.687C81.7682 177.881 82.4849 174.433 82.4849 174.433C77.6063 173.716 76.6282 170.526 76.6282 170.526C77.0659 170.757 77.5731 170.818 78.053 170.698C78.533 170.578 78.9519 170.285 79.2299 169.876C73.9592 168.509 74.676 163.365 74.676 163.365C75.5868 164.158 77.0163 164.471 77.8637 164.601C77.2776 163.884 72.3198 157.96 75.3254 154.901C75.3254 154.901 78.9685 161.411 88.5317 161.998L89.1811 161.867C89.0705 161.399 89.0265 160.917 89.0504 160.437C89.0504 158.624 89.7701 156.885 91.0512 155.603C92.3322 154.321 94.0696 153.601 95.8813 153.601C100.435 153.601 101.425 156.204 101.425 156.204L104.676 154.251C104.605 154.247 104.28 157.504 102.653 158.154Z" fill="#00ACED"/>
<path d="M53.8508 159.977L10.8066 195.582L94.7012 216.68L137.749 182.394L53.8508 159.977Z" fill="#E0E0E0"/>
<path d="M168.225 157.286L169.833 155.047C169.833 155.047 169.904 158.455 169.698 158.871C170.036 159.294 170.405 159.692 170.803 160.06C182.195 179.906 161.485 185.763 161.485 185.763C166.696 181.122 165.18 178.63 165.18 178.63C161.79 180.948 159.414 179.561 159.414 179.561C159.81 179.453 160.153 179.202 160.377 178.857C160.6 178.512 160.689 178.097 160.626 177.69C156.666 179.846 154.171 176.315 154.171 176.315C155.169 176.276 156.222 175.661 156.808 175.261C156.048 175.158 149.681 174.362 149.772 170.803C149.772 170.803 155.672 172.693 161.818 167.633L162.138 167.185C161.806 166.964 161.506 166.697 161.247 166.393C160.739 165.847 160.343 165.207 160.082 164.508C159.821 163.809 159.7 163.066 159.726 162.32C159.752 161.574 159.924 160.841 160.234 160.162C160.543 159.484 160.983 158.873 161.529 158.364C164.301 155.78 166.364 156.811 166.364 156.811L167.235 153.779C167.199 153.807 168.843 155.967 168.225 157.286Z" fill="#6C63FF"/>
<path d="M221.648 159.977L265.132 195.582L181.673 216.68L137.749 182.394L221.648 159.977Z" fill="#E0E0E0"/>
<path opacity="0.07" d="M221.648 159.977L265.132 195.582L181.673 216.68L137.749 182.394L221.648 159.977Z" fill="black"/>
<path d="M165.164 48.4844L168.138 47.0539C168.138 47.0539 166.261 50.6798 165.805 50.9968C165.919 51.6354 166.081 52.2646 166.288 52.8792C166.894 80.2698 141.777 74.5475 141.777 74.5475C149.91 72.6613 149.748 69.1582 149.748 69.1582C144.869 69.6734 143.143 66.8439 143.143 66.8439C143.622 66.9633 144.129 66.899 144.563 66.6636C144.998 66.4283 145.329 66.0389 145.491 65.5719C140.074 65.5719 139.496 60.4203 139.496 60.4203C140.565 60.9473 142.026 60.9077 142.874 60.8166C142.133 60.2697 135.904 55.7839 138.035 52.0985C138.035 52.0985 143.155 57.472 152.512 55.665L153.106 55.3797C152.884 54.9554 152.722 54.5018 152.627 54.0323C152.405 53.1672 152.355 52.2667 152.481 51.3824C152.607 50.4981 152.906 49.6473 153.36 48.8785C153.815 48.1098 154.416 47.4382 155.13 46.9021C155.844 46.366 156.657 45.9759 157.521 45.7541C161.909 44.6287 163.493 46.8954 163.493 46.8954L166.146 44.2086C166.079 44.2364 166.57 47.4541 165.164 48.4844Z" fill="#00ACED"/>
<path d="M29.1331 69.3484L32.3683 68.7025C32.3683 68.7025 29.6518 71.7459 29.1331 71.9401C29.0848 72.5864 29.0848 73.2355 29.1331 73.8818C22.92 100.563 0.0119019 88.7779 0.0119019 88.7779C8.35939 88.972 9.07217 85.5403 9.07217 85.5403C4.21732 84.827 3.24715 81.6528 3.24715 81.6528C3.68157 81.8877 4.18802 81.9517 4.66714 81.8322C5.14626 81.7127 5.56347 81.4183 5.83692 81.0069C0.582125 79.6516 1.29491 74.5476 1.29491 74.5476C2.20173 75.3401 3.62334 75.6492 4.46284 75.78C3.88073 75.0667 -1.03748 69.1741 1.94038 66.1307C1.94038 66.1307 5.56369 72.6058 15.0794 73.1884L15.7248 73.0576C15.6141 72.5906 15.5701 72.1103 15.5941 71.631C15.5947 70.7373 15.7712 69.8525 16.1137 69.0272C16.4561 68.2018 16.9578 67.4521 17.59 66.8209C18.2222 66.1898 18.9725 65.6895 19.7981 65.3487C20.6236 65.0079 21.5082 64.8333 22.4012 64.8348C26.9314 64.8348 27.9015 67.4265 27.9015 67.4265L31.1368 65.4847C31.0615 65.4808 30.7408 68.7184 29.1331 69.3484Z" fill="#00ACED"/>
<path d="M316.717 11.7734L321.996 10.7154C321.996 10.7154 317.561 15.6807 316.717 15.9977C316.639 17.053 316.639 18.1127 316.717 19.1679C306.58 62.6989 269.199 43.4676 269.199 43.4676C282.817 43.7846 283.981 38.1853 283.981 38.1853C276.061 37.0242 274.477 31.8448 274.477 31.8448C275.188 32.2191 276.011 32.318 276.79 32.1228C277.569 31.9276 278.248 31.4519 278.698 30.7868C270.145 28.5676 271.309 20.222 271.309 20.222C272.786 21.4901 275.111 22.0172 276.481 22.2312C275.531 21.0701 267.508 11.4524 272.363 6.48709C272.363 6.48709 278.275 17.0518 293.794 18.0029L294.851 17.7929C294.672 17.0313 294.601 16.2481 294.641 15.4667C294.641 12.5239 295.809 9.7017 297.889 7.62084C299.968 5.53998 302.788 4.37097 305.729 4.37097C313.118 4.37097 314.702 8.59528 314.702 8.59528L319.98 5.42507C319.885 5.43299 319.359 10.6995 316.717 11.7734Z" fill="#00ACED"/>
<path d="M230.447 3.06322L232.633 2.62731C232.633 2.62731 230.795 4.68399 230.447 4.81476C230.414 5.25138 230.414 5.68982 230.447 6.12644C226.249 24.157 210.77 16.1919 210.77 16.1919C216.413 16.3226 216.892 14.0044 216.892 14.0044C213.613 13.5249 212.956 11.3771 212.956 11.3771C213.25 11.5331 213.591 11.5749 213.914 11.4945C214.238 11.414 214.519 11.217 214.706 10.9412C211.166 10.0218 211.645 6.58216 211.645 6.58216C212.276 7.03858 213.014 7.32513 213.788 7.41434C213.392 6.93484 210.069 2.95226 212.081 0.895588C212.081 0.895588 214.528 5.25463 220.959 5.65091L221.395 5.56372C221.32 5.24846 221.291 4.92426 221.307 4.60077C221.306 3.99663 221.424 3.39822 221.655 2.83982C221.885 2.28141 222.224 1.77399 222.65 1.34661C223.077 0.919237 223.584 0.580303 224.142 0.349229C224.699 0.118155 225.297 -0.000520446 225.901 1.71563e-06C228.962 1.71563e-06 229.619 1.75154 229.619 1.75154L231.805 0.439869C231.758 0.435906 231.54 2.62732 230.447 3.06322Z" fill="#00ACED"/>
<path opacity="0.3" d="M131.184 90.5809L133.37 90.145C133.37 90.145 131.532 92.2017 131.184 92.3325C131.151 92.7691 131.151 93.2075 131.184 93.6441C126.986 111.675 111.507 103.71 111.507 103.71C117.15 103.84 117.629 101.522 117.629 101.522C114.35 101.043 113.693 98.8948 113.693 98.8948C113.987 99.0508 114.328 99.0926 114.651 99.0122C114.975 98.9317 115.256 98.7347 115.443 98.4589C111.903 97.5395 112.382 94.0999 112.382 94.0999C113.013 94.5563 113.751 94.8428 114.525 94.932C114.129 94.4526 110.806 90.47 112.818 88.4133C112.818 88.4133 115.265 92.7723 121.696 93.1686L122.132 93.0814C122.057 92.7662 122.028 92.442 122.044 92.1185C122.044 90.9004 122.528 89.7322 123.389 88.8708C124.249 88.0095 125.417 87.5256 126.634 87.5256C129.695 87.5256 130.352 89.2772 130.352 89.2772L132.538 87.9655C132.487 87.9734 132.277 90.145 131.184 90.5809Z" fill="#535461"/>
<path opacity="0.3" d="M216.437 49.8873L218.623 49.4514C218.623 49.4514 216.805 51.516 216.437 51.6348C216.404 52.0715 216.404 52.5099 216.437 52.9465C212.239 70.9771 196.76 63.0119 196.76 63.0119C202.403 63.1427 202.882 60.8245 202.882 60.8245C199.603 60.345 198.946 58.1972 198.946 58.1972C199.24 58.3532 199.581 58.395 199.904 58.3145C200.227 58.2341 200.509 58.0371 200.696 57.7613C197.156 56.8419 197.635 53.4022 197.635 53.4022C198.266 53.8587 199.004 54.1452 199.777 54.2344C199.381 53.7549 196.059 49.7723 198.071 47.7157C198.071 47.7157 200.518 52.0747 206.949 52.471L207.384 52.3838C207.31 52.0685 207.281 51.7443 207.297 51.4208C207.297 50.2027 207.781 49.0345 208.642 48.1732C209.502 47.3119 210.67 46.828 211.887 46.828C214.948 46.828 215.605 48.5795 215.605 48.5795L217.791 47.2679C217.767 47.2599 217.546 49.4474 216.437 49.8873Z" fill="#00ACED"/>
<path d="M175.174 123.147L179.72 122.236C179.72 122.236 175.899 126.515 175.174 126.785C175.107 127.694 175.107 128.606 175.174 129.515C166.443 167.015 134.245 150.45 134.245 150.45C145.978 150.724 146.98 145.901 146.98 145.901C140.157 144.899 138.795 140.44 138.795 140.44C139.407 140.763 140.117 140.849 140.788 140.681C141.46 140.513 142.046 140.103 142.434 139.529C135.069 137.619 136.066 130.415 136.066 130.415C137.342 131.508 139.341 131.96 140.521 132.142C139.702 131.14 132.792 122.858 136.957 118.582C136.957 118.582 142.05 127.696 155.422 128.489L156.333 128.306C156.178 127.651 156.117 126.978 156.151 126.305C156.151 125.05 156.397 123.807 156.877 122.647C157.357 121.487 158.06 120.433 158.947 119.545C159.834 118.658 160.888 117.954 162.047 117.474C163.206 116.993 164.448 116.747 165.702 116.747C172.07 116.747 173.432 120.389 173.432 120.389L177.994 117.694C177.903 117.694 177.447 122.239 175.174 123.147Z" fill="#6C63FF"/>
<path d="M142.988 10.5013L145.158 10.0654C145.158 10.0654 143.321 12.1221 142.973 12.2529C142.94 12.6895 142.94 13.1279 142.973 13.5645C138.775 31.5951 123.296 23.63 123.296 23.63C128.939 23.7607 129.418 21.4425 129.418 21.4425C126.139 20.963 125.482 18.8152 125.482 18.8152C125.776 18.9712 126.117 19.013 126.44 18.9326C126.763 18.8521 127.045 18.6551 127.232 18.3793C123.692 17.4599 124.171 14.0203 124.171 14.0203C124.802 14.4767 125.54 14.7632 126.313 14.8524C125.917 14.373 122.595 10.3904 124.607 8.3337C124.607 8.3337 127.054 12.6927 133.485 13.089L133.92 13.0018C133.846 12.6866 133.817 12.3624 133.833 12.0389C133.832 11.4347 133.95 10.8363 134.181 10.2779C134.411 9.71952 134.749 9.2121 135.176 8.78472C135.603 8.35735 136.109 8.01841 136.667 7.78734C137.225 7.55627 137.823 7.43759 138.427 7.43811C141.488 7.43811 142.145 9.18966 142.145 9.18966L144.331 7.87798C144.303 7.87798 144.085 10.0654 142.988 10.5013Z" fill="#6C63FF"/>
<path d="M76.0857 59.0769L78.2716 58.641C78.2716 58.641 76.4342 60.6977 76.0857 60.8284C76.0531 61.2651 76.0531 61.7035 76.0857 62.1401C71.8882 80.1707 56.4089 72.2055 56.4089 72.2055C62.0518 72.3363 62.531 70.0181 62.531 70.0181C59.2521 69.5386 58.5948 67.3908 58.5948 67.3908C58.8889 67.5468 59.2303 67.5886 59.5533 67.5081C59.8764 67.4277 60.1583 67.2307 60.3451 66.9549C56.8049 66.0355 57.2841 62.5958 57.2841 62.5958C57.9152 63.0523 58.6528 63.3388 59.4264 63.428C59.0304 62.9485 55.708 58.9659 57.7197 56.9093C57.7197 56.9093 60.1669 61.2683 66.5978 61.6646L67.0334 61.5774C66.9591 61.2621 66.9297 60.9379 66.9462 60.6145C66.9462 59.3964 67.4298 58.2281 68.2905 57.3668C69.1512 56.5055 70.3186 56.0216 71.5358 56.0216C74.5968 56.0216 75.2541 57.7731 75.2541 57.7731L77.44 56.4615C77.3965 56.4496 77.1787 58.6489 76.0857 59.0769Z" fill="#6C63FF"/>
<path opacity="0.3" d="M57.7196 27.569L59.9055 27.1331C59.9055 27.1331 58.0681 29.1897 57.7196 29.3205C57.687 29.7571 57.687 30.1956 57.7196 30.6322C53.5221 48.6628 38.0428 40.6976 38.0428 40.6976C43.6857 40.8284 44.1649 38.5102 44.1649 38.5102C40.8861 38.0307 40.2287 35.8828 40.2287 35.8828C40.5228 36.0389 40.8642 36.0807 41.1872 36.0002C41.5103 35.9198 41.7923 35.7227 41.979 35.4469C38.4388 34.5276 38.918 31.0879 38.918 31.0879C39.5491 31.5443 40.2868 31.8309 41.0603 31.9201C40.6643 31.4406 37.3419 27.458 39.3536 25.4013C39.3536 25.4013 41.8008 29.7604 48.2317 30.1567L48.6673 30.0695C48.593 29.7542 48.5636 29.43 48.5802 29.1065C48.5802 27.8884 49.0637 26.7202 49.9244 25.8589C50.7851 24.9976 51.9525 24.5137 53.1697 24.5137C56.2307 24.5137 56.8881 26.2652 56.8881 26.2652L59.0739 24.9535C59.0304 24.9417 58.8324 27.1331 57.7196 27.569Z" fill="#6C63FF"/>
<path d="M134.68 161.035L136.866 160.599C136.866 160.599 135.029 162.656 134.68 162.786C134.648 163.223 134.648 163.662 134.68 164.098C130.483 182.129 115.004 174.164 115.004 174.164C120.647 174.294 121.126 171.976 121.126 171.976C117.847 171.497 117.19 169.349 117.19 169.349C117.484 169.505 117.825 169.547 118.148 169.466C118.471 169.386 118.753 169.189 118.94 168.913C115.4 167.994 115.879 164.554 115.879 164.554C116.51 165.01 117.248 165.297 118.021 165.386C117.625 164.907 114.303 160.924 116.314 158.867C116.314 158.867 118.762 163.226 125.193 163.623L125.628 163.535C125.554 163.22 125.524 162.896 125.541 162.572C125.541 161.354 126.025 160.186 126.885 159.325C127.746 158.463 128.913 157.98 130.131 157.98C133.192 157.98 133.849 159.731 133.849 159.731L136.035 158.419C135.995 158.412 135.773 160.599 134.68 161.035Z" fill="#535461"/>
<path d="M262.281 66.0594L266.728 65.1677C266.728 65.1677 262.982 69.3643 262.269 69.6298C262.202 70.5215 262.202 71.417 262.269 72.3087C253.703 109.087 222.127 92.8397 222.127 92.8397C233.647 93.1251 234.629 88.3697 234.629 88.3697C227.936 87.387 226.602 83.0121 226.602 83.0121C227.202 83.3244 227.896 83.4061 228.553 83.2419C229.209 83.0777 229.783 82.6788 230.166 82.1205C222.939 80.2461 223.921 73.1924 223.921 73.1924C225.168 74.2623 227.132 74.7101 228.277 74.8884C227.485 73.9057 220.694 65.7741 224.796 61.5854C224.796 61.5854 229.794 70.5135 242.905 71.314L243.796 71.1357C243.642 70.4871 243.582 69.8199 243.618 69.1543C243.618 66.6687 244.604 64.2849 246.361 62.5273C248.117 60.7697 250.499 59.7823 252.983 59.7823C259.228 59.7823 260.566 63.3488 260.566 63.3488L265.025 60.67C264.958 60.7017 264.51 65.1677 262.281 66.0594Z" fill="#535461"/>
<path d="M85.1816 101.942L89.6404 101.051C89.6404 101.051 85.8944 105.247 85.1816 105.513C85.1149 106.404 85.1149 107.3 85.1816 108.191C76.6163 144.97 45.04 128.723 45.04 128.723C56.5475 128.992 57.5295 124.26 57.5295 124.26C50.8373 123.278 49.5028 118.903 49.5028 118.903C50.1032 119.215 50.7971 119.297 51.4535 119.133C52.11 118.968 52.6838 118.57 53.0667 118.011C45.8399 116.137 46.8219 109.083 46.8219 109.083C48.0693 110.153 50.0334 110.601 51.1778 110.779C50.3859 109.796 43.5946 101.665 47.6971 97.4762C47.6971 97.4762 52.6945 106.404 65.8057 107.205L66.6967 107.026C66.5434 106.378 66.4834 105.711 66.5185 105.045C66.5185 102.559 67.5052 100.176 69.2615 98.4181C71.0178 96.6605 73.3999 95.6731 75.8837 95.6731C82.1285 95.6731 83.4669 99.2396 83.4669 99.2396L87.9258 96.5608C87.8585 96.5845 87.411 101.051 85.1816 101.942Z" fill="#535461"/>
</g>
<defs>
<clipPath id="clip0">
<rect width="322" height="298" fill="white"/>
</clipPath>
<clipPath id="clip1">
<rect x="63" y="199" width="62" height="87" fill="white"/>
</clipPath>
</defs>
</svg>
