<svg width="300" height="248" viewBox="0 0 300 248" fill="none" xmlns="http://www.w3.org/2000/svg">
<g clip-path="url(#clip0)">
<path d="M265.253 141.766C263.606 155.851 260.184 167.16 255.487 176.178C249.237 188.195 238.547 193.037 228.997 198.103C226.237 199.564 223.368 200.809 220.416 201.828C203.037 207.848 183.587 206.251 168.309 203.072C157.594 200.841 146.716 199.468 135.781 198.967C132.662 198.827 129.541 198.757 126.416 198.758C121.597 198.764 34.8312 200.408 13.7062 157.714C8.4906 147.182 4.9156 134.317 3.63123 118.635C-0.00314808 74.2995 19.9719 45.1815 45.7375 26.149C94.4781 -9.85401 161.287 -8.34413 209.309 28.6072C241.297 53.2206 271.247 90.4714 265.253 141.766Z" fill="white"/>
<path d="M93.75 128.931C93.75 164.172 72.7634 176.477 46.875 176.477C20.9867 176.477 0 164.172 0 128.931C0 93.69 46.875 48.858 46.875 48.858C46.875 48.858 93.75 93.69 93.75 128.931Z" fill="#29CCC4"/>
<path d="M45.1675 171.086L45.6475 141.592L65.6269 105.105L45.7228 136.966L45.9385 123.704L59.7081 97.306L45.9956 120.195L46.3838 96.3436L61.1288 75.327L46.4447 92.5929L46.6872 48.8581L45.1631 106.755L45.2885 104.367L30.2972 81.4601L45.0481 108.952L43.6513 135.59L43.6097 134.882L26.3275 110.777L43.5572 137.38L43.3825 140.712L43.3513 140.762L43.3656 141.035L39.8219 208.618H44.5566L45.1247 173.71L62.3122 147.172L45.1675 171.086Z" fill="#3F3D56"/>
<path d="M300 131.115C300 166.356 279.013 178.66 253.125 178.66C227.237 178.66 206.25 166.356 206.25 131.115C206.25 95.8737 253.125 51.0417 253.125 51.0417C253.125 51.0417 300 95.8737 300 131.115Z" fill="#29CCC4"/>
<path d="M251.417 173.27L251.897 143.776L271.877 107.289L251.973 139.149L252.188 125.888L265.958 99.4897L252.246 122.379L252.634 98.5273L267.379 77.5107L252.695 94.7766L252.937 51.0418L251.413 108.939L251.538 106.551L236.547 83.6438L251.298 111.135L249.901 137.773L249.86 137.066L232.577 112.96L249.807 139.564L249.632 142.895L249.601 142.945L249.616 143.219L246.072 210.802H250.807L251.375 175.894L268.562 149.355L251.417 173.27Z" fill="#3F3D56"/>
<path d="M202.5 101.185C202.5 139.715 179.555 153.168 151.25 153.168C122.945 153.168 100 139.715 100 101.185C100 62.6547 151.25 13.6383 151.25 13.6383C151.25 13.6383 202.5 62.6547 202.5 101.185Z" fill="#29CCC4"/>
<path d="M149.383 147.274L149.908 115.028L171.752 75.1349L149.99 109.97L150.226 95.4704L165.281 66.6081L150.288 91.6333L150.713 65.5559L166.834 42.5778L150.78 61.4552L151.045 13.6385L149.378 76.9392L149.515 74.3278L133.125 49.2833L149.252 79.3407L147.725 108.465L147.68 107.692L128.785 81.3363L147.623 110.423L147.432 114.065L147.397 114.12L147.413 114.419L143.538 188.309H148.715L149.336 150.143L168.128 121.128L149.383 147.274Z" fill="#3F3D56"/>
<path d="M260 213.997C260 222.267 205.715 248 138.75 248C71.7855 248 17.5 222.267 17.5 213.997C17.5 205.727 67.4105 187.168 134.375 187.168C201.34 187.168 260 205.727 260 213.997Z" fill="#3F3D56"/>
<path opacity="0.1" d="M260 213.997C260 222.267 205.715 248 138.75 248C71.7855 248 17.5 222.267 17.5 213.997C17.5 205.727 67.4105 187.168 134.375 187.168C201.34 187.168 260 205.727 260 213.997Z" fill="black"/>
<path d="M260 213.997C260 222.267 205.715 228.971 138.75 228.971C71.7855 228.971 17.5 222.267 17.5 213.997C17.5 205.727 67.4105 187.168 134.375 187.168C201.34 187.168 260 205.727 260 213.997Z" fill="#3F3D56"/>
<path d="M179.509 172.531C179.509 184.395 186.964 193.995 196.178 193.995L179.509 172.531Z" fill="#3F3D56"/>
<path d="M196.178 193.995C196.178 181.998 204.498 172.29 214.779 172.29L196.178 193.995Z" fill="#29CCC4"/>
<path d="M185.548 173.607C185.548 184.876 190.303 193.995 196.178 193.995L185.548 173.607Z" fill="#29CCC4"/>
<path d="M196.178 193.995C196.178 178.666 205.794 166.261 217.678 166.261L196.178 193.995Z" fill="#3F3D56"/>
<path d="M192.671 194.146C192.671 194.146 195.035 194.073 195.748 193.567C196.46 193.06 199.384 192.456 199.561 193.268C199.737 194.08 203.113 197.307 200.444 197.329C197.776 197.35 194.243 196.914 193.532 196.482C192.821 196.049 192.671 194.146 192.671 194.146Z" fill="#A8A8A8"/>
<path opacity="0.2" d="M200.492 197.046C197.823 197.068 194.291 196.631 193.58 196.199C193.038 195.87 192.822 194.688 192.75 194.143C192.7 194.145 192.671 194.146 192.671 194.146C192.671 194.146 192.821 196.049 193.532 196.482C194.243 196.914 197.776 197.35 200.444 197.329C201.215 197.323 201.481 197.049 201.466 196.644C201.359 196.889 201.065 197.042 200.492 197.046Z" fill="black"/>
<path opacity="0.1" d="M140.312 218.988C163.094 218.988 181.562 216.055 181.562 212.437C181.562 208.819 163.094 205.886 140.312 205.886C117.531 205.886 99.0625 208.819 99.0625 212.437C99.0625 216.055 117.531 218.988 140.312 218.988Z" fill="black"/>
<path d="M158.438 197.775H154.375V207.134H158.438V197.775Z" fill="#FFB9B9"/>
<path d="M158.75 71.4323H143.125V99.5084H158.75V71.4323Z" fill="#FF6584"/>
<path d="M170.225 124.568L170.766 128.887L156.525 133.206L154.722 125.288L170.225 124.568Z" fill="#FFB9B9"/>
<path d="M149.134 82.9991C149.134 82.9991 148.773 86.2383 148.052 86.2383C147.331 86.2383 144.808 87.498 144.808 87.498L144.086 90.9171L149.134 93.9763L157.426 93.0765L159.77 89.4774L157.426 87.138C157.426 87.138 155.443 82.8192 156.164 81.9194C156.885 81.0196 149.134 82.9991 149.134 82.9991Z" fill="#FFB9B9"/>
<path opacity="0.1" d="M149.134 82.9991C149.134 82.9991 148.773 86.2383 148.052 86.2383C147.331 86.2383 144.808 87.498 144.808 87.498L144.086 90.9171L149.134 93.9763L157.426 93.0765L159.77 89.4774L157.426 87.138C157.426 87.138 155.443 82.8192 156.164 81.9194C156.885 81.0196 149.134 82.9991 149.134 82.9991Z" fill="black"/>
<path d="M126.601 195.11C126.601 195.11 124.978 205.907 122.995 206.627C121.012 207.347 130.567 208.607 130.567 208.607L131.288 204.648C131.288 204.648 131.468 197.45 132.189 196.37C132.91 195.29 126.601 195.11 126.601 195.11Z" fill="#FFB9B9"/>
<path d="M144.988 132.306C144.988 132.306 171.126 127.628 171.307 126.728C171.487 125.828 176.715 133.566 173.47 148.682C170.225 163.798 162.113 199.429 162.113 199.429C162.113 199.429 153.821 201.948 154.001 199.969C154.181 197.989 156.885 163.618 156.885 163.618L155.083 149.042L152.018 150.842L139.219 176.035L132.73 197.809C132.73 197.809 124.437 199.249 125.699 196.19C126.961 193.131 131.107 169.377 131.107 169.377L142.464 135.905C142.464 135.905 142.104 132.306 144.988 132.306Z" fill="#2F2E41"/>
<path d="M151.568 85.4285C155.749 85.4285 159.139 82.0446 159.139 77.8704C159.139 73.6962 155.749 70.3124 151.568 70.3124C147.386 70.3124 143.996 73.6962 143.996 77.8704C143.996 82.0446 147.386 85.4285 151.568 85.4285Z" fill="#FFB9B9"/>
<path d="M159.409 87.318C159.409 87.318 155.804 90.7371 147.331 89.8373C138.859 88.9376 149.675 109.092 149.675 109.092L153.1 129.427C153.1 129.427 168.242 127.628 168.783 124.208C169.324 120.789 159.409 87.318 159.409 87.318Z" fill="#F2F2F2"/>
<path d="M155.804 106.573C155.804 106.573 151.477 104.414 149.855 98.4751C148.233 92.5366 146.791 86.4182 145.889 86.5982C145.128 86.7501 138.07 89.4678 135.783 91.2851C135.361 91.6201 135.101 91.9246 135.073 92.1767C134.893 93.7963 141.563 109.992 141.563 109.992C141.563 109.992 146.791 121.689 144.627 125.468C142.464 129.247 142.284 134.106 146.25 133.746C150.216 133.386 163.375 132.666 161.572 122.589C161.572 122.589 164.997 129.607 174.552 124.568C174.552 124.568 180.32 123.669 180.14 121.689C179.96 119.71 170.946 102.614 170.946 102.614C170.946 102.614 169.504 95.056 172.208 92.1767L166.079 84.9786C166.079 84.9786 164.637 82.8191 163.195 83.8989C161.753 84.9786 158.508 86.7781 157.967 86.9581C157.426 87.138 157.071 86.3113 157.071 86.3113C155.822 88.9191 155.321 91.8214 155.624 94.6961C156.164 99.3749 155.804 106.573 155.804 106.573Z" fill="#2F2E41"/>
<path d="M127.141 204.468C127.141 204.468 126.739 203.208 124.416 204.468C124.416 204.468 125.158 200.509 122.635 200.509C120.111 200.509 119.21 205.188 119.21 205.188C119.21 205.188 118.489 208.247 113.621 209.506C108.754 210.766 112.54 215.085 115.965 215.085C119.39 215.085 123.897 212.386 123.897 212.386C123.897 212.386 133.27 212.566 133.451 210.766C133.631 208.967 132.549 203.568 131.828 203.568C131.107 203.568 129.665 206.087 129.665 206.087L127.141 204.468Z" fill="#2F2E41"/>
<path d="M157.787 201.301C157.787 201.301 155.263 198.601 153.821 203.1C152.379 207.599 151.297 209.399 152.199 210.119C153.1 210.838 153.821 210.478 153.46 211.918C153.1 213.358 154.542 216.417 157.787 216.417C161.032 216.417 161.933 214.077 161.753 212.458C161.572 210.838 160.13 208.859 160.13 208.859L158.688 203.82L157.787 201.301Z" fill="#2F2E41"/>
<path d="M172.028 74.7212L162.474 77.9604C162.474 77.9604 153.821 82.9991 157.607 84.0788C161.392 85.1585 164.637 80.8396 164.637 80.8396L172.929 78.6802L172.028 74.7212Z" fill="#FFB9B9"/>
<path d="M146.416 66.1829C145.282 66.9587 144.379 68.0212 143.52 69.0933C141.776 71.2717 140.066 73.8734 140.496 76.6292C140.659 77.6759 141.125 78.65 141.388 79.6764C141.742 81.0616 141.719 82.5113 141.693 83.9406C141.714 84.548 141.639 85.1548 141.469 85.7386C141.217 86.3074 140.92 86.8555 140.581 87.3778C139.713 88.9921 139.692 90.9102 139.691 92.7424C139.649 93.3592 139.733 93.9781 139.938 94.5616C140.175 95.1125 140.617 95.5445 140.983 96.0199C141.589 96.8231 141.994 97.7598 142.163 98.7514C142.332 99.7431 142.26 100.761 141.954 101.719C142.424 101.721 142.886 101.589 143.284 101.339C143.682 101.088 144 100.729 144.201 100.305C144.263 100.761 144.224 101.226 144.085 101.666C143.947 102.105 143.713 102.509 143.4 102.848C145.463 102.236 147.675 101.204 148.429 99.1903C148.65 98.5063 148.774 97.7949 148.799 97.0765C149.2 92.0267 149.428 86.788 147.614 82.0571C147.034 80.5436 146.244 79.0785 146.049 77.4695C145.855 75.8605 146.449 74.0011 147.93 73.3366C147.965 73.7486 148.148 74.1339 148.446 74.421C148.775 74.6653 149.385 74.5121 149.391 74.1023L150.106 75.0965C150.38 74.962 150.615 74.758 150.785 74.505L151.276 75.1042L152.319 74.3469L153.224 75.3218C153.573 75.1235 153.851 74.8216 154.019 74.458C154.214 74.7486 154.455 75.068 154.804 75.0994C155.563 75.1679 155.72 73.9649 156.383 73.5896C156.628 73.4815 156.904 73.4647 157.16 73.5423C157.417 73.6199 157.637 73.7867 157.78 74.0124C158.054 74.477 158.154 75.0233 158.062 75.5543C157.787 78.0288 155.672 80.2867 156.299 82.6963C156.652 84.0513 157.84 85.1377 157.929 86.5348C158.001 87.6513 157.343 88.7075 157.353 89.8263C157.365 91.1373 158.273 92.2509 159.158 93.219C160.735 94.9418 162.394 96.5839 164.137 98.1453L163.598 97.2053C163.85 97.1855 164.102 97.2202 164.339 97.3071C164.575 97.394 164.79 97.5309 164.969 97.7085C165.124 97.1681 164.867 96.6052 164.625 96.0978C163.176 93.0598 162.006 89.8249 161.831 86.4644C161.588 81.7934 163.271 77.0496 162.204 72.4949C161.591 69.9448 160.162 67.6638 158.133 65.9976C157.147 65.1872 156.399 64.7018 155.122 64.6125C153.694 64.4887 152.258 64.4999 150.833 64.6461C149.258 64.7957 147.743 65.3229 146.416 66.1829Z" fill="#057A8E"/>
<path d="M164.637 85.1585C164.637 85.1585 166.62 85.3385 167.521 85.1585C168.423 84.9786 169.684 84.0788 169.684 84.0788L176.535 79.0401L170.586 79.9399C170.586 79.9399 171.667 71.662 171.307 71.4821C170.946 71.3021 188.793 67.883 188.432 73.4615C188.072 79.0401 177.977 90.0173 172.208 92.1767L168.423 92.7166L164.637 85.1585Z" fill="#2F2E41"/>
<path d="M184.062 148.957H99.0625V168.922H184.062V148.957Z" fill="white"/>
<path d="M172.969 153.48H109.844V164.086H172.969V153.48Z" fill="#3F3D56"/>
<path d="M124.513 158.55C124.488 158.279 123.283 158.157 121.63 158.226C122.588 156.879 123.143 155.804 122.928 155.635C122.725 155.475 121.897 156.165 120.887 157.287C120.792 155.782 120.571 154.728 120.312 154.728C120.031 154.728 119.793 155.983 119.715 157.707C118.311 156.699 117.177 156.108 117.002 156.328C116.836 156.539 117.595 157.428 118.801 158.492C117.209 158.728 116.087 159.061 116.112 159.328C116.137 159.6 117.342 159.721 118.995 159.653C118.037 161 117.482 162.074 117.697 162.244C117.9 162.403 118.728 161.713 119.738 160.591C119.833 162.096 120.054 163.151 120.312 163.151C120.594 163.151 120.832 161.896 120.91 160.171C122.314 161.179 123.448 161.771 123.623 161.55C123.789 161.339 123.03 160.45 121.824 159.386C123.416 159.151 124.538 158.818 124.513 158.55Z" fill="white"/>
<path d="M135.138 158.55C135.113 158.279 133.908 158.157 132.255 158.226C133.213 156.879 133.768 155.804 133.553 155.635C133.35 155.475 132.522 156.165 131.512 157.287C131.417 155.782 131.196 154.728 130.937 154.728C130.656 154.728 130.418 155.983 130.34 157.707C128.936 156.699 127.802 156.108 127.627 156.328C127.461 156.539 128.22 157.428 129.426 158.492C127.834 158.728 126.712 159.061 126.737 159.328C126.762 159.6 127.967 159.721 129.62 159.653C128.662 161 128.107 162.074 128.322 162.244C128.525 162.403 129.353 161.713 130.363 160.591C130.458 162.096 130.679 163.151 130.937 163.151C131.219 163.151 131.457 161.896 131.535 160.171C132.939 161.179 134.073 161.771 134.248 161.55C134.414 161.339 133.655 160.45 132.449 159.386C134.041 159.151 135.163 158.818 135.138 158.55Z" fill="white"/>
<path d="M145.763 158.55C145.738 158.279 144.533 158.157 142.88 158.226C143.838 156.879 144.393 155.804 144.178 155.635C143.975 155.475 143.147 156.165 142.137 157.287C142.042 155.782 141.821 154.728 141.562 154.728C141.281 154.728 141.043 155.983 140.965 157.707C139.561 156.699 138.427 156.108 138.252 156.328C138.086 156.539 138.845 157.428 140.051 158.492C138.459 158.728 137.337 159.061 137.362 159.328C137.387 159.6 138.592 159.721 140.245 159.653C139.287 161 138.732 162.074 138.947 162.244C139.15 162.403 139.978 161.713 140.988 160.591C141.083 162.096 141.304 163.151 141.562 163.151C141.844 163.151 142.082 161.896 142.16 160.171C143.564 161.179 144.698 161.771 144.873 161.55C145.039 161.339 144.28 160.45 143.074 159.386C144.666 159.151 145.788 158.818 145.763 158.55Z" fill="white"/>
<path d="M156.388 158.55C156.363 158.279 155.158 158.157 153.505 158.226C154.463 156.879 155.018 155.804 154.803 155.635C154.6 155.475 153.772 156.165 152.762 157.287C152.667 155.782 152.446 154.728 152.187 154.728C151.906 154.728 151.668 155.983 151.59 157.707C150.186 156.699 149.052 156.108 148.877 156.328C148.711 156.539 149.47 157.428 150.676 158.492C149.084 158.728 147.962 159.061 147.987 159.328C148.012 159.6 149.217 159.721 150.87 159.653C149.912 161 149.357 162.074 149.572 162.244C149.775 162.403 150.603 161.713 151.613 160.591C151.708 162.096 151.929 163.151 152.187 163.151C152.469 163.151 152.707 161.896 152.785 160.171C154.189 161.179 155.323 161.771 155.498 161.55C155.664 161.339 154.905 160.45 153.699 159.386C155.291 159.151 156.413 158.818 156.388 158.55Z" fill="white"/>
<path d="M167.013 158.55C166.988 158.279 165.783 158.157 164.13 158.226C165.088 156.879 165.643 155.804 165.428 155.635C165.225 155.475 164.397 156.165 163.387 157.287C163.292 155.782 163.071 154.728 162.812 154.728C162.531 154.728 162.293 155.983 162.215 157.707C160.811 156.699 159.677 156.108 159.502 156.328C159.336 156.539 160.095 157.428 161.301 158.492C159.709 158.728 158.587 159.061 158.612 159.328C158.637 159.6 159.842 159.721 161.495 159.653C160.537 161 159.982 162.074 160.197 162.244C160.4 162.403 161.228 161.713 162.238 160.591C162.333 162.096 162.554 163.151 162.812 163.151C163.094 163.151 163.332 161.896 163.41 160.171C164.814 161.179 165.948 161.771 166.123 161.55C166.289 161.339 165.53 160.45 164.324 159.386C165.916 159.151 167.038 158.818 167.013 158.55Z" fill="white"/>
<path d="M133.992 140.404C133.992 140.404 133.09 152.281 137.417 152.821C141.743 153.361 137.777 139.325 137.777 139.325L133.992 140.404Z" fill="#FFB9B9"/>
<path d="M136.335 91.8168L135.073 92.1767C135.073 92.1767 129.845 133.926 133.271 142.024C133.271 142.024 136.876 140.044 138.679 140.404L141.563 106.393L136.335 91.8168Z" fill="#2F2E41"/>
<g style="mix-blend-mode:hard-light">
<g clip-path="url(#clip1)">
<path d="M170.903 133.4L167.072 131.538V132.557L169.708 133.84L167.072 135.143V136.162L170.903 138.027V137.005L168.316 135.746L170.903 134.422V133.4Z" fill="#4BC1BE"/>
<path d="M170.903 133.406L171.896 132.955V133.965L170.903 134.416V133.406Z" fill="#278D96"/>
<path d="M170.903 138.027L171.896 137.579V134.457L170.903 134.905V138.027Z" fill="#278D96"/>
<path d="M168.073 131.096L167.072 131.538L167.086 131.544L170.903 133.406L171.896 132.955L168.073 131.096Z" fill="#057A8E"/>
</g>
</g>
</g>
<defs>
<clipPath id="clip0">
<rect width="300" height="248" fill="white"/>
</clipPath>
<clipPath id="clip1">
<rect x="167" y="131" width="5" height="7" fill="white"/>
</clipPath>
</defs>
</svg>
