<svg xmlns="http://www.w3.org/2000/svg" xmlns:xlink="http://www.w3.org/1999/xlink" viewBox="0 0 563 123"><defs><style>.cls-1{fill:url(#linear-gradient);}.cls-2{fill:#fff;}</style><linearGradient id="linear-gradient" y1="61.5" x2="563" y2="61.5" gradientUnits="userSpaceOnUse"><stop offset="0" stop-color="#0056e0"/><stop offset="1" stop-color="#2bccde"/></linearGradient></defs><g id="Layer_2" data-name="Layer 2"><g id="Layer_1-2" data-name="Layer 1"><rect class="cls-1" width="563" height="123"/><path class="cls-2" d="M61.32,78.68c-10,0-17.48-7-17.48-17.16,0-10.42,7.7-17.07,17.61-17.07,4.55,0,9.46,1.65,12.16,4.77l-5.32,5.32a8.09,8.09,0,0,0-6.56-3c-5.46,0-9.36,4.22-9.36,10,0,5.92,3.81,9.95,9.22,9.95a8.26,8.26,0,0,0,6.88-3.3l5.46,5.14A16.12,16.12,0,0,1,61.32,78.68Z"/><path class="cls-2" d="M75.72,58.08a15,15,0,0,1,10.19-3.86c7.66,0,10.51,3.76,10.51,12.07V77.81H89.53V75.37H89.4c-1.15,1.88-3.77,3-6.47,3-3.63,0-8.31-1.79-8.31-7.16,0-6.61,8-7.71,14.68-7.71v-.37c0-2.24-1.79-3.3-4.13-3.3a8.68,8.68,0,0,0-5.64,2.34Zm13.81,9.77h-1c-3.3,0-7,.41-7,3.12,0,1.74,1.74,2.34,3.26,2.34a4.33,4.33,0,0,0,4.72-4.68Z"/><path class="cls-2" d="M131.19,77.81V65.33c0-2.62-.59-4.82-3.25-4.82s-3.81,2.38-3.81,4.95V77.81H116.6v-13c0-2.61-1-4.26-3.26-4.26s-3.76,2.15-3.76,4.91V77.81H102V55h7.3v3.16h.09a7.62,7.62,0,0,1,6.84-3.81,7.21,7.21,0,0,1,6.88,3.9,8.18,8.18,0,0,1,7.29-3.9c6.2,0,8.31,5,8.31,9.36V77.81Z"/><path class="cls-2" d="M159,78.45A8.61,8.61,0,0,1,152,75.28h-.09V88.82H144.4V55h7.16v2.79h.14a9.1,9.1,0,0,1,7.3-3.44c6.65,0,10.82,5.6,10.82,12S165.83,78.45,159,78.45Zm-1.79-18a5.89,5.89,0,0,0,0,11.75c3.58,0,5.37-2.94,5.37-5.92S160.74,60.46,157.16,60.46Z"/><path class="cls-2" d="M174.23,58.08a14.94,14.94,0,0,1,10.18-3.86c7.67,0,10.51,3.76,10.51,12.07V77.81H188V75.37h-.14c-1.15,1.88-3.76,3-6.47,3-3.62,0-8.3-1.79-8.3-7.16,0-6.61,8-7.71,14.68-7.71v-.37c0-2.24-1.79-3.3-4.13-3.3A8.64,8.64,0,0,0,178,62.16ZM188,67.85h-1c-3.3,0-7,.41-7,3.12,0,1.74,1.75,2.34,3.26,2.34A4.33,4.33,0,0,0,188,68.63Z"/><path class="cls-2" d="M204.37,51.79a4.13,4.13,0,1,1,4.31-4.13A4.21,4.21,0,0,1,204.37,51.79Zm-3.76,26V55h7.52V77.81Z"/><path class="cls-2" d="M224.88,88.82a20.94,20.94,0,0,1-11.75-3.58l3.76-5.37a11.7,11.7,0,0,0,7.57,2.89c4.41,0,6.47-2.57,6.47-6.38V75h-.13a8.61,8.61,0,0,1-6.93,3C216.94,78,213,72.62,213,66.29s4-12,10.87-12a8.59,8.59,0,0,1,7.3,3.58h.09V55h7.11V75.65C238.32,84.6,233,88.82,224.88,88.82Zm.73-28.36c-3.39,0-5.37,2.62-5.37,5.78s2,5.83,5.37,5.83a5.81,5.81,0,0,0,0-11.61Z"/><path class="cls-2" d="M259.29,77.81V65.33c0-2.53-.69-4.82-3.4-4.82s-4,2.29-4,4.91V77.81h-7.57V55h7.3v3.16h.09a7.8,7.8,0,0,1,6.84-3.81c6.15,0,8.35,4.77,8.35,9.36V77.81Z"/><path class="cls-2" d="M299.07,77.81V65.42c0-2.57-.65-4.82-3.35-4.82s-4.09,2.16-4.09,4.86V77.81h-7.52V43.12h7.52V57.85h.09a7.45,7.45,0,0,1,6.57-3.54c6.19,0,8.35,4.77,8.35,9.36V77.81Z"/><path class="cls-2" d="M312,58.08a15,15,0,0,1,10.19-3.86c7.66,0,10.51,3.76,10.51,12.07V77.81h-6.89V75.37h-.13c-1.15,1.88-3.77,3-6.47,3-3.63,0-8.31-1.79-8.31-7.16,0-6.61,8-7.71,14.68-7.71v-.37c0-2.24-1.79-3.3-4.12-3.3a8.69,8.69,0,0,0-5.65,2.34Zm13.81,9.77h-1c-3.3,0-7,.41-7,3.12,0,1.74,1.74,2.34,3.26,2.34a4.33,4.33,0,0,0,4.72-4.68Z"/><path class="cls-2" d="M351.74,61.7A7.14,7.14,0,0,0,347,59.64c-1.42,0-2.84.5-2.84,1.83s1.24,1.65,4.17,2.3c3.49.78,7.3,2.52,7.3,7,0,5.78-5.09,7.8-9.77,7.8-3.72,0-7.57-1.24-10-3.53l4.22-4.45a7.8,7.8,0,0,0,5.6,2.57c1.24,0,2.71-.51,2.71-2s-1.43-1.88-4.55-2.61-6.65-2.34-6.65-6.66c0-5.46,5.14-7.66,9.5-7.66a13.75,13.75,0,0,1,9.18,3.21Z"/><path class="cls-2" d="M394,68.45H377.47c.23,2.52,2.76,4.31,5.46,4.31A6,6,0,0,0,388,70.37l5.23,3.31c-2.16,3.12-5.73,4.86-10.37,4.86-6.88,0-12.57-4.36-12.57-12.07,0-7.48,5.41-12.25,12.34-12.25,6.75,0,11.47,4.64,11.47,12.44C394.08,67.25,394.08,67.89,394,68.45Zm-6.88-4.68a4.16,4.16,0,0,0-4.5-4.36,5,5,0,0,0-5.19,4.36Z"/><path class="cls-2" d="M413.77,77.81V65.33c0-2.53-.69-4.82-3.4-4.82s-4,2.29-4,4.91V77.81h-7.57V55h7.3v3.16h.09A7.79,7.79,0,0,1,413,54.31c6.14,0,8.35,4.77,8.35,9.36V77.81Z"/><path class="cls-2" d="M444.32,77.81v-3h-.09a8.88,8.88,0,0,1-7.48,3.63c-6.88,0-10.87-5.78-10.87-12.16s4.13-12,10.78-12a9,9,0,0,1,7,3.08h.09V43.12h7.53V77.81Zm-5.78-17.35c-3.58,0-5.41,2.89-5.41,5.83s1.83,5.92,5.41,5.92a5.89,5.89,0,0,0,0-11.75Z"/><path class="cls-2" d="M479.83,68.45H463.27c.23,2.52,2.75,4.31,5.46,4.31a6,6,0,0,0,5-2.39L479,73.68c-2.16,3.12-5.74,4.86-10.37,4.86-6.89,0-12.58-4.36-12.58-12.07,0-7.48,5.42-12.25,12.35-12.25,6.74,0,11.47,4.64,11.47,12.44C479.88,67.25,479.88,67.89,479.83,68.45ZM473,63.77a4.15,4.15,0,0,0-4.5-4.36,5,5,0,0,0-5.18,4.36Z"/><path class="cls-2" d="M501.85,77.81v-3h-.09a8.88,8.88,0,0,1-7.48,3.63c-6.88,0-10.87-5.78-10.87-12.16s4.13-12,10.78-12a9,9,0,0,1,7,3.08h.09V43.12h7.52V77.81Zm-5.78-17.35c-3.58,0-5.41,2.89-5.41,5.83s1.83,5.92,5.41,5.92a5.89,5.89,0,0,0,0-11.75Z"/></g></g></svg>